<?xml version="1.0" standalone="no"?>
<!DOCTYPE svg PUBLIC "-//W3C//DTD SVG 1.1//EN" "http://www.w3.org/Graphics/SVG/1.1/DTD/svg11.dtd" >
<!--
2014-9-22: Created with FontForge (http://fontforge.org)
-->
<svg xmlns="http://www.w3.org/2000/svg" xmlns:xlink="http://www.w3.org/1999/xlink" version="1.1">
<metadata>
Created by FontForge 20140916 at Mon Sep 22 16:44:32 2014
 By Matthew Little
Copyright (c) 2014, Matthew Little
</metadata>
<defs>
<font id="tc-icons" horiz-adv-x="512" >
  <font-face 
    font-family="tc-icons"
    font-weight="400"
    font-stretch="normal"
    units-per-em="512"
    panose-1="2 0 5 3 0 0 0 0 0 0"
    ascent="448"
    descent="-64"
    bbox="0 -65 519 451"
    underline-thickness="25.6"
    underline-position="-51.2"
    unicode-range="U+F11E-F13B"
  />
    <missing-glyph />
    <glyph glyph-name="uniF123" unicode="&#xf123;" horiz-adv-x="483" 
d="M269 97l86 -129l26 129h102v320h-483v-320h269zM355 -31l-85 128h-270v319h483v-319h-102zM29 125v263h425v-263h-96l-17 -84l-56 84h-256zM28 125h257l56 -85l17 85h97v263h-427v-263zM29 125v263h425v-263h-96l-17 -84l-56 84h-256zM28 125h257l56 -85l17 85h97v263
h-427v-263zM355 -32l-85 129h-270v319h483v-319h-102zM29 125h256l56 -84l17 84h97v263h-426v-263z" />
    <glyph glyph-name="uniF12E" unicode="&#xf12e;" horiz-adv-x="349" 
d="M174 424c84 0 153 -68 153 -152v-6c-1 -16 -4 -32 -9 -46v0v0c-28 -93 -115 -213 -143 -250c-27 36 -116 157 -144 250v0v0c-5 14 -8 30 -9 46v6c0 84 68 152 152 152zM174 446c-96 0 -174 -78 -174 -174v-7c1 -18 4 -36 10 -52c37 -119 156 -267 156 -268l9 -10l8 10
s120 151 156 268c6 17 9 34 10 52v7c0 96 -79 174 -175 174zM174 208c38 0 70 31 70 69s-32 70 -70 70s-69 -32 -69 -70s31 -69 69 -69zM174 230c-26 0 -47 21 -47 47s21 48 47 48s48 -22 48 -48s-22 -47 -48 -47zM174 208c38 0 70 31 70 69s-32 70 -70 70s-69 -32 -69 -70
s31 -69 69 -69zM174 230c-26 0 -47 21 -47 47s21 48 47 48s48 -22 48 -48s-22 -47 -48 -47z" />
    <glyph glyph-name="uniF12D" unicode="&#xf12d;" horiz-adv-x="347" 
d="M173 450c96 0 174 -78 174 -174v-6c-1 -18 -4 -36 -10 -52c-37 -122 -164 -280 -164 -280s-126 158 -163 280c-6 16 -9 34 -10 52v6c0 96 77 174 173 174zM173 221c34 0 62 28 62 62s-28 61 -62 61s-61 -27 -61 -61s27 -62 61 -62z" />
    <glyph glyph-name="uniF136" unicode="&#xf136;" horiz-adv-x="501" 
d="M22 239c0 101 82 183 183 183s182 -82 182 -183s-81 -183 -182 -183s-183 82 -183 183zM0 239c0 -113 92 -204 205 -204s204 91 204 204s-91 205 -204 205s-205 -92 -205 -205zM349 110l-15 -16l152 -152l15 16z" />
    <glyph glyph-name="uniF11F" unicode="&#xf11f;" horiz-adv-x="424" 
d="M324 61c31 -13 71 -27 100 -44c-56 -50 -130 -81 -212 -81s-156 31 -212 81c29 17 69 31 100 44c47 20 42 32 44 49v8c-15 14 -26 35 -34 56v0v1c-2 5 -4 10 -5 15c-11 2 -18 13 -20 24c-2 4 -7 15 -6 27c1 15 7 22 14 25v5c0 5 1 56 12 91l-12 -1l16 13c0 1 1 0 1 1
l-11 6l19 7l1 2l-5 6s13 6 21 10c22 19 52 33 88 32h8l24 10l-4 -12l16 5l-3 -9l2 -1h17l-1 -8c16 -10 28 -22 40 -35c23 -24 14 -89 14 -110c0 -4 0 -10 -1 -15c5 -4 10 -10 11 -22s-5 -23 -7 -27c-2 -11 -8 -22 -19 -24c-1 -5 -3 -10 -5 -15v-1c-8 -20 -20 -41 -34 -55
c0 -3 1 -6 1 -9c2 -17 -5 -29 42 -49z" />
    <glyph glyph-name="uniF13A" unicode="&#xf13a;" horiz-adv-x="505" 
d="M124 311l15 -16l113 113l113 -113l16 16l-129 128zM505 115h-22v-150h-461v150h-22v-172h505v172zM241 54h22v370h-22v-370z" />
    <glyph glyph-name="uniF138" unicode="&#xf138;" 
d="M512 316v-38c-3 -6 -8 -11 -15 -14c-12 -5 -25 -1 -35 13v42h-15v-43h-1c-4 -10 -14 -16 -24 -17s-19 4 -27 15v42h-15v-37h-1c-4 -10 -14 -16 -24 -17s-19 4 -27 15v42h-15v-44c-5 -8 -14 -13 -23 -13c-10 0 -18 4 -26 15v42h-15v-44c-5 -8 -14 -13 -23 -13
c-10 0 -18 4 -26 15v42h-15v-40h-1c-4 -10 -14 -16 -24 -17s-19 4 -27 15v42h-15v-46c-5 -9 -14 -15 -23 -16c-10 -1 -21 5 -29 17v45h-15v-46c-4 -7 -10 -13 -18 -15c-7 -2 -15 -1 -22 4c-4 3 -8 6 -11 11v44l33 87h443l35 -88h1zM492 247v-263h-58v209h-148v-209h-272v260
c4 -1 8 -2 12 -2s8 0 11 1c9 2 16 8 22 15c12 -14 26 -16 34 -16h3c12 1 24 8 32 18c11 -11 22 -14 30 -14h4c12 1 22 8 30 17c10 -11 21 -17 33 -17h2c11 1 22 6 30 15c9 -10 20 -15 32 -15h2c11 1 22 6 30 15c12 -12 24 -15 32 -15h4c11 1 21 7 28 15
c13 -15 26 -18 35 -18h3c12 1 24 9 32 19c8 -9 19 -16 32 -16c2 0 3 1 5 1zM225 91v102h-157v-102h157z" />
    <glyph glyph-name="uniF12C" unicode="&#xf12c;" horiz-adv-x="443" 
d="M415 144c20 -34 -28 -25 -10 -77c8 -23 -43 -25 -34 -61c3 -14 -18 -37 -26 -38c-100 -15 -113 3 -148 3c-30 0 -48 15 -76 13c-13 -1 -59 -5 -99 -8v189h59c30 0 49 64 67 92c9 14 23 22 30 35c38 65 28 114 29 130c1 0 3 0 5 -1c13 -4 45 -18 26 -141
c-4 -26 8 -40 24 -42c6 -1 11 -1 15 -1c96 -1 87 6 129 -27c30 -24 -18 -20 9 -66zM433 155c-7 12 25 42 -14 72c-45 35 -49 31 -142 32c-5 0 -9 1 -12 1c-5 1 -8 -2 -5 16c19 126 -13 158 -42 166c-9 2 -19 4 -27 -3c-22 -20 10 -63 -32 -136c-2 -4 -18 -17 -29 -35
c-21 -33 -41 -77 -49 -81h-81v-234h12c40 3 97 8 111 9c17 1 37 -13 74 -13c24 0 49 -19 151 -3c21 3 51 35 45 65c2 3 45 28 33 63c-7 21 34 34 7 81z" />
    <glyph glyph-name="uniF12F" unicode="&#xf12f;" 
d="M256 448c141 0 256 -115 256 -256s-115 -256 -256 -256s-256 115 -256 256s115 256 256 256zM256 -33c124 0 224 101 224 225s-100 224 -224 224s-224 -100 -224 -224s100 -225 224 -225zM252 105c20 -20 48 -33 88 -33c31 0 59 10 82 30c-32 -58 -93 -98 -164 -98
c-70 0 -132 38 -164 95c18 -18 48 -25 75 -25c30 0 64 8 83 31zM170 113c-19 0 -51 8 -51 32h-43c-4 15 -6 31 -6 47c0 21 4 41 10 60c0 -3 -1 -6 -1 -9h44c0 21 27 28 47 28c37 0 48 -18 48 -31c0 -21 -25 -27 -48 -27h-34v-35h36c41 0 49 -17 49 -31
c0 -25 -29 -34 -51 -34zM171 310c-29 0 -62 -8 -79 -29c32 59 95 98 166 98c104 0 187 -83 187 -187c0 -30 -6 -59 -19 -84l-28 28c-15 -15 -38 -23 -58 -23c-57 0 -79 40 -79 78s24 79 79 79c20 0 41 -6 56 -21l29 27c-24 23 -54 36 -85 36c-40 0 -70 -14 -90 -36
c-16 24 -48 34 -79 34z" />
    <glyph glyph-name="uniF11E" unicode="&#xf11e;" horiz-adv-x="483" 
d="M0 205v-22h483v22h-483zM230 -48h22v483h-22v-483z" />
    <glyph glyph-name="uniF127" unicode="&#xf127;" 
d="M256 192l-245 180c5 5 12 8 20 8h450c8 0 15 -3 20 -8zM151 214l-151 -111v222zM361 214l151 111v-222zM323 187l189 -139v-13c0 -17 -14 -31 -31 -31h-450c-17 0 -31 14 -31 31v13l189 139l67 -50z" />
    <glyph glyph-name="uniF133" unicode="&#xf133;" 
d="M458 417c30 0 54 -23 54 -53s-24 -54 -54 -54h-1l-84 -155c3 -6 4 -13 4 -20c0 -30 -24 -54 -54 -54s-53 24 -53 54c0 6 1 12 3 17l-66 47c-6 -2 -11 -4 -18 -4c-2 0 -5 1 -7 1l-88 -140c9 -10 14 -22 14 -36c0 -30 -24 -53 -54 -53s-54 23 -54 53s24 54 54 54h8l88 138
c-9 10 -15 23 -15 37c0 30 24 54 54 54s53 -24 53 -54c0 -10 -3 -18 -7 -26l60 -43c8 5 17 9 28 9c9 0 18 -2 25 -6l75 140c-11 10 -19 25 -19 41c0 30 24 53 54 53zM54 3c10 0 18 7 18 17s-8 18 -18 18s-18 -8 -18 -18s8 -17 18 -17zM189 231c10 0 17 8 17 18s-7 18 -17 18
s-18 -8 -18 -18s8 -18 18 -18zM323 117c10 0 18 8 18 18s-8 18 -18 18s-17 -8 -17 -18s7 -18 17 -18zM458 346c10 0 18 8 18 18s-8 17 -18 17s-18 -7 -18 -17s8 -18 18 -18z" />
    <glyph glyph-name="uniF122" unicode="&#xf122;" horiz-adv-x="503" 
d="M0 197c0 -139 112 -251 251 -251s252 112 252 251s-113 252 -252 252s-251 -113 -251 -252zM1 197c0 138 112 250 250 250s250 -112 250 -250s-112 -250 -250 -250s-250 112 -250 250zM1 197c0 138 112 251 250 251s251 -113 251 -251s-113 -250 -251 -250
s-250 112 -250 250z" />
    <glyph glyph-name="uniF120" unicode="&#xf120;" horiz-adv-x="519" 
d="M16 188l-16 -15l168 -168l351 351l-16 15l-335 -335z" />
    <glyph glyph-name="uniF132" unicode="&#xf132;" horiz-adv-x="487" 
d="M0 206v-22h487v22h-487z" />
    <glyph glyph-name="uniF12B" unicode="&#xf12b;" horiz-adv-x="271" 
d="M255 -60l16 15l-240 240l240 240l-16 15l-255 -255z" />
    <glyph glyph-name="uniF129" unicode="&#xf129;" horiz-adv-x="508" 
d="M425 214l1 -6l57 -31l-9 -36v-1l-8 -35l-65 -4l-3 -5c-6 -9 -13 -17 -20 -25l-4 -4l11 -64c-11 -5 -21 -10 -33 -16s-21 -10 -33 -16l-44 49l-5 -1c-5 0 -11 -1 -16 -1s-11 1 -16 1l-6 1l-43 -49c-11 5 -21 10 -33 16s-22 10 -34 16l11 64l-4 4c-7 8 -14 16 -20 25l-3 5
l-64 4l-9 35v1l-8 36l57 31l1 6c1 11 4 21 7 31l2 5l-38 53c8 10 15 19 23 29s14 18 23 29l60 -25l5 3c9 6 19 10 29 14l5 2l18 61h74l17 -61l5 -2c10 -4 21 -8 30 -14l5 -3l60 25c8 -10 15 -19 23 -29s14 -18 23 -29l-38 -53l2 -5c3 -10 6 -20 7 -31zM446 222
c-2 10 -4 17 -6 25l41 57l-5 6c-10 12 -18 24 -28 36s-18 23 -28 35l-6 7l-65 -27c-8 5 -15 8 -23 11l-18 66h-108l-19 -66c-9 -4 -16 -7 -23 -11l-65 27l-5 -7c-10 -12 -18 -23 -28 -35s-18 -24 -28 -36l-6 -6l41 -58c-3 -9 -4 -16 -5 -24l-62 -34l12 -52v0l12 -53l70 -3
c6 -8 10 -14 16 -20l-12 -69l7 -4c14 -7 27 -13 41 -20s27 -12 41 -19l8 -4l46 53c5 0 9 -1 13 -1s8 1 12 1l47 -53l8 4c14 7 27 13 41 20s26 12 40 19l8 4l-12 69c6 7 10 13 15 20l71 4l12 52v0l12 52zM339 191c0 47 -38 85 -85 85s-85 -38 -85 -85s38 -85 85 -85
s85 38 85 85zM317 191c0 -35 -28 -63 -63 -63s-63 28 -63 63s28 63 63 63s63 -28 63 -63zM339 191c0 47 -38 85 -85 85s-85 -38 -85 -85s38 -85 85 -85s85 38 85 85zM317 191c0 -35 -28 -63 -63 -63s-63 28 -63 63s28 63 63 63s63 -28 63 -63z" />
    <glyph glyph-name="uniF125" unicode="&#xf125;" horiz-adv-x="511" 
d="M511 295l-16 16l-240 -240l-239 240l-16 -16l255 -255z" />
    <glyph glyph-name="uniF13B" unicode="&#xf13b;" 
d="M0 -47l16 -15l496 496l-16 15zM496 -62l16 15l-496 496l-16 -15z" />
    <glyph glyph-name="uniF121" unicode="&#xf121;" horiz-adv-x="441" 
d="M441 -61h-441v485h441v-485zM37 -24h367v411h-367v-411zM110 359v92h220v-92h-220zM110 274v36h220v-36h-220zM110 47v36h220v-36h-220zM110 198v37h220v-37h-220zM110 122v37h220v-37h-220z" />
    <glyph glyph-name="uniF131" unicode="&#xf131;" 
d="M459 419l53 -55l-23 -21l-53 54zM196 168l219 205l52 -54l-219 -205zM148 80l2 52l19 18v0l53 -54l-20 -18v0zM400 208l43 40v-273h-443v444h404l-45 -43h-316v-358h357v190z" />
    <glyph glyph-name="uniF137" unicode="&#xf137;" 
d="M256 441l79 -160l177 -26l-128 -124l30 -176l-158 83l-158 -83l30 176l-128 124l177 26z" />
    <glyph glyph-name="uniF130" unicode="&#xf130;" 
d="M15 192c0 133 108 241 241 241s241 -108 241 -241s-108 -242 -241 -242s-241 109 -241 242zM0 192c0 -141 115 -256 256 -256s256 115 256 256s-115 256 -256 256s-256 -115 -256 -256z" />
    <glyph glyph-name="uniF135" unicode="&#xf135;" horiz-adv-x="271" 
d="M16 450l-16 -15l240 -240l-240 -240l16 -15l255 255z" />
    <glyph glyph-name="uniF128" unicode="&#xf128;" horiz-adv-x="505" 
d="M324 -59v189l181 240v4c0 39 -32 71 -71 71h-363c-39 0 -71 -32 -71 -71v-4l181 -241v-188h143zM302 -37h-99v173l-181 242c2 25 23 45 49 45h363c26 0 47 -19 49 -45l-181 -241v-174z" />
    <glyph glyph-name="uniF134" unicode="&#xf134;" horiz-adv-x="394" 
d="M251 448l143 -149v-363h-394v512h251zM257 381v-70h68zM353 -23v0v303h-127v126h-185v-429h312zM86 27v41h223v-41h-223zM86 171v42h223v-42h-223zM86 316v41h111v-41h-111z" />
    <glyph glyph-name="uniF12A" unicode="&#xf12a;" horiz-adv-x="486" 
d="M486 325v22h-486v-22h486zM0 38v-22h486v22h-486zM0 193v-22h486v22h-486z" />
    <glyph glyph-name="uniF124" unicode="&#xf124;" 
d="M282 208c9 -17 3 -38 -14 -47s-37 -3 -46 14s-46 153 -43 155s94 -105 103 -122zM400 194h-27c-5 0 -9 4 -9 9s4 10 9 10h27c5 0 10 -5 10 -10s-5 -9 -10 -9zM256 448c141 0 256 -115 256 -256s-115 -256 -256 -256s-256 115 -256 256s115 256 256 256zM256 383
c-105 0 -191 -86 -191 -191c0 -13 2 -26 4 -38h108c9 -26 41 -45 79 -45s70 19 79 45h108c2 12 4 25 4 38c0 105 -86 191 -191 191zM350 248c-3 0 -7 2 -9 5c-3 5 -1 10 4 13l23 13c5 3 10 2 13 -3s2 -10 -3 -13l-24 -14c-1 -1 -2 -1 -4 -1zM256 295c-5 0 -10 5 -10 10v27
c0 5 5 9 10 9s10 -4 10 -9v-27c0 -5 -5 -10 -10 -10zM310 281c-2 0 -3 1 -5 2c-5 3 -7 8 -4 13l14 23c3 5 8 7 13 4s7 -8 4 -13l-14 -24c-2 -3 -5 -5 -8 -5zM137 192h-27c-5 0 -9 5 -9 10s4 10 9 10h27c5 0 10 -5 10 -10s-5 -10 -10 -10zM161 243c-2 0 -3 1 -5 2l-23 13
c-5 3 -7 8 -4 13s8 7 13 4l24 -14c5 -3 6 -8 3 -13c-2 -3 -5 -5 -8 -5z" />
    <glyph glyph-name="uniF126" unicode="&#xf126;" horiz-adv-x="505" 
d="M381 169l-16 16l-113 -113l-113 113l-15 -16l128 -128zM505 116h-22v-149h-461v149h-22v-171h505v171zM263 425h-22v-369h22v369z" />
    <glyph glyph-name="uniF139" unicode="&#xf139;" horiz-adv-x="511" 
d="M0 92l16 -16l239 240l240 -240l16 16l-256 255z" />
  </font>
</defs>
</svg>
