<?xml version="1.0" standalone="no"?>
<!DOCTYPE svg PUBLIC "-//W3C//DTD SVG 1.1//EN" "http://www.w3.org/Graphics/SVG/1.1/DTD/svg11.dtd" >
<!--
2015-4-2: Created with FontForge (http://fontforge.org)
-->
<svg xmlns="http://www.w3.org/2000/svg" xmlns:xlink="http://www.w3.org/1999/xlink" version="1.1">
<metadata>
Created by FontForge 20150302 at Thu Apr  2 14:41:50 2015
 By Andrew Croswell
Copyright (c) 2015, Andrew Croswell
</metadata>
<defs>
<font id="tc-icons" horiz-adv-x="512" >
  <font-face 
    font-family="tc-icons"
    font-weight="400"
    font-stretch="normal"
    units-per-em="512"
    panose-1="2 0 5 3 0 0 0 0 0 0"
    ascent="448"
    descent="-64"
    bbox="0 -67.0527 519.241 449.828"
    underline-thickness="25.6"
    underline-position="-51.2"
    unicode-range="U+0020-F1AE"
  />
    <missing-glyph />
    <glyph glyph-name="space" unicode=" " horiz-adv-x="200" 
 />
    <glyph glyph-name="uniF191" unicode="&#xf191;" 
d="M20.1143 417.28h471.771v-317.221h-97.8652l-26.624 -133.34l-88.8682 133.413h-258.414v317.147zM300.69 141.604l45.6406 -68.3887l13.6777 68.3887h90.332v234.13h-388.755v-234.13h239.104z" />
    <glyph glyph-name="uniF1AD" unicode="&#xf1ad;" 
d="M256 350.939l171.959 -171.959h-87.1133v-213.211h-169.691v213.211h-87.1133zM28.5254 374.345v43.8857h454.949v-43.8857h-454.949z" />
    <glyph glyph-name="uniF19C" unicode="&#xf19c;" 
d="M256 393.874c71.6396 0 129.683 -58.0566 129.683 -129.608c0 -1.24121 -0.0566406 -2.77734 -0.129883 -4.61328c-0.507812 -13.8574 -3.06055 -26.7891 -7.44336 -39.0596l-0.176758 -0.495117l-0.152344 -0.503906
c-22.626 -74.4307 -89.501 -171.609 -121.78 -215.195c-31.4121 42.4092 -99.1621 140.769 -121.781 215.126l-0.152344 0.500977l-0.175781 0.493164c-4.37109 12.2383 -6.93848 25.2812 -7.44141 38.9912c-0.0791016 1.9873 -0.131836 3.40332 -0.131836 4.68262
c0 71.6338 58.0479 129.682 129.683 129.682zM256 437.76c-95.8643 0 -173.567 -77.7041 -173.567 -173.567c0 -2.39746 0.0927734 -4.57812 0.162109 -6.3252c0.655273 -17.8701 4.375 -36.2197 9.78809 -51.6074c35.0645 -114.046 145.222 -250.2 146.9 -252.31
l16.7168 -21.0029l17.1709 21.5732c1.0918 1.37207 112.103 140.035 146.447 251.815c5.9082 16.7939 9.12695 33.6201 9.78711 51.6045c0.0693359 1.74707 0.162109 3.92773 0.162109 6.3252c0 95.7979 -77.708 173.494 -173.567 173.494zM256 193.756
c41.9111 0 75.8496 34.041 75.8496 75.8486c0 41.8857 -33.9639 75.8486 -75.8496 75.8486s-75.8496 -33.9629 -75.8496 -75.8486s33.9648 -75.8486 75.8496 -75.8486zM256 237.642c-17.6533 0 -31.9639 14.3096 -31.9639 31.9629s14.3105 31.9629 31.9639 31.9629
s31.9639 -14.3096 31.9639 -31.9629c0 -17.585 -14.3369 -31.9629 -31.9639 -31.9629zM256 193.756c41.9111 0 75.8496 34.041 75.8496 75.8486c0 41.8857 -33.9639 75.8486 -75.8496 75.8486s-75.8496 -33.9629 -75.8496 -75.8486s33.9648 -75.8486 75.8496 -75.8486z
M256 237.642c-17.6533 0 -31.9639 14.3096 -31.9639 31.9629s14.3105 31.9629 31.9639 31.9629s31.9639 -14.3096 31.9639 -31.9629c0 -17.585 -14.3369 -31.9629 -31.9639 -31.9629z" />
    <glyph glyph-name="uniF18D" unicode="&#xf18d;" 
 />
    <glyph glyph-name="uniF19B" unicode="&#xf19b;" 
d="M256 449.828c95.7441 0 173.422 -77.6045 173.422 -173.494c0 -2.04785 -0.0732422 -4.09668 -0.146484 -6.21777c-0.658203 -18.2119 -4.0957 -35.6934 -9.94727 -52.0771c-37.0107 -121.563 -163.328 -280.211 -163.328 -280.211s-126.317 158.647 -163.328 280.284
c-5.85156 16.3838 -9.28906 33.8652 -9.94727 52.0771c-0.0732422 2.04785 -0.146484 4.16895 -0.146484 6.21777c0 95.7432 77.6777 173.421 173.422 173.421zM256 221.038c34.085 0 61.6592 27.5742 61.6592 61.6592c0 34.0117 -27.5742 61.6592 -61.6592 61.6592
c-34.0117 0 -61.6592 -27.5752 -61.6592 -61.6592c0 -34.0117 27.5742 -61.6592 61.6592 -61.6592z" />
    <glyph glyph-name="uniF1A4" unicode="&#xf1a4;" 
d="M49.2988 237.202c0 89.1973 72.3018 161.499 161.499 161.499c89.1963 0 161.499 -72.3018 161.499 -161.499c0 -89.1963 -72.3027 -161.499 -161.499 -161.499c-89.1973 0 -161.499 72.3027 -161.499 161.499zM5.41309 237.202
c0 -113.428 91.9561 -205.385 205.385 -205.385c113.428 0 205.385 91.957 205.385 205.385c0 113.429 -91.957 205.385 -205.385 205.385c-113.429 0 -205.385 -91.9561 -205.385 -205.385zM355.997 123.035l-31.0322 -31.0322l144.091 -144.09l31.0312 31.0312z" />
    <glyph glyph-name="uniF18C" unicode="&#xf18c;" 
d="M367.763 61.2939c30.793 -13.2393 71.8994 -27.1367 100.425 -44.3975c-56.4668 -50.1768 -130.633 -80.8965 -212.188 -80.8965s-155.721 30.7197 -212.114 80.8232c28.5254 17.1885 69.6318 31.085 100.498 44.3975c46.665 20.1143 41.7646 32.3291 43.4473 49.0059
c0.291992 2.63281 0.438477 5.33887 0.511719 8.19141c-14.6289 14.4092 -26.0391 34.3779 -34.1572 55.2236l-0.146484 0.438477c-0.146484 0.365234 -0.219727 0.658203 -0.366211 0.951172c-1.82812 4.75391 -3.4375 9.80078 -4.82715 14.8477
c-11.0449 1.82812 -17.4814 13.3848 -19.8945 24.0635c-2.41406 4.24316 -7.46094 14.7021 -6.29102 26.624c1.46289 15.1406 7.68066 22.2363 14.7021 25.2344c-0.366211 2.70703 -0.584961 4.53516 -0.584961 5.19336c0 4.53516 0.658203 56.1006 11.8486 91.4287
l-11.8486 -1.68262l16.0908 12.8008c0.219727 0.511719 0.439453 0.950195 0.65918 1.46289l-10.2402 6.07031l18.4316 7.3877c0.292969 0.365234 0.584961 0.804688 0.87793 1.16992l-4.97363 6.80273s13.2383 6.29004 20.7725 9.94727
c21.8701 19.0898 52.5166 32.6221 88.0635 32.0361c2.92578 -0.0732422 5.77832 -0.145508 8.55859 -0.365234l24.2832 9.94727l-4.75488 -12.4346l15.8721 4.97363l-2.33984 -8.99609c0.438477 -0.219727 0.950195 -0.366211 1.38965 -0.511719l17.7734 -0.439453
l-1.75586 -7.16797c16.457 -9.72754 28.1602 -22.8936 40.3018 -35.5469c22.9668 -23.918 14.4824 -88.7959 14.4824 -109.935c0 -4.24219 -0.438477 -9.14258 -1.16992 -14.6279c5.12012 -3.87695 9.21582 -10.752 10.3857 -22.748
c1.09766 -11.9219 -3.87598 -22.3809 -6.29004 -26.624c-2.34082 -10.5322 -8.63086 -21.8691 -19.3096 -23.9902c-1.38965 -5.04688 -2.99902 -10.0205 -4.75391 -14.7754c-0.146484 -0.365234 -0.585938 -1.46289 -0.585938 -1.46289
c-7.97266 -20.4062 -19.0898 -40.0088 -33.2793 -54.3447c0.0732422 -3.14551 0.21875 -6.2168 0.511719 -9.06934c1.68262 -16.6768 -4.68164 -28.8916 41.9844 -49.0059z" />
    <glyph glyph-name="uniF1A5" unicode="&#xf1a5;" 
d="M256 435.492l79.1406 -160.329l176.859 -25.6729l-128 -124.781l30.208 -176.201l-158.208 83.2363l-158.208 -83.2363l30.208 176.201l-128 124.781l176.859 25.6729z" />
    <glyph glyph-name="uniF1A8" unicode="&#xf1a8;" 
d="M126.162 315.694l31.0312 -31.0312l98.8066 98.8057l98.8066 -98.8057l31.0312 31.0312l-129.838 129.838zM506.515 121.929h-43.8857v-130.486h-413.258v130.486h-43.8857v-174.372h501.029v174.372zM234.058 64.7314h43.8848v349.77h-43.8848v-349.77z" />
    <glyph glyph-name="uniF1AC" unicode="&#xf1ac;" 
d="M402.213 248.394h51.8584v-288.549h-396.143v288.549h51.8584v0.731445v28.8174c0 80.75 65.4629 146.213 146.213 146.213s146.213 -65.4629 146.213 -146.213v-28.8174v-0.731445zM284.307 87.6982c12.5068 8.85059 20.7725 23.4785 20.7725 40.082
c0 27.1367 -21.9434 49.0791 -49.0791 49.0791s-49.0791 -22.0156 -49.0791 -49.0791c0 -16.6035 8.19238 -31.2314 20.7725 -40.082v-42.9346h56.6133v42.9346zM357.449 248.394v0.731445v28.8174c0 56.0283 -45.4219 101.449 -101.449 101.449
s-101.449 -45.4209 -101.449 -101.449v-28.8174v-0.731445h202.898z" />
    <glyph glyph-name="uniF1A6" unicode="&#xf1a6;" 
d="M512 314.588v-38.5469c-3.29102 -6.43652 -8.7041 -11.6299 -15.2139 -14.2627c-12.2881 -5.19336 -24.9414 -0.219727 -34.9619 13.458v41.8379h-15.2139v-43.1543l-0.87793 0.366211c-4.46191 -9.80176 -13.6777 -16.6035 -23.4785 -17.4082
c-10.0205 -0.87793 -19.4561 4.46191 -27.4287 15.3594v41.7646h-15.2139v-37.083l-0.87793 0.438477c-4.38867 -9.72754 -13.5312 -16.5303 -23.2588 -17.4072c-10.0938 -0.87793 -19.5293 4.3877 -27.5752 15.3594v41.7646h-15.2139v-43.666
c-5.12012 -7.97266 -13.458 -13.166 -22.1621 -13.6045c-9.65527 -0.439453 -18.7979 4.82715 -26.5508 15.4326v41.8379h-15.2871v-43.666c-5.12012 -7.97266 -13.6777 -13.2393 -22.3086 -13.6045c-9.6543 -0.366211 -18.7246 4.90039 -26.4043 15.4326v41.8379h-15.2139
v-40.1553l-0.87793 0.438477c-4.38867 -9.80078 -13.6045 -16.6035 -23.4785 -17.4072c-10.0205 -0.87793 -19.4561 4.46094 -27.4287 15.3594v41.7646h-15.2139v-45.9336c-4.68066 -9.06934 -13.6045 -15.3604 -23.04 -16.0186
c-10.459 -0.804688 -20.333 5.19336 -28.4521 17.1885v44.7637h-15.1406v-45.8604c-3.80371 -7.46094 -10.6787 -13.166 -18.2861 -15.2871c-7.31348 -1.97461 -14.7012 -0.584961 -21.5039 4.16895c-4.02246 2.7793 -7.82617 6.72949 -11.2637 11.7031v43.959
l33.2803 86.3818h442.733l35.1084 -87.8447zM492.179 244.882v-263.021h-58.3682v209.555h-147.603v-209.555h-271.652v259.804c3.87598 -1.24316 7.82617 -1.8291 11.7754 -1.8291c3.51172 0 7.02246 0.439453 10.46 1.39062
c8.85059 2.41309 16.8223 7.82617 22.6738 15.0674c12.2148 -13.751 25.1611 -16.5303 33.6465 -16.5303c0.950195 0 1.90137 0 2.7793 0.0722656c12.4336 0.87793 24.1367 7.82715 31.7441 18.2861c11.3369 -11.2637 23.0391 -13.6777 30.8662 -13.6777
c1.16992 0 2.19434 0.0732422 3.21777 0.146484c11.5566 0.951172 22.5283 7.16797 30.0615 16.5303c9.58203 -10.8984 21.2852 -16.75 33.6465 -16.75h1.68164c11.4102 0.511719 22.3818 5.99805 30.208 14.9941c9.28906 -9.80078 20.4072 -14.9941 32.1104 -14.9941
h1.90137c11.3369 0.584961 22.1621 6.07129 29.915 14.9209c11.7764 -12.3604 23.9912 -14.9209 32.1836 -14.9209c1.24316 0 2.41309 0.0732422 3.4375 0.146484c10.8252 0.951172 21.0645 6.58301 28.4521 14.9941c12.6543 -15.2139 26.2588 -18.2129 35.0352 -18.2129
c1.1709 0 2.19434 0.0732422 3.21875 0.146484c12.2148 1.02441 23.7715 7.97266 31.3779 18.2861c8.41211 -8.85059 19.6025 -15.4336 32.4023 -15.4336c1.53613 0.219727 3.14551 0.366211 4.82812 0.584961zM224.914 89.5273v101.888h-156.745v-101.961h156.745
v0.0732422z" />
    <glyph glyph-name="uniF19A" unicode="&#xf19a;" 
d="M417.493 144.44c13.2305 -22.6348 -30.4219 -1.93555 -9.18164 -65.6562c0.189453 -0.563477 0.193359 -0.698242 0.206055 -0.833008c0 0 -39.8916 -14.3623 -30.9609 -52.459c0.34375 -1.45215 -6.49707 -15.4482 -14.458 -19.5928
c-86.3408 -13.0791 -92.4336 2.9502 -128.822 2.9502c-21.916 0 -36.2148 14.7461 -68 12.0674c-10.3555 -0.836914 -42.1543 -3.36816 -75.0674 -5.96094v142.813h40.7412c40.8516 0 57.6973 67.4424 69.8232 87.1836c6.25586 10.1855 17.1895 14.8262 26.6426 30.8965
c24.334 41.7324 27.8311 76.3779 27.5498 99.9756c5.81445 -10.5967 12.7021 -39.4844 2.92773 -102.415c-2.41992 -15.7266 -0.382812 -33.2285 13.5869 -43.627c6.42969 -4.78613 13.0586 -6.41895 18.1475 -7.17676
c6.51953 -0.970703 11.6826 -0.724609 15.1602 -0.762695c87.7305 -0.993164 71.0566 6.23145 107.184 -21.7998c2.31641 -1.79492 3.59082 -3.09961 4.2959 -3.94727c-0.783203 -2.68848 -14.2539 -26.8154 0.225586 -51.6562zM455.395 166.563
c-4.95312 8.49707 11.2119 -2.62598 5.56348 36.1318c-1.87305 12.8496 -10.1094 23.5176 -21.084 32.0215c-41.5508 32.2393 -53.25 30.1006 -133.604 31.0098c-1.45801 0.015625 -3.7168 0.0234375 -4.14453 0.0273438
c0.101562 0.724609 0.0244141 0.213867 0.135742 0.936523c17.5078 112.721 -11.2021 151.295 -45.7656 160.844c-63.5576 17.5371 -37.4463 -79.9512 -65.834 -129.312c-1.7207 -2.25684 -15.7461 -13.1426 -26.2832 -30.2979
c-14.9326 -24.3105 -29.4014 -56.5449 -37.3711 -66.2686h-79.6846v-234.158l23.6533 1.84961c35.6025 2.7832 86.125 6.7998 98.9111 7.83301c8.15137 0.6875 26.9141 -12.2158 64.3887 -12.2158c15.9189 0 44.8848 -16.375 136.396 -2.30176
c25.501 3.95605 52.4951 33.2607 50.6807 65.8994c6.14453 5.75879 27.9375 18.2822 30.7969 44.667c0.6875 6.34375 -0.0839844 13.1055 -2.21094 19.4502c-0.689453 2.07031 34.2051 24.6992 5.45508 73.8848z" />
    <glyph glyph-name="uniF19D" unicode="&#xf19d;" 
d="M256 448c141.385 0 256 -114.615 256 -256s-114.615 -256 -256 -256s-256 114.615 -256 256s114.615 256 256 256zM256 -32.4023c123.978 0 224.402 100.425 224.402 224.402c0 123.904 -100.425 224.402 -224.402 224.402s-224.329 -100.498 -224.329 -224.402
c0 -123.978 100.352 -224.402 224.329 -224.402zM252.196 104.813c19.6758 -19.5293 48.6406 -32.2559 88.2109 -32.1826c30.6465 0 59.0986 9.3623 81.8467 29.2568c-31.8906 -58.0752 -93.623 -97.499 -164.571 -97.499c-69.998 0 -130.999 38.3271 -163.182 95.1592
c18.4316 -17.9209 47.9082 -24.9424 74.9707 -24.9424c30.0625 0 64 7.68066 82.7246 30.208zM169.838 113.226c-18.7246 0 -50.4688 8.19141 -50.4688 31.7432h-43.374c-3.87598 14.9951 -5.92383 30.7939 -5.92383 47.0312c0 21.1387 3.58398 41.4717 10.0205 60.4893
c-0.439453 -3.07227 -0.658203 -6.2168 -0.658203 -9.58203h43.2266c0 20.9189 27.502 28.1602 47.8359 28.1602c36.6445 0 47.1768 -17.335 47.1768 -30.501c-0.365234 -21.2842 -24.8682 -27.501 -48.1279 -27.501h-33.0605v-35.3281h35.6211
c41.3252 0 48.8594 -17.042 48.8594 -30.793c0 -24.5762 -29.1846 -33.7188 -51.127 -33.7188zM170.788 310.418c-28.8906 0 -60.9277 -8.48438 -78.4082 -29.4766c31.6699 58.7344 93.8418 98.7432 165.303 98.7432c103.644 0 187.685 -84.041 187.685 -187.611
c0 -30.0615 -7.09473 -58.3682 -19.6758 -83.5293l-27.6484 28.0137c-15.0674 -15.0674 -37.668 -23.2598 -57.6357 -23.2598c-56.6865 0 -78.6289 39.6436 -78.9219 77.6055c-0.365234 38.3262 23.5527 79.5791 78.9219 79.5791
c20.041 0 40.3018 -6.87598 55.3691 -21.5771l28.8184 27.7939c-23.5527 23.2598 -53.1025 35.0352 -84.1875 35.0352c-40.1562 0 -69.998 -14.3359 -90.0391 -35.9131c-16.165 23.918 -48.7129 34.5967 -79.5801 34.5967z" />
    <glyph glyph-name="uniF18B" unicode="&#xf18b;" 
d="M27.4287 213.942v-43.8848h457.143v43.8848h-457.143zM234.058 -36.5713h43.8848v457.143h-43.8848v-457.143z" />
    <glyph glyph-name="uniF195" unicode="&#xf195;" 
d="M256 192l-245.248 180.15c5.48535 4.82812 12.5811 7.82715 20.4805 7.82715h449.608c7.82617 0 14.9941 -2.99902 20.4805 -7.82715zM151.333 214.235l-151.333 -111.177v222.281zM360.667 214.235l151.333 111.104v-222.281zM323.438 186.953l188.636 -138.459
v-13.2393c0 -17.2617 -13.9707 -31.2324 -31.2324 -31.2324h-449.608c-17.2617 0 -31.2324 13.9707 -31.2324 31.1592v13.2393l188.562 138.459l67.4375 -49.5176z" />
    <glyph glyph-name="uniF1AA" unicode="&#xf1aa;" 
d="M46.665 277.65h418.597v-284.965c0 -21.4307 -17.1152 -38.5459 -38.0342 -38.5459h-342.528c-20.9189 0 -38.0342 17.1152 -38.0342 38.5459v284.965zM151.333 -17.335h0.0722656v76.1416h-76.1416v-76.1416h76.0693zM151.333 77.8242h0.0722656v76.1416h-76.1416
v-76.1416h76.0693zM151.333 172.982h0.0722656v76.0693h-76.1416v-76.0693h76.0693zM246.491 -17.335v76.1416h-76.1416v-76.1416h76.1416zM246.491 77.8242v76.1416h-76.1416v-76.1416h76.1416zM246.491 172.982v76.0693h-76.1416v-76.0693h76.1416zM341.65 -17.335
v76.1416h-76.1416v-76.1416h76.1416zM341.65 77.8242v76.1416h-76.1416v-76.1416h76.1416zM341.65 172.982v76.0693h-76.1416v-76.0693h76.1416zM436.736 -17.335h0.0732422v76.1416h-76.1426v-76.1416h76.0693zM436.736 77.8242h0.0732422v76.1416h-76.1426v-76.1416
h76.0693zM436.736 172.982h0.0732422v76.0693h-76.1426v-76.0693h76.0693zM427.228 372.736c20.9189 0 38.1074 -17.1162 38.1074 -38.4736v-32.8408v0v-4.75488h-418.597v4.75488v0v32.8408c0 21.4307 17.1152 38.5469 38.0342 38.5469h61.8057v42.7881
c0 8.0459 6.14453 14.2627 14.2627 14.2627c8.0459 0 14.2627 -6.14355 14.2627 -14.2627v-42.7881h161.793v42.7881c0 8.0459 6.14355 14.2627 14.2627 14.2627c8.04492 0 14.2627 -6.14355 14.2627 -14.2627v-42.8613h61.8057zM160.841 306.176
c15.7256 0 28.5264 12.7998 28.5264 28.5264c0 10.459 -5.70508 19.9678 -14.2637 24.7217v-24.7217c0 -8.0459 -6.14355 -14.2637 -14.2627 -14.2637c-8.04492 0 -14.2627 6.14453 -14.2627 14.2637v24.7217c-8.55762 -4.75391 -14.2627 -14.2627 -14.2627 -24.7217
c0 -15.6533 12.7998 -28.5264 28.5254 -28.5264zM351.159 306.176c15.6523 0 28.5254 12.7998 28.5254 28.5264c0 10.459 -5.70508 19.9678 -14.2627 24.7217v-24.7217c0 -8.0459 -6.14453 -14.2637 -14.2627 -14.2637c-8.0459 0 -14.2627 6.14453 -14.2627 14.2637v24.7217
c-8.55859 -4.75391 -14.2637 -14.2627 -14.2637 -24.7217c0 -15.6533 12.8008 -28.5264 28.5264 -28.5264z" />
    <glyph glyph-name="uniF1A1" unicode="&#xf1a1;" 
d="M458.24 417.28c29.623 0 53.6865 -24.0645 53.6865 -53.6875c0 -29.6221 -24.1367 -53.7598 -53.7598 -53.7598c-0.511719 0 -0.951172 0.0732422 -1.46289 0.0732422l-83.5293 -154.844c2.55957 -6.2168 3.9502 -13.0195 3.9502 -20.1875
c0 -29.6221 -24.1377 -53.7598 -53.7607 -53.7598c-29.6221 0 -53.7598 24.1377 -53.7598 53.7598c0 5.99805 1.09766 11.8496 2.92578 17.2617l-65.0967 46.8115c-5.9248 -2.26758 -12.2148 -3.51074 -18.8711 -3.51074c-2.41406 0 -4.68164 0.219727 -7.02148 0.512695
l-87.918 -139.557c8.63086 -9.50879 13.8965 -22.0898 13.8965 -35.9131c0 -29.623 -24.1367 -53.7607 -53.7598 -53.7607s-53.7598 24.1377 -53.7598 53.7607c0 29.6221 24.1367 53.7598 53.7598 53.7598c2.85254 0 5.63184 -0.292969 8.33887 -0.731445l87.4053 138.752
c-9.06934 9.6543 -14.7012 22.6006 -14.7012 36.8643c0 29.6221 24.1367 53.7598 53.7598 53.7598s53.7598 -24.1377 53.7598 -53.7598c0 -9.50879 -2.4873 -18.5059 -6.875 -26.2588l59.3916 -42.6426c8.26465 5.2666 18.0664 8.33887 28.5986 8.33887
c8.63086 0 16.8232 -2.12109 24.0645 -5.77832l75.6299 140.142c-11.4111 9.87402 -18.6514 24.3564 -18.6514 40.5938c0 29.623 24.1367 53.7607 53.7598 53.7607zM53.7598 2.55957c9.875 0 17.9199 8.0459 17.9199 17.9209c0 9.87402 -8.04492 17.9199 -17.9199 17.9199
c-9.87402 0 -17.9199 -8.0459 -17.9199 -17.9199c0 -9.875 8.0459 -17.9209 17.9199 -17.9209zM188.562 231.277c9.87402 0 17.9199 8.0459 17.9199 17.9199c0 9.875 -8.0459 17.9209 -17.9199 17.9209s-17.9199 -8.0459 -17.9199 -17.9209
c0 -9.87402 8.0459 -17.9199 17.9199 -17.9199zM323.438 116.882c9.87402 0 17.9199 8.0459 17.9199 17.9209c0 9.87402 -8.0459 17.9199 -17.9199 17.9199s-17.9199 -8.0459 -17.9199 -17.9199c0 -9.875 8.0459 -17.9209 17.9199 -17.9209zM458.24 345.6
c9.87402 0 17.9199 8.0459 17.9199 17.9199c0 9.875 -8.0459 17.9209 -17.9199 17.9209c-9.875 0 -17.9199 -8.0459 -17.9199 -17.9209c0 -9.87402 8.04492 -17.9199 17.9199 -17.9199z" />
    <glyph glyph-name="uniF190" unicode="&#xf190;" 
d="M4.6084 192c0 -138.84 112.552 -251.392 251.392 -251.392s251.392 112.552 251.392 251.392s-112.552 251.392 -251.392 251.392s-251.392 -112.552 -251.392 -251.392zM6.07129 192c0 138.032 111.896 249.929 249.929 249.929s249.929 -111.896 249.929 -249.929
s-111.896 -249.929 -249.929 -249.929s-249.929 111.896 -249.929 249.929zM5.33984 192c0 138.436 112.225 250.66 250.66 250.66s250.66 -112.225 250.66 -250.66s-112.225 -250.66 -250.66 -250.66s-250.66 112.225 -250.66 250.66z" />
    <glyph glyph-name="uniF18E" unicode="&#xf18e;" 
d="M33.0674 196.694l-31.0244 -31.0391l167.285 -167.205l340.631 340.556l-31.0283 31.0352l-309.606 -309.538z" />
    <glyph glyph-name="uniF1A0" unicode="&#xf1a0;" 
d="M25.3076 213.942v-43.8848h461.385v43.8848h-461.385z" />
    <glyph glyph-name="uniF199" unicode="&#xf199;" 
d="M357.734 -57.9414l31.0273 31.0371l-218.973 218.904l218.973 218.904l-31.0273 31.0371l-250.019 -249.941z" />
    <glyph glyph-name="uniF197" unicode="&#xf197;" 
d="M402.983 210.507l1.44336 -11.0205l50.1719 -27.5918l-5.61035 -24.6074c-2.2373 -9.81348 -3.6582 -16.0605 -5.75 -25.2334l-57.2559 -3.00684l-6.09277 -9.33203c-4.99609 -7.65234 -10.7012 -14.7617 -17.1201 -21.4375l-7.70312 -8.01367l9.81641 -56.4961
c-6.97852 -3.36035 -14.8926 -7.17676 -23.0244 -11.0928c-8.35547 -4.02344 -14.7168 -7.0918 -23.0332 -11.0967l-37.9902 42.7891l-10.9561 -0.924805c-4.77051 -0.40332 -9.41504 -0.654297 -13.9521 -0.654297c-4.73633 0 -9.28418 0.196289 -13.6484 0.625977
l-11.1328 1.09668l-38.1172 -42.9326c-6.99805 3.37012 -14.8955 7.17773 -23.0322 11.0967c-8.34961 4.02051 -14.7275 7.09766 -23.0244 11.0928l9.80469 56.4287l-7.61621 8.00098c-6.44824 6.77539 -12.2471 13.9375 -17.1963 21.5176l-6.09277 9.33203
l-57.2559 3.00684l-11.3564 49.8223l50.3125 27.5947l1.44531 11.0361c1.20215 9.17773 3.30176 18.1758 6.12695 26.8438l3.43652 10.542l-33.3135 46.5986c4.8418 6.08008 10.2988 12.9121 15.9385 19.9941c5.78125 7.25879 10.2051 12.7939 15.9258 19.9756
l52.8691 -22.123l9.55371 5.80859c7.91113 4.80957 16.3535 8.875 25.1982 12.1201l10.5029 3.85352l15.1309 53.3916h51.1562l15.1299 -53.3916l10.5029 -3.85352c8.75684 -3.21289 17.2559 -7.35547 25.3066 -12.1855l9.51953 -5.71191l52.7949 22.0918
c4.81543 -6.0459 10.2822 -12.8896 15.9346 -19.9873c5.82617 -7.29492 10.2217 -12.7793 15.9893 -20.002l-33.3535 -46.6553l3.53613 -10.6064c2.8291 -8.48438 4.86523 -17.4258 6.08105 -26.7031zM444.693 227.426c-0.920898 4.76758 -2.08887 9.67188 -2.88379 12.6924
l39.9043 55.8184l-10.3506 12.9609c-8.82227 11.0459 -17.1709 21.4814 -26.3223 32.9395c-9.15137 11.4912 -17.4326 21.8691 -26.249 32.9395l-10.334 12.9756l-63.2783 -26.4795c-4.04199 2.12305 -9.08594 4.51367 -12.2646 5.91406l-18.1963 64.2109h-117.51
l-18.1924 -64.1943c-4.37891 -1.91895 -9.39941 -4.39062 -12.3037 -5.91699l-63.2441 26.4648l-10.333 -12.9746c-8.80273 -11.0527 -17.1123 -21.4658 -26.2588 -32.9512c-9.17383 -11.5176 -17.4355 -21.8721 -26.2588 -32.9512l-10.3184 -12.957l39.915 -55.832
c-1.12207 -4.26074 -2.21582 -9.19238 -2.88867 -12.6348l-60.2197 -33.0273l26.0928 -114.455l68.5615 -3.60059c2.84375 -3.79297 6.04883 -7.71191 8.05859 -10.0645l-11.7617 -67.6895l14.9365 -7.19238c12.7295 -6.12988 24.749 -11.9238 37.9609 -18.2861
c13.249 -6.37988 25.2031 -12.1416 37.9609 -18.2852l14.9287 -7.18945l45.585 51.3438c3.18457 -0.0927734 4.20508 -0.100586 6.49707 -0.100586c2.08691 0 5.16895 0.0742188 6.48145 0.118164l45.6006 -51.3613l14.9287 7.18945
c12.7285 6.12891 24.75 11.9238 37.9609 18.2852c13.248 6.37988 25.2041 12.1426 37.9619 18.2861l14.9365 7.19238l-11.7559 67.6582c2.95605 3.46094 6.10449 7.4668 8.06738 10.0957l68.5459 3.60059l26.0879 114.436zM346.331 190.976
c0 49.9414 -40.4883 90.332 -90.3311 90.332c-49.9404 0 -90.3311 -40.4883 -90.3311 -90.332c0 -49.9404 40.4883 -90.3311 90.3311 -90.3311c49.9404 0 90.3311 40.4883 90.3311 90.3311zM302.445 190.976c0 -25.6396 -20.7568 -46.4453 -46.4453 -46.4453
c-25.6416 0 -46.4453 20.7578 -46.4453 46.4453c0 25.6406 20.7568 46.4463 46.4453 46.4463c25.6406 0 46.4453 -20.7568 46.4453 -46.4463zM346.331 190.976c0 49.9414 -40.4883 90.332 -90.3311 90.332c-49.9404 0 -90.3311 -40.4883 -90.3311 -90.332
c0 -49.9404 40.4883 -90.3311 90.3311 -90.3311c49.9404 0 90.3311 40.4883 90.3311 90.3311zM302.445 190.976c0 -25.6396 -20.7568 -46.4453 -46.4453 -46.4453c-25.6416 0 -46.4453 20.7578 -46.4453 46.4453c0 25.6406 20.7568 46.4463 46.4453 46.4463
c25.6406 0 46.4453 -20.7568 46.4453 -46.4463z" />
    <glyph glyph-name="uniF1AE" unicode="&#xf1ae;" 
d="M425.326 426.35c51.7852 0 93.9883 -42.1299 93.915 -93.9883v-4.75488h-46.0801v4.75488c0 26.4043 -21.5039 47.9082 -47.9082 47.9082c-26.4053 0 -47.9092 -21.5039 -47.9092 -47.9082v-85.8701h11.5566v-0.365234h72.8506v-288.549h-396.142v288.549h265.728
v86.2354c0 51.7852 42.1309 93.9883 93.9893 93.9883zM291.986 85.4307c12.5078 8.92383 20.7725 23.5518 20.7725 40.082c0 27.1367 -22.0156 49.0791 -49.0791 49.0791c-27.1357 0 -49.0781 -22.0156 -49.0781 -49.0791c0 -16.6025 8.19141 -31.2314 20.7725 -40.082
v-42.9346h56.6123v42.9346z" />
    <glyph glyph-name="uniF193" unicode="&#xf193;" 
d="M505.941 293.734l-31.0371 31.0273l-218.904 -218.973l-218.904 218.973l-31.0371 -31.0273l249.941 -250.019z" />
    <glyph glyph-name="uniF1A9" unicode="&#xf1a9;" 
d="M5.47656 -27.4922l31.0312 -31.0312l470.016 470.016l-31.0312 31.0312zM475.492 -58.5234l31.0312 31.0312l-470.016 470.016l-31.0312 -31.0312z" />
    <glyph glyph-name="uniF18F" unicode="&#xf18f;" 
d="M476.307 -64h-440.613v484.498h440.54v-484.498h0.0732422zM72.3379 -27.4287h367.396v411.282h-367.396v-411.282zM145.993 356.352v91.6484h220.014v-91.6484h-220.014zM145.993 270.409v36.5713h220.014v-36.5713h-220.014zM145.993 43.5195v36.5723h220.014v-36.5723
h-220.014zM145.993 194.779v36.5713h220.014v-36.5713h-220.014zM145.993 119.149v36.5713h220.014v-36.5713h-220.014z" />
    <glyph glyph-name="uniF19F" unicode="&#xf19f;" 
d="M459.19 413.55l52.8096 -54.126l-23.04 -21.6504l-52.8096 54.1992zM195.877 163.108l218.843 204.873l52.5166 -53.833l-218.843 -204.873zM148.041 74.6055l1.53613 52.4434l19.3828 18.1396v0l52.5898 -53.9795l-19.0908 -17.8467h-0.584961zM400.237 202.605
l42.8623 40.1553v-272.311h-443.1v443.1h404.48l-45.7881 -42.8613h-315.831v-357.377h357.376v189.294z" />
    <glyph glyph-name="uniF1AB" unicode="&#xf1ab;" 
d="M416.768 403.749l65.7559 -67.4385l-28.7451 -26.8428l-65.6826 67.3643zM89.0146 92.0137l272.384 255.049l65.3896 -67.0713l-272.384 -255.05zM29.4766 -18.2129l1.90137 65.3164l24.0645 22.5283v0l65.5361 -67.1445l-23.7715 -22.2363h-0.731445z" />
    <glyph glyph-name="uniF19E" unicode="&#xf19e;" 
d="M56.9053 192c0 109.961 89.1338 199.095 199.095 199.095s199.095 -89.1338 199.095 -199.095s-89.1338 -199.095 -199.095 -199.095s-199.095 89.1338 -199.095 199.095zM13.0195 192c0 -134.192 108.788 -242.98 242.98 -242.98s242.98 108.788 242.98 242.98
s-108.788 242.98 -242.98 242.98s-242.98 -108.788 -242.98 -242.98z" />
    <glyph glyph-name="uniF1A3" unicode="&#xf1a3;" 
d="M154.266 441.941l-31.0273 -31.0371l218.973 -218.904l-218.973 -218.904l31.0273 -31.0371l250.019 249.941z" />
    <glyph glyph-name="uniF196" unicode="&#xf196;" 
d="M291.621 -14.7012h-70.7949l-0.46875 156.979l-170.46 227.814c3.22363 16.1777 17.2754 28.6084 34.5098 28.6084h343.186c16.9775 0 31.1787 -11.8936 34.5068 -28.5947l-170.479 -227.257v-157.551zM335.507 -58.5869v186.806l171.08 228.059v7.31543
c0 43.583 -35.4102 78.9941 -78.9941 78.9941h-343.186c-43.583 0 -78.9941 -35.4102 -78.9941 -78.9941v-7.30078l171.103 -228.673l0.555664 -186.206h158.436z" />
    <glyph glyph-name="uniF1A2" unicode="&#xf1a2;" 
d="M108.472 -8.70312v401.334h295.057v-401.334h-295.057zM64.5859 -52.5889h382.828v489.105h-382.828v-489.105zM152.649 313.124v-43.8857h206.701v43.8857h-206.701zM152.649 114.762v-43.8857h206.701v43.8857h-206.701zM152.649 213.942v-43.8848h206.701v43.8848
h-206.701z" />
    <glyph glyph-name="uniF198" unicode="&#xf198;" 
d="M499.127 324.315v43.8857h-486.254v-43.8857h486.254zM12.873 59.6846v-43.8857h486.254v43.8857h-486.254zM12.873 213.942v-43.8848h486.254v43.8848h-486.254z" />
    <glyph glyph-name="uniF192" unicode="&#xf192;" 
d="M282.478 207.652c8.92383 -16.749 2.4873 -37.5947 -14.3359 -46.4453c-16.75 -8.92383 -37.5225 -2.4873 -46.4453 14.2627c-8.85059 16.75 -46.0068 152.868 -42.9355 154.478c3.14551 1.60938 94.7939 -105.545 103.717 -122.295zM400.237 193.828h-27.0625
c-5.2666 0 -9.58203 4.31543 -9.58203 9.58203c0 5.33984 4.31543 9.58203 9.58203 9.58203h27.0625c5.2666 0 9.58203 -4.31543 9.58203 -9.58203c0.0732422 -5.2666 -4.24219 -9.58203 -9.58203 -9.58203zM256 448c141.385 0 256 -114.615 256 -256
s-114.615 -256 -256 -256s-256 114.615 -256 256s114.615 256 256 256zM256 382.976c-105.472 0 -190.976 -85.5039 -190.976 -190.976c0 -12.873 1.31641 -25.4541 3.72949 -37.5957h108.105c8.99707 -25.8926 40.96 -45.1289 79.1406 -45.1289
s70.1436 19.1631 79.1406 45.1289h108.105c2.41309 12.1416 3.72949 24.7227 3.72949 37.5957c0 105.472 -85.5039 190.976 -190.976 190.976zM349.696 247.808c-3.29199 0 -6.50977 1.75586 -8.33887 4.82812c-2.63281 4.60742 -1.09668 10.459 3.51074 13.0918
l23.4795 13.5322c4.60742 2.63281 10.459 1.09668 13.0928 -3.51074c2.63281 -4.6084 1.09668 -10.46 -3.51172 -13.0928l-23.4785 -13.5312c-1.46289 -0.87793 -3.14551 -1.31738 -4.75391 -1.31738zM256 295.059c-5.33984 0 -9.58203 4.31543 -9.58203 9.58105v27.0635
c0 5.33887 4.31543 9.58105 9.58203 9.58105s9.58203 -4.31543 9.58203 -9.58105v-27.0635c0 -5.26562 -4.31543 -9.58105 -9.58203 -9.58105zM309.76 281.381c-1.60938 0 -3.29102 0.438477 -4.82715 1.31641c-4.6084 2.63281 -6.14453 8.55762 -3.51074 13.0928
l13.5312 23.4785c2.63281 4.6084 8.55762 6.14355 13.0928 3.51074c4.60742 -2.63281 6.14355 -8.55762 3.51074 -13.0928l-13.5312 -23.4785c-1.68262 -3.14551 -4.90039 -4.82715 -8.26562 -4.82715zM137.436 192.365h-27.0625
c-5.33984 0 -9.58203 4.31543 -9.58203 9.58203c0 5.33984 4.31543 9.58203 9.58203 9.58203h27.0625c5.33887 0 9.58203 -4.31543 9.58203 -9.58203s-4.24316 -9.58203 -9.58203 -9.58203zM160.914 243.419c-1.60938 0 -3.29102 0.439453 -4.82715 1.31738
l-23.4785 13.5312c-4.6084 2.63281 -6.14453 8.55762 -3.51172 13.0928c2.63379 4.60742 8.55859 6.14355 13.0928 3.51074l23.4795 -13.5312c4.60742 -2.63379 6.14355 -8.55859 3.51074 -13.0928c-1.75586 -3.14551 -4.97363 -4.82812 -8.26562 -4.82812z" />
    <glyph glyph-name="uniF194" unicode="&#xf194;" 
d="M385.838 68.3057l-31.0312 31.0312l-98.8066 -98.8057l-98.8066 98.8057l-31.0312 -31.0312l129.838 -129.838zM5.48535 262.071h43.8857v130.486h413.258v-130.486h43.8857v174.372h-501.029v-174.372zM277.942 319.269h-43.8848v-349.77h43.8848v349.77z" />
    <glyph glyph-name="uniF1A7" unicode="&#xf1a7;" 
d="M6.05859 90.2656l31.0371 -31.0273l218.904 218.973l218.904 -218.973l31.0371 31.0273l-249.941 250.019z" />
  </font>
</defs>
</svg>
