<svg xmlns="http://www.w3.org/2000/svg" viewBox="0 0 1072.25 1106.66"><defs><style>.cls-1{fill:#515759;}</style></defs><title>g</title><g id="Layer_4" data-name="Layer 4"><path class="cls-1" d="M359.57,567.86q0,13.92,8.24,22.34t28.59,15.95V535.23q-18.14,3-27.49,11.46A27.5,27.5,0,0,0,359.57,567.86Z"/><path class="cls-1" d="M420,644.08v71.28q39.76-5.48,39.76-33.71,0-13.18-8.15-21.34T420,644.08Z"/><path class="cls-1" d="M811.33,424,645.85,561.89,397.63,313.67,204.57,561.89V810.12H921.65ZM472.26,720.41Q453.57,736.63,420,740.85v42.51H396.4V742.49a241.36,241.36,0,0,1-39.76-3.22q-19.24-3.21-31.52-8.88V701.8a179.78,179.78,0,0,0,35.09,11.1,171.7,171.7,0,0,0,36.19,4.3V636.58q-37.57-11.93-52.68-27.69T328.6,568.22q0-24,18.6-39.39t49.2-18.69V476.79H420v33a186.38,186.38,0,0,1,65.05,13.56l-9.53,24A185.87,185.87,0,0,0,420,534.51V614q28.77,9.17,43.06,17.88t21.07,20c4.52,7.5,6.78,16.65,6.78,27.38Q491,704.2,472.26,720.41Z"/><polygon class="cls-1" points="149.41 865.28 149.41 258.51 113.25 258.51 113.25 903.44 976.81 903.44 976.81 865.28 149.41 865.28"/></g></svg>