<svg xmlns="http://www.w3.org/2000/svg" viewBox="0 0 1072.25 1106.66"><defs><style>.cls-1{fill:#515759;}</style></defs><title>g</title><g id="Layer_4" data-name="Layer 4"><polygon class="cls-1" points="54.29 617.51 338.54 802.55 536.93 637.23 250.36 460.31 54.29 617.51"/><polygon class="cls-1" points="536.93 637.23 735.89 802.55 1019.57 617.51 823.5 460.31 536.93 637.23"/><path class="cls-1" d="M538.09,673.2V672l-.59.57-.57-.57v1.15L338.53,837.95l-85.28-55.69v62.65l283.68,170v.58l.57-.58.59.58v-.58l284.25-170V782.26l-85.28,55.69ZM678.43,900.92,558.94,963.3V878.88l119.48-58.73Z"/><polygon class="cls-1" points="1019.57 303.68 735.89 118.63 536.93 283.95 823.5 460.31 1019.57 303.68"/><polygon class="cls-1" points="338.54 118.63 54.29 303.68 250.36 460.31 536.93 283.95 338.54 118.63"/></g></svg>