<svg xmlns="http://www.w3.org/2000/svg" viewBox="0 0 1072.25 1106.66"><defs><style>.cls-1{fill:#fff;}.cls-2{fill:#bdc5c4;}.cls-3{fill:#515759;}</style></defs><title>g</title><g id="Layer_4" data-name="Layer 4"><path class="cls-1" d="M762.27,408,605.8,351.09a27.78,27.78,0,0,0-19.56,0L429.78,408a28.37,28.37,0,0,0-18.67,26.67V605.35A28.28,28.28,0,0,0,426,630.24l156.47,85.35a27.62,27.62,0,0,0,27.11,0L766,630.24a28.28,28.28,0,0,0,14.89-24.89V434.66A28.37,28.37,0,0,0,762.27,408Z"/><path class="cls-2" d="M755.44,413.17l-150-54.56a26.64,26.64,0,0,0-18.76,0l-150,54.56a27.2,27.2,0,0,0-17.9,25.58V602.43A27.12,27.12,0,0,0,433,626.3l150,81.84a26.49,26.49,0,0,0,26,0l150-81.84a27.12,27.12,0,0,0,14.28-23.87V438.74A27.2,27.2,0,0,0,755.44,413.17ZM598.62,696.72c0,.67-1.17,1.22-2.59,1.22s-2.59-.55-2.59-1.22V519.32c0-.67,1.17-1.22,2.59-1.22s2.59.55,2.59,1.22ZM683.94,639,616,674.42v-48l67.9-33.38Zm68.4-206.81L596,494.58,436.35,436c-.63-.24-.66-1.74-.05-3.34s1.62-2.71,2.25-2.48L596.2,487.81,750,426.39c.63-.25,1.66.84,2.29,2.43S753,431.91,752.34,432.17Z"/><path class="cls-1" d="M999.12,507.49l-156.47-56.9a27.78,27.78,0,0,0-19.56,0l-156.47,56.9A28.37,28.37,0,0,0,648,534.16V704.85a28.28,28.28,0,0,0,14.89,24.89l156.47,85.35a27.62,27.62,0,0,0,27.11,0l156.47-85.35a28.28,28.28,0,0,0,14.89-24.89V534.16A28.37,28.37,0,0,0,999.12,507.49Z"/><path class="cls-2" d="M992.29,512.67l-150-54.56a26.64,26.64,0,0,0-18.76,0l-150,54.56a27.2,27.2,0,0,0-17.9,25.58V701.93a27.12,27.12,0,0,0,14.28,23.87l150,81.84a26.49,26.49,0,0,0,26,0l150-81.84a27.12,27.12,0,0,0,14.28-23.87V538.25A27.2,27.2,0,0,0,992.29,512.67ZM835.47,796.23c0,.67-1.17,1.22-2.59,1.22s-2.59-.55-2.59-1.22V618.83c0-.67,1.17-1.22,2.59-1.22s2.59.55,2.59,1.22Zm85.32-57.75-67.9,35.45V726l67.9-33.38Zm68.4-206.81L832.87,594.08,673.2,535.54c-.63-.24-.66-1.74-.05-3.34s1.62-2.71,2.25-2.48L833,587.32l153.84-61.42c.63-.25,1.66.84,2.29,2.43S989.81,531.42,989.19,531.67Z"/><path class="cls-1" d="M954.78,257.19l-156.47-56.9a27.78,27.78,0,0,0-19.56,0l-156.47,56.9a28.37,28.37,0,0,0-18.67,26.67V454.55a28.28,28.28,0,0,0,14.89,24.89L775,564.78a27.62,27.62,0,0,0,27.11,0l156.47-85.35a28.28,28.28,0,0,0,14.89-24.89V283.86A28.37,28.37,0,0,0,954.78,257.19Z"/><path class="cls-2" d="M947.95,262.37l-150-54.56a26.64,26.64,0,0,0-18.76,0l-150,54.56a27.2,27.2,0,0,0-17.9,25.58V451.63a27.12,27.12,0,0,0,14.28,23.87l150,81.84a26.49,26.49,0,0,0,26,0l150-81.84a27.12,27.12,0,0,0,14.28-23.87V287.95A27.2,27.2,0,0,0,947.95,262.37ZM791.12,545.93c0,.67-1.17,1.22-2.59,1.22s-2.59-.55-2.59-1.22V368.53c0-.67,1.17-1.22,2.59-1.22s2.59.55,2.59,1.22Zm85.32-57.75-67.9,35.45v-48l67.9-33.38Zm68.4-206.81L788.53,343.78,628.86,285.24c-.63-.24-.66-1.74-.05-3.34s1.62-2.71,2.25-2.48L788.7,337l153.84-61.42c.63-.25,1.66.84,2.29,2.43S945.47,281.12,944.84,281.37Z"/><path class="cls-1" d="M713.23,665.26,581.89,560,709.63,456.23,507,326.73,378.55,432.95,250.69,326.4,51.19,456.28l128.68,102.8-132,105.83L250.69,806.42,388.17,691.86,511.08,806.42ZM196.17,561.68,376.83,450.5,560.4,564.32,374.48,679.1h0Z"/><polygon class="cls-3" points="64.21 662.14 250.07 783.13 379.79 675.03 192.41 559.35 64.21 662.14"/><polygon class="cls-3" points="379.79 675.03 509.88 783.13 695.36 662.14 567.16 559.35 379.79 675.03"/><path class="cls-3" d="M380.55,698.55v-.75l-.39.37-.37-.37v.75L250.07,806.27,194.3,769.86v41L379.79,922v.38l.37-.38.39.38V922L566.4,810.83v-41l-55.76,36.41Zm91.76,148.9-78.13,40.79V833l78.13-38.4Z"/><polygon class="cls-3" points="695.36 456.94 509.88 335.94 379.79 444.04 567.16 559.35 695.36 456.94"/><polygon class="cls-3" points="250.07 335.94 64.21 456.94 192.41 559.35 379.79 444.04 250.07 335.94"/><polygon class="cls-1" points="379.79 444.04 192.41 559.35 379.79 675.03 567.16 559.35 379.79 444.04"/><polygon class="cls-1" points="522.41 793.11 379.98 675.31 379.79 675.03 379.72 675.09 379.65 675.03 379.32 675.42 238.69 792 249.97 805.69 380.36 698.25 511.16 806.42 522.41 793.11"/><polygon class="cls-1" points="472.31 847.45 394.18 888.23 394.18 833.04 472.31 794.63 472.31 847.45"/></g></svg>