<svg xmlns="http://www.w3.org/2000/svg" viewBox="0 0 1072.25 1106.66"><defs><style>.cls-1{fill:#bdc5c4;}</style></defs><title>g</title><g id="Layer_4" data-name="Layer 4"><path class="cls-1" d="M951.16,243,558,100.07a69.81,69.81,0,0,0-49.15,0L115.65,243a71.29,71.29,0,0,0-46.91,67V739a71.06,71.06,0,0,0,37.42,62.55L499.34,1016a69.41,69.41,0,0,0,68.14,0L960.66,801.54A71.06,71.06,0,0,0,998.08,739V310.07A71.29,71.29,0,0,0,951.16,243ZM540.2,986.1c0,1.75-3.06,3.18-6.8,3.18s-6.79-1.43-6.79-3.18V521.22c0-1.75,3.06-3.18,6.79-3.18s6.8,1.43,6.8,3.18ZM763.78,834.77,585.86,927.66V802l177.92-87.46ZM943,292.83,533.41,456.38,115,303c-1.66-.63-1.72-4.57-.14-8.76s4.23-7.11,5.89-6.49L533.86,438.65,937,277.69c1.65-.66,4.35,2.21,6,6.38S944.67,292.17,943,292.83Z"/></g></svg>