<svg xmlns="http://www.w3.org/2000/svg" viewBox="0 0 1072.25 1106.66"><defs><style>.cls-1{fill:#bdc5c4;}.cls-2{fill:#484748;}</style></defs><title>g</title><g id="Layer_4" data-name="Layer 4"><path class="cls-1" d="M738.11,102.21v-53H326.93v53H120.81V1035H944.22V102.21ZM875.84,964.53H189.2V172.65H326.93v53H738.11v-53H875.84Z"/><rect class="cls-1" x="388.99" y="320.67" width="349.13" height="70.44"/><rect class="cls-1" x="388.99" y="757.6" width="349.13" height="70.44"/><rect class="cls-1" x="388.99" y="466.31" width="349.13" height="70.44"/><rect class="cls-1" x="388.99" y="611.97" width="349.13" height="70.44"/><path class="cls-2" d="M877.25,393.53c-37.38-23.75-43-.41-43-.41L800.8,442.77l68.47,43.7,33.47-49.65S914.63,417.28,877.25,393.53Z"/><polygon class="cls-2" points="558.93 793.74 626.88 837.09 862.45 495 794.5 451.64 558.93 793.74"/><polygon class="cls-2" points="551.03 808.17 527.74 842.3 527.21 911.51 595.3 885.4 596.21 885.22 619.22 851.53 551.11 808.06 551.03 808.17"/><polygon class="cls-2" points="267.16 370.33 247.09 350.25 236.43 360.91 267.16 391.65 326.93 331.88 316.27 321.22 267.16 370.33"/><polygon class="cls-2" points="267.16 515.42 247.09 495.35 236.43 506.01 267.16 536.74 326.93 476.98 316.27 466.32 267.16 515.42"/><polygon class="cls-2" points="267.16 661.08 247.09 641.01 236.43 651.67 267.16 682.4 326.93 622.63 316.27 611.98 267.16 661.08"/><polygon class="cls-2" points="267.16 806.74 247.09 786.67 236.43 797.32 267.16 828.06 326.93 768.29 316.27 757.63 267.16 806.74"/></g></svg>