<svg xmlns="http://www.w3.org/2000/svg" viewBox="0 0 1072.25 1106.66"><defs><style>.cls-1{fill:#fff;}.cls-2{fill:#bdc5c4;}</style></defs><title>g</title><g id="Layer_4" data-name="Layer 4"><rect class="cls-1" x="160.34" y="332.06" width="751.5" height="456.27" transform="translate(-167 233.27) rotate(-21.32)"/><path class="cls-2" d="M470,390.81c-82,32-89.33,140.22-61.58,211.32S514.8,747.88,596.84,715.85s89.33-140.22,61.58-211.32S552,358.79,470,390.81Zm133,204.9q-6.56,15.78-26.93,27.45l8.56,20.32-21.79,9.18L554.49,633a135.75,135.75,0,0,1-48.78,8.39l-14.72-35a164.53,164.53,0,0,0,30.9-.8q16.07-1.87,26.91-6.44,8.95-3.77,12.2-7.68t1.12-9a8,8,0,0,0-5.48-4.63q-4-1.16-12.31-1.26t-22,.59q-15.45.68-26.26-2a42,42,0,0,1-17.76-8.76q-7-6.06-11.74-17.43-7.32-17.37-.28-31.86t28.38-26.21l-6.07-14.42,21.79-9.18,6,14.21a134.15,134.15,0,0,1,46.56-7.46l.11,35.28q-26.17-.63-43.86,6.82-8.43,3.55-11,7a7.19,7.19,0,0,0-.87,7.49,8.07,8.07,0,0,0,4.89,4.7q3.42,1.22,10.71,1.44t19.68-.66q25.29-1.48,39.06,4.44T602,562.25Q609.49,579.93,602.94,595.71Z"/><path class="cls-2" d="M996.27,632l-175.66-450a27,27,0,0,0-34.76-15.24L85.79,439.93a27,27,0,0,0-15.24,34.76l175.66,450A27,27,0,0,0,281,940L981,666.73A27,27,0,0,0,996.27,632ZM836.5,665.52l-450,175.66a107.57,107.57,0,0,0-139-61l-78.07-200a107.57,107.57,0,0,0,61-139l450-175.66a107.56,107.56,0,0,0,139,61l78.07,200A107.56,107.56,0,0,0,836.5,665.52Z"/></g></svg>