<svg xmlns="http://www.w3.org/2000/svg" viewBox="0 0 1072.25 1106.66"><defs><style>.cls-1{fill:#bdc5c4;}.cls-2{fill:#525759;}.cls-3{fill:#5d6060;}</style></defs><title>g</title><g id="Layer_4" data-name="Layer 4"><path class="cls-1" d="M1019.34,557,946.65,321.38c-8.08-26.92-32.31-74-91.54-74h-140c-59.23,0-82.12,47.12-90.19,74L552.23,557c-14.81,51.15,51.15,70,66,22.88l64.62-216.73h17.5l-110.38,385H693.57V1048.3c0,52.5,78.08,52.5,78.08,0V746.76h29.62v302.88c0,51.15,78.08,51.15,78.08,0V748.11H981.65L883.38,410.22,871,366.12l14.77-2,65,215.74C968.19,629.65,1032.81,608.11,1019.34,557Z"/><path class="cls-1" d="M786.46,228.49c45.77,0,83.46-37.69,83.46-83.46s-37.69-83.46-83.46-83.46a83.46,83.46,0,0,0,0,166.92Z"/><path class="cls-1" d="M235.31,229.84c45.77,0,83.46-37.69,83.46-83.46s-37.69-83.46-83.46-83.46-83.46,37.69-83.46,83.46S189.54,229.84,235.31,229.84Z"/><path class="cls-1" d="M332.23,247.34H145.12c-59.23,0-96.92,48.46-96.92,109V612.15c0,49.81,66,49.81,66,0v-249h20.19l1.35,675.77A46.82,46.82,0,0,0,182.81,1086c26.92,0,47.12-20.19,47.12-47.12V645.8h20.19v391.73c0,25.58,21.54,47.12,47.12,47.12a46.82,46.82,0,0,0,47.12-47.12V357.39h17.5V610.8c0,49.81,64.62,49.81,64.62,0V357.72C430.5,302.53,398.19,247.34,332.23,247.34Z"/><path class="cls-2" d="M123.66,102.78c11.08-1.63,24.19-3.63,37.09-5.81-4.44,13.38-10.4,34-5.56,35.25,7.2,1.9,37.24-12.1,70-.13,7,.21,29.71-39.73,60-50.91,3.48-1.73-13.33-13.95-29.15-22.28,23.83-17.76,46.49-37.32,46.49-37.32L190.08,41.71l-95,65.08s10.29-1.35,24.93-3.47"/><path class="cls-3" d="M122.63,101.94l0,28.41h-1.81a1.28,1.28,0,0,0-1.28,1.17l-6.28,68.4a1.28,1.28,0,0,0,1.28,1.4l22.87,0a1.28,1.28,0,0,0,1.27-1.45l-9-68.39a1.28,1.28,0,0,0-1.27-1.12h-1.09l-1.08-27.58"/><path class="cls-2" d="M675,102.78c11.08-1.63,24.19-3.63,37.09-5.81-4.44,13.38-10.4,34-5.56,35.25,7.2,1.9,37.24-12.1,70-.13,7,.21,29.71-39.73,60-50.91,3.48-1.73-13.33-13.95-29.15-22.28,23.83-17.76,46.49-37.32,46.49-37.32L741.43,41.71l-95,65.08s10.29-1.35,24.93-3.47"/><path class="cls-3" d="M674,101.94l0,28.41h-1.81a1.28,1.28,0,0,0-1.28,1.17l-6.28,68.4a1.28,1.28,0,0,0,1.28,1.4l22.87,0a1.28,1.28,0,0,0,1.27-1.45l-9-68.39a1.28,1.28,0,0,0-1.27-1.12h-1.09l-1.08-27.58"/></g></svg>