<svg id="Layer_4" data-name="Layer 4" xmlns="http://www.w3.org/2000/svg" viewBox="0 0 1072.25 1106.66"><defs><style>.cls-1{fill:#525759;}.cls-2{fill:#5d6060;}</style></defs><title>g</title><path class="cls-1" d="M238.08,485.2c45.42-6.66,99.14-14.9,152-23.82-18.19,54.83-42.65,139.26-22.81,144.5,29.52,7.81,152.65-49.61,286.85-.55,28.79,0.87,121.78-162.87,246.09-208.71,14.25-7.08-54.62-57.18-119.49-91.35,97.7-72.79,190.56-153,190.56-153l-461,82.58L120.88,501.62s42.18-5.52,102.21-14.23"/><path class="cls-2" d="M233.87,481.73L234,598.19h-7.44a5.27,5.27,0,0,0-5.24,4.78L195.53,883.38a5.27,5.27,0,0,0,5.25,5.75l93.75-.07a5.27,5.27,0,0,0,5.22-6l-37-280.36a5.27,5.27,0,0,0-5.22-4.58H253L248.63,485.1"/></svg>