<svg xmlns="http://www.w3.org/2000/svg" viewBox="0 0 1072.25 1106.66"><defs><style>.cls-1{fill:#515759;}.cls-2{fill:#b1b9b7;}</style></defs><title>g</title><g id="Layer_4" data-name="Layer 4"><path class="cls-1" d="M664.24,285.22a139,139,0,1,0,139,139A139,139,0,0,0,664.24,285.22Zm41.38,185q-9.35,9.78-27.73,12.59l.52,17.45-18.72.55-.5-16.91a107.52,107.52,0,0,1-38.43-7.74l-.89-30a130.29,130.29,0,0,0,23.05,8.23,78.88,78.88,0,0,0,21.72,2.93q7.69-.23,11.21-2.19a6.44,6.44,0,0,0,3.39-6.3,6.3,6.3,0,0,0-2.73-5,39.93,39.93,0,0,0-8.73-4.45q-6.09-2.44-16.42-5.85a73.52,73.52,0,0,1-18.82-9A33.29,33.29,0,0,1,621.92,413q-3.4-6.46-3.69-16.23-.44-14.92,8.9-23.62t28.45-11.25l-.37-12.39,18.72-.55.36,12.21a106.24,106.24,0,0,1,36.53,7.79l-10,26.09q-19.16-7.94-34.35-7.49-7.24.21-10.12,2.06a5.7,5.7,0,0,0-2.78,5.29,6.39,6.39,0,0,0,2.27,4.87,29.83,29.83,0,0,0,7.5,4.12q5.32,2.24,14.73,5.13,19.1,6.13,27.58,14.44t8.88,21.78Q715,460.41,705.61,470.19Z"/><path class="cls-2" d="M1009.75,548.1c-8.57,9.32-18.78,17.37-28.12,25.86-11.26,10.24-22.82,20.14-34.5,29.89-21.7,18.12-43.85,35.68-65.64,53.69-4.29-10.93-13.54-20.26-23.17-26.65-14.62-9.71-32.27-14.7-50-17.29,10.94-14.23,29.35-20.11,45.21-27.13,18.49-8.17,33.26-21,49.09-33.32,15.6-12.11,32.55-23.06,52.76-24.53C974.23,527.24,997.44,532.67,1009.75,548.1Z"/><path class="cls-2" d="M986.27,509.77c-1.49,4.64-4.87,8.89-7.63,12.82a113.89,113.89,0,0,0-16-2c-22.33-1.28-42.29,9.41-59.68,22.29s-33.05,27.66-53.12,36.53c-18.64,8.23-38.61,15.13-50.38,32.9a1.27,1.27,0,0,0-.09.15c-5.84-.61-11.63-1-17.27-1.25q-2.89-.13-5.78-.2c13.18-14.33,29.71-25,46.22-35.26,18.22-11.33,35.63-23,52.35-36.51s33.88-27.64,54.29-35.19C947.23,497.39,971.66,495.19,986.27,509.77Z"/><path class="cls-2" d="M919.51,499.27c-15.63,7-29.68,17.91-42.84,28.4-8.71,6.94-17.28,14-26.3,20.6-9.45,6.88-19.49,13-29.43,19.1-19.92,12.31-40.18,25.15-55,43.57-14.63.11-29.26,1.09-43.87,2.18,13-13,28.2-23.5,43.05-34.25,17.06-12.32,32.23-26.1,47.57-40.45,14.94-14,30.81-27.47,50.1-35A100.44,100.44,0,0,1,919.51,499.27Z"/><path class="cls-2" d="M674.69,701.79a11.72,11.72,0,0,1-2.33-.4q-7.83-.72-15.71-1.19l-13.11-.63c-.21-.13-1.89.16-2.06,0-7.09-.16-14.18-.12-21.26.16l-7.5.41c-6.54.44-13.07,1.09-19.55,2a277.14,277.14,0,0,0-84,26.28c-4.59,2.27-8.64-4.6-4-6.88,29.6-14.59,60.87-24.46,93.74-28.09,25-2.77,50.28-2.25,75.32.1a14,14,0,0,1,1.41.13c3.7.36,7.37.76,11.06,1.19,24.59,2.88,49,7.5,73.62,9.69,24.85,2.2,51.06,2.77,75-5.51,18.61-6.45,45.93-15.34,39.91-39.15-5.81-23-31.24-27.81-52-33.7-27.72-7.85-56.76-8.29-85.37-7.53-28.41.78-56.89-4.42-85.32-5.15-26.77-.69-54-11.26-77.51-24.82a4.07,4.07,0,0,1-.88-.46l-.39-.27a.41.41,0,0,1-.11-.07,2.21,2.21,0,0,1-.26-.18C534.59,561.06,492.85,526.5,443.64,525c-25.92-.81-51,6.21-76.14,11.34-12.35,2.52-25.1,5.06-37.74,5.32s-25.12,0-37.69,0c-29.3-.17-58.39,1.41-86,12a347.09,347.09,0,0,0-74.74,39.55c-23.19,16.28-43,35.9-63.4,55.38q-2,1.87-3.93,3.73l107.09,160a181.42,181.42,0,0,1,20-12.76,160.76,160.76,0,0,1,80.7-19.72c29,.41,58.1,5.58,86.31,12,31.56,7.21,62.74,15.92,94,24.17,31.12,8.19,62.46,16.12,94.2,21.46,30.74,5.16,63.63,8.21,94.36,1.29a4.53,4.53,0,0,1,.88-.11c29.14-17.44,53.33-41.44,77.31-65.21,12-11.86,23.91-23.76,36.55-34.88,9.72-8.55,19.79-17.51,30.9-24.48-30.66,0-61.61-6.26-92-10.25Z"/><path class="cls-2" d="M724.27,597.27l.67,0v-.58Z"/></g></svg>