<svg xmlns="http://www.w3.org/2000/svg" viewBox="0 0 1072.25 1106.66"><defs><style>.cls-1{fill:#fff;}.cls-2{fill:#515759;}.cls-3{fill:#b1b9b7;}</style></defs><title>g</title><g id="Layer_4" data-name="Layer 4"><circle class="cls-1" cx="801.21" cy="83.5" r="12"/><path class="cls-2" d="M779.66,301.22H546.09c-4.58,0-8.3,4.22-8.3,9.41s3.72,9.41,8.3,9.41h8.22l2.7,36.54H768.73l2.7-36.54h8.22c4.58,0,8.3-4.22,8.3-9.41S784.24,301.22,779.66,301.22Z"/><path class="cls-2" d="M568.69,514.18H757.06l10.27-138.77H558.41Z"/><path class="cls-2" d="M594.87,558.54h136c12.74,0,23.56-11.19,24.78-25.53H570.09C571.31,547.35,582.13,558.54,594.87,558.54Z"/><path class="cls-3" d="M1009.75,544.39c-8.57,9.32-18.78,17.37-28.12,25.86-11.26,10.24-22.82,20.14-34.5,29.89-21.7,18.12-43.85,35.68-65.64,53.69-4.29-10.93-13.54-20.26-23.17-26.65-14.62-9.71-32.27-14.7-50-17.29,10.94-14.23,29.35-20.11,45.21-27.13,18.49-8.17,33.26-21,49.09-33.32,15.6-12.11,32.55-23.06,52.76-24.53C974.23,523.54,997.44,529,1009.75,544.39Z"/><path class="cls-3" d="M986.27,506.06c-1.49,4.64-4.87,8.89-7.63,12.82a113.89,113.89,0,0,0-16-2c-22.33-1.28-42.29,9.41-59.68,22.29s-33.05,27.66-53.12,36.53c-18.64,8.23-38.61,15.13-50.38,32.9a1.27,1.27,0,0,0-.09.15c-5.84-.61-11.63-1-17.27-1.25q-2.89-.13-5.78-.2c13.18-14.33,29.71-25,46.22-35.26,18.22-11.33,35.63-23,52.35-36.51s33.88-27.64,54.29-35.19C947.23,493.68,971.66,491.48,986.27,506.06Z"/><path class="cls-3" d="M919.51,495.56c-15.63,7-29.68,17.91-42.84,28.4-8.71,6.94-17.28,14-26.3,20.6-9.45,6.88-19.49,13-29.43,19.1-19.92,12.31-40.18,25.15-55,43.57-14.63.11-29.26,1.09-43.87,2.18,13-13,28.2-23.5,43.05-34.25,17.06-12.32,32.23-26.1,47.57-40.45,14.94-14,30.81-27.47,50.1-35A100.44,100.44,0,0,1,919.51,495.56Z"/><path class="cls-3" d="M674.69,698.08a11.72,11.72,0,0,1-2.33-.4q-7.83-.72-15.71-1.19l-13.11-.63c-.21-.13-1.89.16-2.06,0-7.09-.16-14.18-.12-21.26.16l-7.5.41c-6.54.44-13.07,1.09-19.55,2a277.14,277.14,0,0,0-84,26.28c-4.59,2.27-8.64-4.6-4-6.88,29.6-14.59,60.87-24.46,93.74-28.09,25-2.77,50.28-2.25,75.32.1a14,14,0,0,1,1.41.13c3.7.36,7.37.76,11.06,1.19,24.59,2.88,49,7.5,73.62,9.69,24.85,2.2,51.06,2.77,75-5.51,18.61-6.45,45.93-15.34,39.91-39.15-5.81-23-31.24-27.81-52-33.7-27.72-7.85-56.76-8.29-85.37-7.53-28.41.78-56.89-4.42-85.32-5.15-26.77-.69-54-11.26-77.51-24.82a4.07,4.07,0,0,1-.88-.46l-.39-.27a.41.41,0,0,1-.11-.07,2.21,2.21,0,0,1-.26-.18c-38.72-26.68-80.46-61.24-129.67-62.77-25.92-.81-51,6.21-76.14,11.34-12.35,2.52-25.1,5.06-37.74,5.32s-25.12,0-37.69,0c-29.3-.17-58.39,1.41-86,12a347.09,347.09,0,0,0-74.74,39.55c-23.19,16.28-43,35.9-63.4,55.38q-2,1.87-3.93,3.73l107.09,160a181.42,181.42,0,0,1,20-12.76,160.76,160.76,0,0,1,80.7-19.72c29,.41,58.1,5.58,86.31,12,31.56,7.21,62.74,15.92,94,24.17,31.12,8.19,62.46,16.12,94.2,21.46C577,838.91,609.89,842,640.62,835a4.53,4.53,0,0,1,.88-.11c29.14-17.44,53.33-41.44,77.31-65.21,12-11.86,23.91-23.76,36.55-34.88,9.72-8.55,19.79-17.51,30.9-24.48-30.66,0-61.61-6.26-92-10.25Z"/><path class="cls-3" d="M724.27,593.56l.67,0V593Z"/></g></svg>