<svg xmlns="http://www.w3.org/2000/svg" viewBox="0 0 1072.25 1106.66"><defs><style>.cls-1{fill:#393c3d;}.cls-1,.cls-2,.cls-5,.cls-6{fill-rule:evenodd;}.cls-2,.cls-4{fill:#52585a;}.cls-3{fill:none;stroke:#d2d3d4;stroke-miterlimit:2.61;stroke-width:0.22px;}.cls-5{fill:#fff;}.cls-6{fill:#d2d3d4;}</style></defs><title>g</title><g id="Layer_4" data-name="Layer 4"><path class="cls-1" d="M603,375.85,809,412,780.92,572.3l-206-36.15L603,375.85Zm24,16.93-7.2-1.26-1-6.53-3.13,5.8-7.2-1.26,4.94,5.12-3.32,6.82,6.46-3.63,4.94,5.1-.89-7,6.38-3.13ZM774,554.66l-6.69-1.17-1.49-6.61-3.14,5.8L756,551.5l4.93,5.11-3.84,6.74,6.47-3.63,4.84,5.62-.8-7.55,6.38-3.12Zm-33.91-6-7.2-1.26-1-6.52-3.14,5.8-7.19-1.26,4.93,5.11-3.32,6.83,6.47-3.63,4.84,5.62-.8-7.55,6.38-3.12Zm-34.43-6-6.68-1.17L698,535l-3.14,5.8-7.19-1.26,4.93,5.11-3.84,6.74,7-3.54,4.84,5.62-.8-7.55,5.87-3.21Zm-33.91-6L665,535.54l-1-6.52-3.65,5.71-6.68-1.17,4.93,5.11-3.84,6.74,7-3.54,4.84,5.62-1.31-7.64,6.37-3.12Zm-33.91-6-6.68-1.17L629.63,523l-3.13,5.8-6.68-1.17,4.93,5.11-3.84,6.74,6.47-3.63,4.84,5.62-.79-7.55,6.37-3.12Zm-33.9-5.95-7.2-1.26-1-6.53-3.13,5.8-7.2-1.26,4.94,5.11L587,533.5l6.46-3.64,4.85,5.62-.8-7.55,6.38-3.12Zm155,10.25-6.68-1.17-1-6.52-3.13,5.8-7.2-1.26L745.8,537,742,543.75l7-3.54,4.93,5.09-1.4-7.12,6.38-3.12Zm-33.91-6-6.68-1.17-1.49-6.61-3.13,5.8L707,526l4.94,5.11-3.83,6.74,6.46-3.63,4.93,5.09-.89-7,6.38-3.12Zm-33.91-6-7.2-1.26-1-6.52-3.14,5.8-7.19-1.26,4.93,5.11-3.32,6.83,6.47-3.63,4.92,5.09-.88-7,6.38-3.13Zm-33.91-6-7.19-1.26-1-6.52-3.13,5.8-7.2-1.26,4.93,5.11-3.32,6.83,6.47-3.63,4.93,5.09-.89-7,6.38-3.12Zm-34.42-6L616,510l-1-6.52-3.14,5.8-7.2-1.26,4.93,5.11-3.84,6.74,7-3.54,4.93,5.09-1.4-7.12,6.38-3.13Zm141.92-9L757.95,501l-1-6.52-3.13,5.8-7.2-1.26,4.93,5.11-3.74,6.22,6.88-3,4.93,5.09-1.4-7.12,6.38-3.12Zm-33.91-6L724,495.06l-1.49-6.61-3.13,5.8-6.69-1.17,4.94,5.11-3.74,6.22,6.37-3.11,4.93,5.09-.89-7,6.38-3.12Zm-33.91-6-7.2-1.26-1-6.52-3.14,5.8L678.31,487l4.93,5.11L680,498.45l6.38-3.11,4.92,5.09-.88-7,6.38-3.13Zm-33.91-6-7.19-1.26-1-6.52-3.13,5.8-7.2-1.26,4.93,5.11-3.23,6.31,6.38-3.11,4.93,5.09-.89-7,6.38-3.12Zm-34.42-6-6.68-1.17-1-6.52-3.14,5.8-7.2-1.26,4.93,5.11-3.74,6.22,6.9-3,4.93,5.09-1.4-7.12,6.38-3.13Zm141.92-9-6.68-1.17-.89-7-3.23,6.32-7.2-1.26,4.93,5.1-3.74,6.23,6.88-3,4.93,5.1-1.4-7.14,6.38-3.11Zm-33.91-6-6.68-1.17-1.4-7.13-3.23,6.32-6.69-1.17,4.94,5.1-3.74,6.23,6.37-3.12,4.93,5.1-.89-7,6.38-3.11Zm-33.91-6-7.2-1.26-.87-7-3.23,6.32-7.19-1.26,4.93,5.1-3.23,6.32,6.38-3.11,4.92,5.1-.88-7,6.37-3.11Zm-33.91-6-7.19-1.26-.89-7-3.23,6.32-7.2-1.26,4.93,5.1-3.23,6.32,6.38-3.11,4.93,5.1-.89-7,6.38-3.11Zm-34.42-6-6.68-1.17-.88-7-3.23,6.32-7.2-1.26,4.93,5.1-3.75,6.23,6.9-3,4.93,5.1-1.4-7.14,6.37-3.11Zm142-9.51-6.68-1.17-1-6.52-3.13,5.8-7.2-1.26,4.93,5.11-3.83,6.74,7-3.54,4.84,5.62L769.87,439l6.38-3.13Zm-33.91-6-6.68-1.17-1.49-6.61L731,428l-6.69-1.17,4.94,5.11-3.83,6.74,6.46-3.63,4.84,5.62-.8-7.55,6.38-3.13Zm-33.91-6-7.2-1.26-1-6.52-3.14,5.8-7.19-1.26,4.93,5.11-3.32,6.83,6.47-3.63,4.83,5.61-.79-7.55,6.38-3.13Zm-33.91-6-7.19-1.26-1-6.52-3.13,5.8L656,414.8l4.92,5.11-3.32,6.83,6.47-3.63,4.84,5.62-.8-7.55,6.38-3.13Zm-34.42-6-6.68-1.17-1-6.52-3.14,5.8-7.2-1.26,4.93,5.11-3.84,6.74,7-3.54,4.84,5.62-1.31-7.64,6.38-3.13ZM779.73,521.78,773,520.61,771.55,514l-3.14,5.8-6.67-1.17,4.93,5.11-3.75,6.22,6.37-3.11,4.93,5.1-.89-7,6.38-3.12Zm-33.91-6-7.2-1.26-1-6.52-3.14,5.8-7.19-1.26,4.93,5.11L729,524l6.37-3.11,4.93,5.1-.89-7,6.38-3.12Zm-34.43-6-6.68-1.17-1-6.52-3.14,5.8-7.19-1.26,4.93,5.11L694.6,518l6.89-3,4.93,5.1-.89-7,5.87-3.21Zm-33.91-6-6.68-1.17-1-6.52-3.65,5.71-6.68-1.17,4.93,5.11L660.68,512l6.89-3,4.93,5.1-1.4-7.12,6.37-3.12Zm-33.91-6-6.68-1.17-1.49-6.61-3.13,5.8-6.68-1.17,4.93,5.11-3.75,6.22,6.37-3.11,4.93,5.1-.88-7,6.37-3.12Zm-33.9-5.95-7.2-1.26-1-6.53-3.13,5.8-7.2-1.26,4.94,5.11-3.23,6.31,6.37-3.11,4.94,5.1-.89-7,6.38-3.12Zm175.83-3-6.69-1.17-1.4-7.13-3.23,6.32-6.67-1.17,4.93,5.11-3.75,6.22,6.37-3.11,4.93,5.1-.89-7,6.38-3.13Zm-33.91-6-7.2-1.26-.88-7L740.28,481l-7.19-1.26,4.93,5.11-3.23,6.31,6.37-3.11,4.93,5.1-.89-7,6.38-3.13Zm-34.43-6-6.68-1.17-.88-7L706.37,475l-7.19-1.26,4.93,5.11-3.75,6.22,6.89-3,4.93,5.1-.89-7,5.87-3.22Zm-33.91-6-6.68-1.17-.88-7L671.95,469l-6.68-1.17,4.93,5.11-3.75,6.22,6.89-3,4.93,5.1-1.4-7.12,6.37-3.13Zm-33.91-6-6.68-1.17-1.4-7.13L638,463l-6.68-1.17,4.93,5.11-3.75,6.22,6.37-3.11,4.93,5.1-.88-7,6.37-3.13Zm-33.9-5.95-7.2-1.26-.89-7-3.22,6.32-7.2-1.26,4.94,5.11-3.23,6.31,6.37-3.11,4.94,5.1-.89-7,6.38-3.13Zm175.83-3-6.69-1.17-1.4-7.13L780,454l-6.67-1.17,4.93,5.1-3.75,6.23,6.37-3.12,4.93,5.1-.89-7,6.38-3.12Zm-33.91-6-7.2-1.26-.88-7L746,448.08l-7.19-1.26,4.93,5.1-3.23,6.32,6.37-3.12,4.93,5.1-.89-7,6.38-3.12Zm-34.43-6-6.68-1.17-.88-7-3.23,6.32-7.19-1.26,4.93,5.1-3.75,6.23,6.89-3,4.93,5.1-.89-7,5.86-3.21Zm-33.91-6-6.68-1.17-.88-7-3.74,6.23L671,434.92,676,440l-3.75,6.23,6.89-3,4.93,5.1-1.4-7.13,6.37-3.12Zm-33.91-6L648.43,431l-1.4-7.13-3.23,6.32L637.13,429l4.93,5.1-3.75,6.23,6.37-3.12,4.93,5.1-.88-7,6.37-3.12Zm-33.9-5.95-7.2-1.26-.89-7-3.23,6.32-7.2-1.26,4.94,5.1-3.23,6.32,6.37-3.12,4.94,5.1-.89-7,6.38-3.12Zm175.92-3.56-6.69-1.17L789,414.83l-3.14,5.8-6.67-1.17,4.93,5.12-3.84,6.73,6.46-3.63,4.93,5.1-.89-7,6.38-3.13Zm-33.91-6L756,415.4l-1-6.52-3.14,5.8-7.19-1.26,4.93,5.12-3.32,6.82,6.46-3.63,4.93,5.1-.89-7,6.38-3.13Zm-34.43-6-6.68-1.17-1-6.52-3.14,5.8-7.19-1.26,4.93,5.12-3.84,6.73,7-3.54,4.93,5.1-.89-7,5.87-3.22Zm-33.91-6-6.68-1.17-1-6.52-3.65,5.71-6.68-1.17,4.93,5.12L678,413.37l7-3.54,4.93,5.1-1.4-7.11,6.37-3.13Zm-33.91-6-6.68-1.17-1.49-6.61-3.13,5.8L643,395.57l4.93,5.12-3.84,6.73,6.46-3.63,4.93,5.1-.88-7Z"/><path class="cls-2" d="M809,412l247.54,43.44-4.06,23.11L805,435.12,809,412Zm239.52,89.17-4.06,23.12L797,480.85,801,457.73l247.54,43.44Zm-8,45.72L1036.48,570,788.94,526.58,793,503.46l247.54,43.44Zm-8,45.72-4.06,23.12L780.92,572.3,785,549.18l247.54,43.44Zm-8,45.72-4.06,23.12L566.87,581.87l4.06-23.12,453.56,79.59Zm-8,45.73-4.06,23.12L558.85,627.6l4.06-23.12,453.56,79.59Zm-8,45.73-4.06,23.11L550.82,673.32l4.06-23.11Z"/><rect class="cls-3" x="652.01" y="334.71" width="303.19" height="460.49" transform="translate(108.25 1258.82) rotate(-80.05)"/><rect class="cls-4" x="385.3" y="376.59" width="114.61" height="303.37" transform="translate(-87.47 87.83) rotate(-10.32)"/><rect class="cls-4" x="44.75" y="438.6" width="114.61" height="303.37" transform="translate(-104.09 27.83) rotate(-10.32)"/><polygon class="cls-5" points="185.6 729.25 175.6 674.36 141.25 485.68 131.25 430.79 359.06 389.31 369.05 444.2 403.4 632.88 413.4 687.77 185.6 729.25"/><path class="cls-2" d="M295.72,663.3c-4.5-18.33-7.19-30.22-9.71-41.71-1.14-4.91,3.29-5.23,6.58-5.3C320,615.56,333,615.2,333,615.2c-18.61-23.63,13.87-42.62,29-61.08-14.72-2.16-12.51-.79-9.64-35.69-27.27,14.46-25.38,11.35-34.14-1.9,0,0-1.79,3-16.17,26.72-2.05,3.39-6.74,2.22-6.64-2.4.94-48.37,1.06-50.36,1.06-50.36-16.35,14.44-15.55,14.94-19.51,9.75-13.66-17.8-20.2-26.61-20.2-26.61s-3,10.55-9.52,32c-1.87,6.26-1.3,5.5-21.69-2.24,0,0,.81,1.81,18.74,46.75,1.72,4.29-2.25,7-5.37,4.58-21.83-17.15-24.54-19.31-24.54-19.31-3.54,15.49-.66,17.73-31.29,13.81,15,31.65,16.56,29.59,3.55,36.8,20.66,12,57.74,18.28,48.66,46.95,0,0,12.24-4.22,38.18-13.22,3.1-1.09,7.37-2.35,8,2.65,1.69,11.65,3.36,23.72,5.61,42.46Z"/><rect class="cls-3" x="41.95" y="407.59" width="460.76" height="303.37" transform="translate(-95.78 57.83) rotate(-10.32)"/><path class="cls-6" d="M551.06,743.48l-8.58,1.6a2.84,2.84,0,0,1-3.31-2.26l-70.88-384.1a2.84,2.84,0,0,1,2.26-3.31l8.58-1.6a2.84,2.84,0,0,1,3.31,2.26l70.88,384.1A2.84,2.84,0,0,1,551.06,743.48Z"/><path class="cls-6" d="M529,744.62l8.6,1.45a2.84,2.84,0,0,0,3.26-2.32l63.61-376.69a2.84,2.84,0,0,0-2.32-3.26l-8.6-1.45a2.84,2.84,0,0,0-3.26,2.32L526.68,741.36A2.84,2.84,0,0,0,529,744.62Z"/></g></svg>