<svg xmlns="http://www.w3.org/2000/svg" viewBox="0 0 1072.25 1106.66"><defs><style>.cls-1{fill:#fff;}.cls-2{fill:#515759;}.cls-3{fill:#bdc5c4;}</style></defs><title>g</title><g id="Layer_4" data-name="Layer 4"><rect class="cls-1" x="205.6" y="182.92" width="631.78" height="383.58"/><path class="cls-2" d="M859.94,571.58a22.73,22.73,0,0,1-22.56,22.56H205.6A22.73,22.73,0,0,1,183,571.58V165.44a22.73,22.73,0,0,1,22.56-22.56H837.37a22.73,22.73,0,0,1,22.56,22.56ZM814.81,278.26A90.42,90.42,0,0,1,724.56,188H318.41a90.43,90.43,0,0,1-90.25,90.25V458.76A90.43,90.43,0,0,1,318.41,549H724.56a90.42,90.42,0,0,1,90.25-90.25ZM521.49,515.18c-74,0-112.82-82.51-112.82-146.67s38.77-146.67,112.82-146.67S634.3,304.35,634.3,368.51,595.52,515.18,521.49,515.18Z"/><path class="cls-1" d="M513.65,437.33A114.13,114.13,0,0,1,472.88,429L472,397.12a138.31,138.31,0,0,0,24.44,8.82q13.16,3.45,23,3.18,8.16-.22,11.9-2.28a6.83,6.83,0,0,0,3.62-6.68,6.69,6.69,0,0,0-2.88-5.3,42.38,42.38,0,0,0-9.25-4.75q-6.46-2.61-17.41-6.26-12.31-4.19-19.95-9.61a35.33,35.33,0,0,1-11.23-12.29q-3.59-6.87-3.87-17.24-.42-15.84,9.52-25t30.24-11.85l-.35-13.15,19.87-.53.34,13a112.77,112.77,0,0,1,38.75,8.39l-10.7,27.66q-20.31-8.49-36.43-8.07-7.68.2-10.75,2.16a6,6,0,0,0-3,5.6,6.78,6.78,0,0,0,2.4,5.17,31.67,31.67,0,0,0,7.95,4.4q5.63,2.4,15.61,5.5,20.25,6.57,29.23,15.41t9.35,23.15Q572.94,412.6,563,423t-29.48,13.27l.49,18.53-19.87.53Z"/><rect class="cls-1" x="316.2" y="358.14" width="631.78" height="383.58" transform="translate(250.95 -196.19) rotate(21.92)"/><path class="cls-3" d="M689.15,408.11c-68.69-27.64-135.46,34.43-159.41,94S511,652.61,579.65,680.25s135.46-34.43,159.41-94S757.83,435.74,689.15,408.11ZM677.86,534.33q-15.67-15.46-30.79-21.08-7.2-2.68-10.78-2a6,6,0,0,0-4.85,4.09,6.78,6.78,0,0,0,.29,5.69,31.67,31.67,0,0,0,5.73,7q4.33,4.33,12.43,10.93,16.34,13.66,21.36,25.21t0,25q-5.62,15.12-18.72,21t-32.3,1.31l-6.46,17.37-18.63-6.93,6.26-16.83a114.12,114.12,0,0,1-34.71-22.95l11.11-29.89a138.31,138.31,0,0,0,19.39,17.3q10.92,8.11,20.19,11.56,7.65,2.85,11.89,2.32a6.83,6.83,0,0,0,5.85-4.84,6.69,6.69,0,0,0-.69-6,42.37,42.37,0,0,0-6.81-7.86q-5-4.84-13.82-12.31Q604,544,598.93,536.07a35.34,35.34,0,0,1-5.83-15.59q-.77-7.71,2.85-17.44,5.52-14.85,18.18-19.68t32.47.29l4.59-12.33,18.63,6.93-4.52,12.15a112.77,112.77,0,0,1,32.81,22.24Z"/><path class="cls-3" d="M1011.68,452.76,425.56,216.94a22.73,22.73,0,0,0-29.35,12.51L244.61,606.24a22.73,22.73,0,0,0,12.51,29.35L843.24,871.41a22.73,22.73,0,0,0,29.35-12.51l151.6-376.79A22.73,22.73,0,0,0,1011.68,452.76ZM872.84,737.4a90.42,90.42,0,0,0-117.42,50L378.63,635.84a90.43,90.43,0,0,0-50-117.42L396,351a90.43,90.43,0,0,0,117.42-50l376.79,151.6a90.42,90.42,0,0,0,50,117.42Z"/><rect class="cls-1" x="130.13" y="464.36" width="631.78" height="383.58" transform="translate(-208.05 207.09) rotate(-21.32)"/><path class="cls-2" d="M832.89,716.49,685.22,338.15A22.73,22.73,0,0,0,656,325.33L67.46,555a22.73,22.73,0,0,0-12.81,29.22L202.32,962.61a22.73,22.73,0,0,0,29.22,12.81L820.08,745.71A22.73,22.73,0,0,0,832.89,716.49ZM698.57,744.69,320.23,892.37a90.43,90.43,0,0,0-116.89-51.26L137.7,673A90.43,90.43,0,0,0,189,556.06L567.31,408.39A90.42,90.42,0,0,0,684.2,459.65L749.83,627.8A90.42,90.42,0,0,0,698.57,744.69Z"/><path class="cls-2" d="M390.44,513.75c-69,26.92-75.1,117.88-51.77,177.65S428.12,813.93,497.1,787s75.1-117.88,51.77-177.65S459.4,486.83,390.44,513.75ZM502.22,686q-5.51,13.26-22.64,23.08l7.19,17.08-18.32,7.72-7-16.55a114.13,114.13,0,0,1-41,7.06L408.11,695a138.31,138.31,0,0,0,26-.68q13.51-1.57,22.63-5.41,7.52-3.17,10.26-6.46a6.83,6.83,0,0,0,.94-7.54A6.69,6.69,0,0,0,463.3,671,42.38,42.38,0,0,0,453,670q-7-.09-18.5.5-13,.57-22.08-1.7a35.33,35.33,0,0,1-14.93-7.36q-5.84-5.09-9.87-14.65-6.15-14.6-.24-26.79t23.86-22l-5.11-12.13,18.32-7.72,5,11.95a112.77,112.77,0,0,1,39.14-6.27l.09,29.66q-22-.53-36.87,5.73-7.08,3-9.23,5.92a6,6,0,0,0-.73,6.3,6.78,6.78,0,0,0,4.11,3.95,31.67,31.67,0,0,0,9,1.21q6.12.18,16.54-.56,21.26-1.24,32.83,3.73t17.13,18.16Q507.73,672.74,502.22,686Z"/></g></svg>