<svg xmlns="http://www.w3.org/2000/svg" viewBox="0 0 1072.25 1106.66"><defs><style>.cls-1{fill:#fff;stroke:#525759;stroke-miterlimit:10;stroke-width:15px;}.cls-2{fill:#bdc5c4;}</style></defs><title>g</title><g id="Layer_4" data-name="Layer 4"><rect class="cls-1" x="136.48" y="123.18" width="469.56" height="469.56" rx="4.9" ry="4.9"/><polygon class="cls-2" points="261.86 184.42 282.2 247.02 348.02 247.02 294.77 285.71 315.11 348.31 261.86 309.62 208.61 348.31 228.95 285.71 175.7 247.02 241.52 247.02 261.86 184.42"/><rect class="cls-1" x="466.21" y="212.52" width="469.56" height="469.56" rx="4.9" ry="4.9"/><polygon class="cls-2" points="591.59 273.76 611.93 336.36 677.75 336.36 624.5 375.05 644.84 437.64 591.59 398.96 538.34 437.64 558.68 375.05 505.43 336.36 571.25 336.36 591.59 273.76"/><rect class="cls-1" x="270.65" y="523.58" width="469.56" height="469.56" rx="4.9" ry="4.9"/><polygon class="cls-2" points="396.03 584.82 416.37 647.42 482.19 647.42 428.94 686.1 449.28 748.7 396.03 710.01 342.78 748.7 363.12 686.1 309.87 647.42 375.69 647.42 396.03 584.82"/></g></svg>