<svg xmlns="http://www.w3.org/2000/svg" viewBox="0 0 1072.25 1106.66"><defs><style>.cls-1{fill:#515759;}.cls-2{fill:#bdc5c4;}</style></defs><title>g</title><g id="Layer_4" data-name="Layer 4"><path class="cls-1" d="M1004.82,174.67H65.29a14.75,14.75,0,0,0-14.75,14.75V895.88a14.75,14.75,0,0,0,14.75,14.75h54.3a14.75,14.75,0,0,1,14.75,14.75v.27a14.75,14.75,0,0,0,14.75,14.75h47.86a14.75,14.75,0,0,0,14.75-14.75,14.75,14.75,0,0,1,14.75-14.75H844.11a14.75,14.75,0,0,1,14.75,14.75v.15a14.75,14.75,0,0,0,14.75,14.75h47.55A14.75,14.75,0,0,0,935.9,925.8v-.9a14.75,14.75,0,0,1,14.75-14.75h54.17a14.75,14.75,0,0,0,14.75-14.75v-706A14.75,14.75,0,0,0,1004.82,174.67ZM977.41,862.21A14.75,14.75,0,0,1,962.67,877H107.43a14.75,14.75,0,0,1-14.75-14.75V575.58a14.75,14.75,0,0,1,14.75-14.75H962.67a14.75,14.75,0,0,1,14.75,14.75ZM981,499.74a21.5,21.5,0,0,1-21.5,21.5H118.06a21.5,21.5,0,0,1-21.5-21.5v-264a21.5,21.5,0,0,1,21.5-21.5H959.53a21.5,21.5,0,0,1,21.5,21.5Z"/><polygon class="cls-1" points="563.48 339.7 534.58 250.77 505.69 339.7 412.18 339.7 487.83 394.67 458.93 483.6 534.58 428.64 610.24 483.6 581.34 394.67 656.99 339.7 563.48 339.7"/><path class="cls-2" d="M369.83,277.69,258.91,237.35a19.7,19.7,0,0,0-13.87,0L134.12,277.69a20.11,20.11,0,0,0-13.24,18.91v121a20,20,0,0,0,10.56,17.65l110.93,60.51a19.58,19.58,0,0,0,19.22,0l110.93-60.51a20,20,0,0,0,10.56-17.65v-121A20.11,20.11,0,0,0,369.83,277.69ZM253.89,487.32c0,.49-.86.9-1.92.9s-1.92-.4-1.92-.9V356.17c0-.49.86-.9,1.92-.9s1.92.4,1.92.9ZM317,444.63l-50.2,26.21V435.37L317,410.69Zm50.57-152.9L252,337.88l-118-43.28c-.47-.18-.48-1.29,0-2.47s1.19-2,1.66-1.83L252.1,332.87l113.73-45.41c.46-.19,1.23.62,1.7,1.8S368,291.55,367.54,291.73Z"/><path class="cls-2" d="M939.42,277.69,828.5,237.35a19.7,19.7,0,0,0-13.87,0L703.71,277.69a20.11,20.11,0,0,0-13.24,18.91v121A20,20,0,0,0,701,435.25L812,495.76a19.58,19.58,0,0,0,19.22,0L942.1,435.25a20,20,0,0,0,10.56-17.65v-121A20.11,20.11,0,0,0,939.42,277.69ZM823.48,487.32c0,.49-.86.9-1.92.9s-1.92-.4-1.92-.9V356.17c0-.49.86-.9,1.92-.9s1.92.4,1.92.9Zm63.08-42.69-50.2,26.21V435.37l50.2-24.68Zm50.57-152.9L821.57,337.88l-118-43.28c-.47-.18-.48-1.29,0-2.47s1.19-2,1.66-1.83l116.55,42.58,113.73-45.41c.46-.19,1.23.62,1.7,1.8S937.59,291.55,937.13,291.73Z"/><path class="cls-2" d="M369.83,639.22,258.91,598.88a19.7,19.7,0,0,0-13.87,0L134.12,639.22a20.11,20.11,0,0,0-13.24,18.91v121a20,20,0,0,0,10.56,17.65l110.93,60.51a19.58,19.58,0,0,0,19.22,0l110.93-60.51a20,20,0,0,0,10.56-17.65v-121A20.11,20.11,0,0,0,369.83,639.22ZM253.89,848.85c0,.49-.86.9-1.92.9s-1.92-.4-1.92-.9V717.7c0-.49.86-.9,1.92-.9s1.92.4,1.92.9ZM317,806.16l-50.2,26.21V796.9L317,772.23Zm50.57-152.9L252,699.41l-118-43.28c-.47-.18-.48-1.29,0-2.47s1.19-2,1.66-1.83L252.1,694.4,365.83,649c.46-.19,1.23.62,1.7,1.8S368,653.08,367.54,653.26Z"/><path class="cls-2" d="M939.42,639.22,828.5,598.88a19.7,19.7,0,0,0-13.87,0L703.71,639.22a20.11,20.11,0,0,0-13.24,18.91v121A20,20,0,0,0,701,796.78L812,857.29a19.58,19.58,0,0,0,19.22,0L942.1,796.78a20,20,0,0,0,10.56-17.65v-121A20.11,20.11,0,0,0,939.42,639.22ZM823.48,848.85c0,.49-.86.9-1.92.9s-1.92-.4-1.92-.9V717.7c0-.49.86-.9,1.92-.9s1.92.4,1.92.9Zm63.08-42.69-50.2,26.21V796.9l50.2-24.68Zm50.57-152.9L821.57,699.41l-118-43.28c-.47-.18-.48-1.29,0-2.47s1.19-2,1.66-1.83L821.69,694.4,935.42,649c.46-.19,1.23.62,1.7,1.8S937.59,653.08,937.13,653.26Z"/><path class="cls-2" d="M652.63,639.22,541.7,598.88a19.7,19.7,0,0,0-13.87,0L416.91,639.22a20.11,20.11,0,0,0-13.24,18.91v121a20,20,0,0,0,10.56,17.65l110.93,60.51a19.58,19.58,0,0,0,19.22,0l110.93-60.51a20,20,0,0,0,10.56-17.65v-121A20.11,20.11,0,0,0,652.63,639.22ZM536.69,848.85c0,.49-.86.9-1.92.9s-1.92-.4-1.92-.9V717.7c0-.49.86-.9,1.92-.9s1.92.4,1.92.9Zm63.08-42.69-50.2,26.21V796.9l50.2-24.68Zm50.57-152.9L534.77,699.41l-118-43.28c-.47-.18-.48-1.29,0-2.47s1.19-2,1.66-1.83L534.9,694.4,648.63,649c.46-.19,1.23.62,1.7,1.8S650.8,653.08,650.33,653.26Z"/></g></svg>