<svg xmlns="http://www.w3.org/2000/svg" viewBox="0 0 1072.25 1106.66"><defs><style>.cls-1{fill:#bdc5c4;}.cls-2{fill:#515759;}</style></defs><title>g</title><g id="Layer_4" data-name="Layer 4"><path class="cls-1" d="M531.79,322.07C583,309.85,632,248.86,630.87,252.18h0l-98-32.45V192.11a6.13,6.13,0,0,0-6.08-6.08c-9.94,0-17.12-7.73-17.12-17.67a17.36,17.36,0,0,1,15.88-17.5h3.6a17.36,17.36,0,0,1,15.88,17.5,6.08,6.08,0,0,0,12.15,0,30,30,0,0,0-5.74-17.5h276V988.13a38.3,38.3,0,1,0,51.69,0V123.44h0V99.17h-686v24.27h0V988.13a38.3,38.3,0,1,0,51.69,0V150.86H502.19a30,30,0,0,0-5.74,17.5c0,14.91,9.94,27.06,23.75,29.83v22.09L415.61,256.18c-1.11-2.21,1.1,2.76,0,0-1.11-3.31,61.75,50.86,116.18,65.89M743.9,278.83m-216.52-47.5,93.05,30.46c-13.26,17.67-65.44,60.27-88.64,60.27-23.75,0-89.76-39.22-103-56.9Z"/><path class="cls-2" d="M448.09,258.67c-1.31-2.62-2.62-5.9-3.94-9.19a7.09,7.09,0,0,0-9.19-4.59L271.6,297.38c-3.94,1.31-5.9,4.59-3.94,8.53L288,414.16a7.14,7.14,0,0,0,7.22,5.9h66.92V617.55h-21a7.28,7.28,0,0,0-7.22,7.22V670a7.28,7.28,0,0,0,7.22,7.22h21v26.24a7.28,7.28,0,0,0,7.22,7.22h313a7.28,7.28,0,0,0,7.22-7.22V419.41h66.92a7.69,7.69,0,0,0,7.22-5.9l19-108.25c.66-3.94-2-7.22-5.25-8.53L615.39,244.24a7.09,7.09,0,0,0-9.19,4.59l-3.94,9.84m0,0c-15.75,21-48.55,47.24-76.11,47.24-28.21,0-62.33-26.24-78.07-47.24m-86.6,374v30.18H347.71V632.64Z"/></g></svg>