<svg xmlns="http://www.w3.org/2000/svg" xmlns:xlink="http://www.w3.org/1999/xlink" viewBox="0 0 1072.25 1106.66"><defs><style>.cls-1{fill:none;}.cls-2{clip-path:url(#clip-path);}.cls-3{fill:#515759;}.cls-4{fill:#bdc5c4;}</style><clipPath id="clip-path"><rect class="cls-1" x="59.08" y="335.13" width="957.45" height="435.2"/></clipPath></defs><title>g</title><g id="Layer_4" data-name="Layer 4"><g class="cls-2"><path class="cls-3" d="M1006.8,553c-16.09-30.45-48.84-32.73-49.21-32.77-181.51-14.44-327-88.83-397-124.59-17.14-8.75-50.79-23.65-54.1-24.92L429,336.13a11.62,11.62,0,0,0-13.56,3.06c-21.74,25.49-20.87,54.63-18.8,68.54-29.47,21.32-77.41,48.63-80.84,50.63a49.39,49.39,0,0,1-25.55,6.84c-42.56,0-87.45-47.08-97.24-57.95-8.77-44.28-37.06-51-53.39-51a65.56,65.56,0,0,0-23.28,4.31,11.59,11.59,0,0,0-6.39,6.53C71.78,465.54,55,544.39,59.93,601.46,62.67,633.12,71.76,650.09,77.6,658L66.32,719.19a11.68,11.68,0,0,0,.37,5.65C68.11,729.26,83.59,768,187.77,768h526.8c4.41,0,183.84-17.06,270.62-87.79a11.52,11.52,0,0,0,3.48-4.76s21.09-53.9,21.13-54c9-27.05,7-49.53-3-68.42ZM848.12,527.79a867.6,867.6,0,0,0,90.64,14.05c-16.32,6-40.45,12.73-72,18.93-51.29,10.09-58.6,13.33-97.81,43.42-25,19.2-146,17.35-253.79-10.81L625.4,516.21a602.63,602.63,0,0,0,89,31.26c54.22,14.07,110.82,9.59,133.7-19.67ZM436.41,591.65c53,22.19,127.5,39.27,199.27,45.7,13.41,1.2,34.2,2.65,56.36,2.65A375.74,375.74,0,0,0,732,638.07l-59.65,53.34C619.49,691,553.18,685.09,475,673.84a1621.71,1621.71,0,0,0-164.94-15.47c-12.75-21.53-25.59-41.2-38.25-59.07,21.27-13.66,80.92-42.68,164.61-7.65Zm-4-26.44,105.92-69.29.26-.18c.64-.43,15.71-10.37,36.3-1.51l25.64,11.06L486.42,585.14c-14.19-4.48-28-9.43-41-14.9-4.39-1.84-8.7-3.5-13-5Zm82.8-166c-13.15,7.31-14.21,8.08-14.74,8.48a11.6,11.6,0,0,0,13.44,18.91c2-1.24,14.31-8.08,26.85-15,3,1.51,20.63,10.53,26.93,13.71-5.2,3.5-9.94,6.72-11.32,7.73A11.6,11.6,0,1,0,570,451.85c1.84-1.33,12.52-8.51,21.66-14.63q12.38,6,26.28,12.51L610,457.38a11.6,11.6,0,1,0,16.13,16.68l14.54-14q12.21,5.37,25.35,10.82l-5.65,8.69a11.61,11.61,0,0,0,19.48,12.63l8.09-12.49q14.21,5.54,29.33,11l-3.9,7.57A11.6,11.6,0,1,0,734,508.85l5.44-10.54q13.53,4.5,27.68,8.78L766,509.45a11.6,11.6,0,1,0,20.94,10l2.78-5.83q15.3,4.23,31.26,8.07c-71.9,38.13-180.1-24.86-236.9-48.78-31.48-13.25-55.45,1.58-58.53,3.64L403.07,556.66c-72.82-16.16-124.25,10.06-145,23.82-10.58-14-20.92-26.8-30.89-38.42a205,205,0,0,0,46.32,5.36c65.74,0,120.78-32.21,164.57-64.12,18.18-13.25,27.62-28.67,28.05-45.86s-8.53-31.54-16.15-40.7c11-7.71,17.67-11.07,24.15-10.9,12.77.33,40,12.86,41.09,13.34ZM428,361.12l20.38,9.09c-8.31,4.69-17.63,11.62-29.54,20.8A61,61,0,0,1,428,361.12ZM327.44,478.42c10.22-4.71,103.33-67.3,103.94-67.76,5.26,6,11.84,15.74,11.54,26.29-.27,9.55-6.5,18.84-18.51,27.59-40.52,29.54-91.33,59.38-151.42,59.38a185.71,185.71,0,0,1-50.41-7.05c14.23-6.72,30.09-17.12,40.95-32.64a92,92,0,0,0,26.68,4.19c13.33,0,25.27-4.47,37.24-10ZM129.53,380.71a43.87,43.87,0,0,1,10-1.23c17,0,27.15,11.45,31.12,35a11.51,11.51,0,0,0,2.56,5.53c1.68,2,30.45,35.77,68.06,55.1-14.62,17.21-38.73,25.5-49.79,28.55-38.17-38-65.24-55-67.33-56.26a11.62,11.62,0,0,0-11.59-.35l-7.18,3.86c6.37-21.17,14.3-44.5,24.12-70.19ZM96.8,481.87l20.61-11.07c20.21,14.24,93.53,70.82,164.92,186.63-21-.55-56.13-1.52-77.65-.69-16.53.64-90.27-.78-107.51-11.33-3.34-3.67-31.78-40-.37-163.53ZM968.19,664.09c-80,62.94-244,79.7-254.16,80.68H187.77c-72.19,0-93-19.18-97.85-25.53l8.78-47.67c21.78,7.69,100.82,8.31,106,8.38,15.39.24,163.86,2,267,16.87,82.31,11.84,151.88,17.86,206.77,17.86,48.27,0,104.92-9.07,111-9.91,58.78-8.12,144.52-43.13,187.7-63.49Zm21-54.46c-23.18,11.54-134.33,62.72-202.05,72-7.34,1-50.51,7.87-79.31,9.16L790,617.27c30-22.78,36.66-25,81.17-33.72,29.91-5.87,79.49-17.39,101.76-32.62a42.94,42.94,0,0,1,13.92,14c6.78,11.39,7.55,26.42,2.28,44.73Zm0,0"/></g><path class="cls-4" d="M96.29,482.38l20.61-11.07c20.21,14.24,93.53,70.82,164.92,186.63-21-.55-56.13-1.52-77.65-.69-16.53.64-90.27-.78-107.51-11.33-3.34-3.67-31.78-40-.37-163.53Z"/><path class="cls-4" d="M968.19,664.72c-80,62.94-244,79.7-254.16,80.68H187.77c-72.19,0-93-19.18-97.85-25.53L98.7,672.2c21.78,7.69,100.82,8.31,106,8.38,15.39.24,163.86,2,267,16.87C554,709.28,623.57,715.3,678.46,715.3c48.27,0,104.92-9.07,111-9.91,58.78-8.12,144.52-43.13,187.7-63.49Z"/><path class="cls-4" d="M515.22,399.18c-13.15,7.31-14.21,8.08-14.74,8.48a11.6,11.6,0,0,0,13.44,18.91c2-1.24,14.31-8.08,26.85-15,3,1.51,20.63,10.53,26.93,13.71-5.2,3.5-9.94,6.72-11.32,7.73A11.6,11.6,0,1,0,570,451.85c1.84-1.33,12.52-8.51,21.66-14.63q12.38,6,26.28,12.51L610,457.38a11.6,11.6,0,1,0,16.13,16.68l14.54-14q12.21,5.37,25.35,10.82l-5.65,8.69a11.61,11.61,0,0,0,19.48,12.63l8.09-12.49q14.21,5.54,29.33,11l-3.9,7.57A11.6,11.6,0,1,0,734,508.85l5.44-10.54q13.53,4.5,27.68,8.78L766,509.45a11.6,11.6,0,1,0,20.94,10l2.78-5.83q15.3,4.23,31.26,8.07c-71.9,38.13-180.1-24.86-236.9-48.78-31.48-13.25-55.45,1.58-58.53,3.64L403.07,556.66c-72.82-16.16-124.25,10.06-145,23.82-10.58-14-20.92-26.8-30.89-38.42a205,205,0,0,0,46.32,5.36c65.74,0,120.78-32.21,164.57-64.12,18.18-13.25,27.62-28.67,28.05-45.86s-8.53-31.54-16.15-40.7c11-7.71,17.67-11.07,24.15-10.9,12.77.33,40,12.86,41.09,13.34"/></g></svg>