<svg xmlns="http://www.w3.org/2000/svg" viewBox="0 0 1072.25 1106.66"><defs><style>.cls-1{fill:#bdc5c4;}.cls-2,.cls-4{fill:#515759;}.cls-2{stroke:#fff;stroke-miterlimit:10;stroke-width:8px;}.cls-3{fill:#fff;}</style></defs><title>g</title><g id="Layer_4" data-name="Layer 4"><path class="cls-1" d="M273.49,954.78c-67.65,0-185.94-34-185.94-119.53,0-16.19,144.85-469.49,162.69-501.86a26.57,26.57,0,0,1,46.48,0c17.85,32.37,162.69,485.68,162.69,501.86C459.43,920.75,341.14,954.78,273.49,954.78ZM114.12,835.25H432.86l-159.37-489ZM565.68,311.13V973.75H818A13.11,13.11,0,0,1,831.3,987v26.56A13.11,13.11,0,0,1,818,1026.87H260.21a13.11,13.11,0,0,1-13.28-13.28V987a13.11,13.11,0,0,1,13.28-13.28H512.55V311.13A80.37,80.37,0,0,1,464,262.57c-8.16-17.49-8.58-35.19,0-53.12,11.2-31.13,40.26-53.12,75.12-53.12s63.92,22,75.12,53.12c5.52,17.09,6.42,34.69,0,53.12A80.37,80.37,0,0,1,565.68,311.13ZM572.32,236a33.2,33.2,0,1,0-33.2,33.2A33.3,33.3,0,0,0,572.32,236ZM804.73,696.78c-67.65,0-185.94-34-185.94-119.53,0-16.19,144.85-469.49,162.69-501.86a26.57,26.57,0,0,1,46.48,0c17.85,32.37,162.69,485.68,162.69,501.86C990.67,662.75,872.38,696.78,804.73,696.78ZM645.36,577.25H964.11l-159.37-489Z"/><path class="cls-1" d="M494.76,254.06,275.44,367.22a13.11,13.11,0,0,1-17.89-5.71L245.36,337.9A13.11,13.11,0,0,1,251.08,320L475.33,204.3Z"/><path class="cls-1" d="M554.21,182.5,799,56.49a13.11,13.11,0,0,1,17.89,5.71l12.18,23.61a13.11,13.11,0,0,1-5.71,17.89L593.71,222l-39.5-39.5"/><g id="heart-bag"><g id="heart-bag-2" data-name="heart-bag"><path class="cls-2" d="M269.2,775.89a59.51,59.51,0,1,0-99.92,43.49l-.13,0,100.05,100,100.09-100a.28.28,0,0,1-.1-.09,59.45,59.45,0,1,0-100-43.43Z"/></g></g><circle class="cls-3" cx="273.71" cy="338.19" r="12"/><circle class="cls-3" cx="801.21" cy="83.5" r="12"/><path class="cls-3" d="M901.84,495.46l-86.16-31.33a15.3,15.3,0,0,0-10.77,0l-86.16,31.33a15.62,15.62,0,0,0-10.28,14.69v94a15.57,15.57,0,0,0,8.2,13.71l86.16,47a15.21,15.21,0,0,0,14.93,0l86.16-47a15.57,15.57,0,0,0,8.2-13.71v-94A15.62,15.62,0,0,0,901.84,495.46Z"/><path class="cls-4" d="M898.08,498.31l-82.62-30a14.67,14.67,0,0,0-10.33,0l-82.62,30a15,15,0,0,0-9.86,14.08v90.13a14.93,14.93,0,0,0,7.86,13.14l82.62,45.07a14.59,14.59,0,0,0,14.32,0l82.62-45.07a14.93,14.93,0,0,0,7.86-13.14V512.39A15,15,0,0,0,898.08,498.31ZM811.72,654.45c0,.37-.64.67-1.43.67s-1.43-.3-1.43-.67V556.76c0-.37.64-.67,1.43-.67s1.43.3,1.43.67Zm47-31.8-37.39,19.52V615.75l37.39-18.38Zm37.66-113.88L810.3,543.14l-87.92-32.23c-.35-.13-.36-1,0-1.84s.89-1.49,1.24-1.36l86.81,31.71,84.71-33.82c.35-.14.91.46,1.26,1.34S896.72,508.63,896.37,508.77Z"/></g></svg>