<svg xmlns="http://www.w3.org/2000/svg" viewBox="0 0 1072.25 1106.66"><defs><style>.cls-1{fill:#515759;}</style></defs><title>g</title><g id="Layer_4" data-name="Layer 4"><path class="cls-1" d="M537.58,78.24C276.56,78.24,65,289.84,65,550.86s211.6,472.62,472.62,472.62,472.62-211.6,472.62-472.62S798.6,78.24,537.58,78.24Zm-3.39,823.35c-192.73,0-349-156.24-349-349s156.24-349,349-349,349,156.24,349,349S726.92,901.59,534.19,901.59Z"/><path class="cls-1" d="M532.08,308.44c-134.42,0-243.39,109-243.39,243.39s109,243.39,243.39,243.39,243.39-109,243.39-243.39S666.5,308.44,532.08,308.44Zm64.46,322.67q-16.44,16.21-47.94,20.07V681h-32V652.11A183.46,183.46,0,0,1,451.49,637V585.72a222.35,222.35,0,0,0,38.9,15.21q21,6.1,36.9,6.1,13.12,0,19.22-3.17t6.1-10.58a10.75,10.75,0,0,0-4.4-8.65q-4.4-3.55-14.67-8T505.84,565.8q-19.6-7.25-31.65-16.29t-17.52-20.23q-5.48-11.19-5.48-27.87,0-25.47,16.37-39.83t49.1-17.75V422.69h32v20.84q30.72,1.7,61.91,15.13l-18.37,44q-32.27-14.51-58.2-14.51-12.36,0-17.37,3a9.72,9.72,0,0,0-5,8.88,10.91,10.91,0,0,0,3.63,8.41q3.62,3.32,12.58,7.41t24.86,9.5q32.27,11.43,46.32,26T613,589Q613,614.9,596.54,631.11Z"/></g></svg>