<?xml version="1.0" encoding="utf-8"?>
<!-- Generator: Adobe Illustrator 19.1.0, SVG Export Plug-In . SVG Version: 6.00 Build 0)  -->
<!DOCTYPE svg PUBLIC "-//W3C//DTD SVG 1.1//EN" "http://www.w3.org/Graphics/SVG/1.1/DTD/svg11.dtd">
<svg version="1.1" id="Layer_1" xmlns="http://www.w3.org/2000/svg" xmlns:xlink="http://www.w3.org/1999/xlink" x="0px" y="0px"
	 viewBox="0 0 230.5 34.7" enable-background="new 0 0 230.5 34.7" xml:space="preserve">
<g>
	<g id="iOpQi2_4_">
		<g>
			<g>
				<path fill="#9FB2BF" d="M144.5,4.3c0.2,0.5,0,0.6-0.5,0.7c-5.1,0.9-8.5,3.8-9.9,8.9c-0.8,2.8-0.4,5.5,0.8,8
					c0.5,1.1,1.2,2,2.2,2.6c1.2,0.9,2.5,1.2,4,0.8c3.1-0.7,6.2-1.5,9.3-2.3c0.4-0.1,0.8-0.4,1.1-0.7c0.2-0.2,0.2-0.6,0.1-0.8
					c-0.1-0.1-0.5-0.2-0.7-0.2c-0.3,0-0.6,0.1-0.9,0.2c-1.7,0.4-2.6-0.3-2.7-2c-1,0.3-2,0.6-2.9,0.9c-0.2,0.1-0.3,0.4-0.4,0.6
					c-0.2,1-0.7,1.8-1.7,2.2c-0.2,0.1-0.4,0.1-0.6,0.2c0.3-2.1,0.6-4,0.9-6.1c-2,1.4-4.3,1.4-6.4,2.2c-0.2-1.1,0.4-2.1,1.5-2.4
					c1-0.3,2.1-0.5,3.1-0.9c0.4-0.1,0.8-0.5,1.1-0.8c0.3-0.5,0-0.9-0.6-0.9c-0.4,0.1-0.8,0.2-1.2,0.3c-1.7,0.3-2.9-0.9-2.3-2.6
					c0.5-1.6,1.6-2.7,3.3-3.2c3-0.8,6-1.6,9-2.2c2.8-0.6,5.2,0.5,6.9,2.7c2.8,3.5,3.1,7.5,1.5,11.6c-1.8,4.9-5.5,7.6-10.6,8.4
					c-0.3,0-0.5,0.1-0.8,0.1c-0.2,0-0.4-0.2-0.6-0.2c0.2-0.1,0.3-0.3,0.5-0.4c2-0.3,3.8-1,5.5-2.1c4.7-3.2,6.5-9.6,4-14.7
					c-0.8-1.7-2-3.1-4-3.6c-0.7-0.2-1.5-0.2-2.1,0c-3.1,0.7-6.2,1.5-9.3,2.3c-0.4,0.1-0.8,0.5-1.1,0.8c-0.1,0.1-0.1,0.6,0,0.7
					c0.1,0.1,0.4,0.2,0.7,0.2c0.4,0,0.7-0.2,1.1-0.2c1.1-0.2,1.8,0,2.4,1c0.9-0.2,1.8-0.5,2.8-0.7c0.4-0.1,0.8-0.1,1.2-0.1
					c1.3,0.1,2.1,0.9,2.1,2.3c0,0.3,0,0.6-0.1,0.9c1.9-0.5,3.8-1,5.7-1.4c0.1,1.1-0.5,2.1-1.6,2.4c-1.1,0.3-2.3,0.5-3.4,0.9
					c-0.4,0.1-0.8,0.5-1.1,0.9c-0.3,0.5,0,0.9,0.6,0.8c0.5-0.1,0.9-0.2,1.4-0.3c1.5-0.3,2.6,0.8,2.2,2.3c-0.4,1.8-1.6,3-3.3,3.4
					c-3,0.8-6,1.6-9.1,2.2c-2.9,0.6-5.1-0.6-6.9-2.7c-1.3-1.6-2-3.4-2.3-5.4c0-0.2-0.1-0.3-0.1-0.5c0-0.8,0-1.5,0-2.3
					c0-0.2,0.1-0.4,0.1-0.6c0.6-5.4,4.9-10,10.2-11.1c0.5-0.1,1-0.2,1.5-0.3C144,4.3,144.3,4.3,144.5,4.3z M144.3,18.6
					c0.8-0.3,1.6-0.4,2.2-0.7c0.7-0.3,1.2-1,1.3-1.8c0.1-0.7-0.3-1.2-1-1.1c-0.6,0.1-1.3,0.3-1.9,0.4c-0.1,0-0.2,0.2-0.2,0.3
					C144.6,16.6,144.4,17.5,144.3,18.6z"/>
			</g>
			<g>
				<path fill="#9FB2BF" d="M202.4,18.2c-0.6-0.9-1.2-1.7-1.8-2.5c0,0-0.1,0-0.1,0c0,0.5,0,1.1,0,1.6c0,0.6,0,1.2,0,1.9
					c0,0.5-0.2,0.6-0.7,0.5c0-1.7,0-3.4,0-5.1c0.5-0.2,0.8-0.1,1.1,0.4c0.5,0.7,1,1.4,1.5,2.2c0.5-0.8,1-1.5,1.5-2.2
					c0.3-0.4,0.6-0.6,1.1-0.4c0,1.7,0,3.4,0,5.1c-0.2,0-0.4,0-0.6,0c0-1.4,0-2.7,0-4c0,0-0.1,0-0.1,0
					C203.7,16.5,203.1,17.3,202.4,18.2z"/>
			</g>
			<g>
				<path fill="#9FB2BF" d="M194.1,19.7c-0.3,0-0.4,0-0.7,0c0-1.7,0-3.4,0-5.1c0.5-0.2,0.8,0,1.1,0.4c0.4,0.7,1,1.4,1.5,2.2
					c0.5-0.8,1-1.5,1.5-2.2c0.3-0.4,0.6-0.6,1.1-0.4c0,1.7,0,3.4,0,5.1c-0.2,0-0.4,0-0.7,0c0-1.4,0-2.7,0-4.2
					c-0.7,1-1.3,1.8-1.9,2.6c-0.6-0.9-1.2-1.7-1.9-2.6C194.1,17,194.1,18.3,194.1,19.7z"/>
			</g>
			<g>
				<path fill="#9FB2BF" d="M211,14.5c0.9,0,1.7,0,2.6,0c0.9,0.1,1.4,0.6,1.5,1.4c0.1,0.9-0.3,1.5-1.2,1.8c-0.1,0-0.1,0-0.2,0.1
					c0.5,0.6,1.1,1.2,1.6,1.8c-0.5,0.2-0.9,0.1-1.2-0.3c-0.2-0.3-0.5-0.5-0.7-0.8c-0.4-0.7-1-0.8-1.8-0.6c0,0.6,0,1.1,0,1.8
					c-0.2,0-0.4,0-0.7,0.1C211,18,211,16.3,211,14.5z M211.7,17.2c0.6,0,1.2,0,1.8,0c0.6,0,0.9-0.5,0.9-1c0-0.6-0.3-1-0.9-1.1
					c-0.6-0.1-1.2,0-1.9,0C211.7,15.8,211.7,16.5,211.7,17.2z"/>
			</g>
			<g>
				<path fill="#9FB2BF" d="M189.8,19.8c-1.6,0-2.7-1.1-2.7-2.7c0-1.6,1.1-2.7,2.7-2.7c1.6,0,2.6,1.1,2.7,2.7
					C192.4,18.7,191.4,19.8,189.8,19.8z M189.8,19.2c1.2,0,2-0.8,2-2c0-1.3-0.8-2.1-2-2.1c-1.2,0-2,0.8-2,2.1
					C187.7,18.3,188.6,19.2,189.8,19.2z"/>
			</g>
			<g>
				<path fill="#9FB2BF" d="M224.7,16.7c0.1,0.5,0,0.7-0.4,0.6c-0.8,0-1.6,0-2.4,0c0,0.6,0,1.1,0,1.7c1,0,2,0,3.1,0
					c0,0.3,0,0.5,0,0.7c-1.3,0-2.5,0-3.8,0c0-1.7,0-3.4,0-5.2c1.1,0,2.3,0,3.4,0c0.1,0,0.2,0.3,0.4,0.6c-1.2,0-2.1,0-3.1,0
					c0,0.6,0,1,0,1.6C222.8,16.7,223.8,16.7,224.7,16.7z"/>
			</g>
			<g>
				<path fill="#9FB2BF" d="M206.4,14.5c1.1,0,2.2,0,3.3,0c0.1,0,0.3,0.2,0.4,0.3c-0.1,0.1-0.3,0.3-0.4,0.3c-0.8,0-1.7,0-2.6,0
					c0,0.6,0,1,0,1.6c1,0,1.9,0,2.8,0c0.2,0.5,0,0.6-0.4,0.6c-0.8,0-1.6,0-2.4,0c0,0.6,0,1.1,0,1.7c0.9,0,1.7,0,2.6,0
					c0.5,0,0.6,0.2,0.4,0.6c-1.2,0-2.4,0-3.7,0C206.4,18,206.4,16.3,206.4,14.5z"/>
			</g>
			<g>
				<path fill="#9FB2BF" d="M165.3,18.6c0.2-0.1,0.3-0.2,0.6-0.3c0.1,0.1,0.1,0.2,0.2,0.3c0.6,0.6,1.6,0.8,2.3,0.5
					c0.3-0.1,0.6-0.5,0.6-0.8c0-0.2-0.3-0.6-0.6-0.7c-0.4-0.2-0.8-0.2-1.2-0.3c-0.3-0.1-0.7-0.2-1-0.3c-0.7-0.4-0.9-1.3-0.3-2
					c0.7-0.8,3.2-0.8,3.6,0.4c-0.2,0.2-0.4,0.4-0.7,0.1c-0.6-0.5-1.3-0.5-2-0.2c-0.2,0.1-0.5,0.4-0.5,0.7c0,0.2,0.3,0.6,0.5,0.6
					c0.5,0.2,1.1,0.2,1.6,0.4c0.9,0.2,1.3,0.7,1.3,1.4c0,0.7-0.4,1.2-1.3,1.5C167.1,20.1,165.9,19.7,165.3,18.6z"/>
			</g>
			<g>
				<path fill="#9FB2BF" d="M175.2,18.6c0.1-0.1,0.3-0.2,0.5-0.3c0.6,0.8,1.3,1,2.2,0.8c0.4-0.1,0.9-0.3,0.9-0.8
					c0-0.6-0.4-0.8-0.8-0.9c-0.5-0.1-1.1-0.2-1.6-0.4c-0.6-0.2-1-0.5-1-1.2c0-0.6,0.3-1.1,1-1.3c1.1-0.4,2.3-0.1,3,0.7
					c-0.2,0.3-0.4,0.4-0.7,0.1c-0.6-0.5-1.3-0.5-2-0.2c-0.2,0.1-0.5,0.4-0.5,0.7c0,0.2,0.3,0.5,0.5,0.6c0.5,0.2,1.1,0.2,1.6,0.4
					c0.9,0.2,1.3,0.7,1.3,1.4c0,0.7-0.5,1.3-1.4,1.5C177.2,19.9,175.7,19.8,175.2,18.6z"/>
			</g>
			<g>
				<path fill="#9FB2BF" d="M171.2,19.7c-0.2,0-0.4,0-0.6,0c0-1.7,0-3.4,0-5.1c1,0,1.9-0.1,2.9,0c0.8,0.1,1.4,0.9,1.3,1.8
					c-0.1,0.9-0.7,1.5-1.5,1.6c-0.3,0-0.7,0-1,0c-0.3,0-0.6,0-1,0C171.2,18.6,171.2,19.1,171.2,19.7z M171.2,15.2c0,0.8,0,1.5,0,2.2
					c0.7,0,1.3,0,1.9,0c0.6,0,0.9-0.5,0.9-1.1c0-0.6-0.3-1-0.9-1.1C172.5,15.1,171.9,15.2,171.2,15.2z"/>
			</g>
			<g>
				<path fill="#9FB2BF" d="M186.3,18.6c0.1,0.1,0.3,0.3,0.4,0.4c-0.7,1-2.8,1.1-3.8,0.2c-1-1-1.1-2.8-0.1-3.9c1-1.1,2.8-1.1,3.9,0
					c-0.2,0.2-0.3,0.5-0.8,0.2c-1-0.6-2.1-0.4-2.7,0.3c-0.6,0.8-0.6,2,0,2.8c0.7,0.7,1.8,0.8,2.8,0.2
					C186.1,18.7,186.2,18.7,186.3,18.6z"/>
			</g>
			<g>
				<path fill="#9FB2BF" d="M220.4,15.2c-0.1,0.1-0.3,0.2-0.4,0.4c-1.3-0.7-2.4-0.7-3.1,0.2c-0.6,0.8-0.6,2,0,2.7
					c0.7,0.8,1.8,0.9,3.2,0.1c0.1,0.1,0.2,0.3,0.3,0.4c-0.9,1-2.8,1.1-3.8,0.1c-1.1-1-1.1-2.9-0.1-3.9
					C217.5,14.1,219.3,14.1,220.4,15.2z"/>
			</g>
		</g>
	</g>
	<g>
		<path fill="#9FB2BF" d="M10.2,17.6c0,0.6-0.2,1.2-0.7,1.5s-1.1,0.6-1.9,0.6c-0.8,0-1.4-0.1-2-0.4v-1.4C6,18,6.4,18.2,6.7,18.3
			s0.6,0.1,0.9,0.1c0.3,0,0.6-0.1,0.8-0.2s0.3-0.3,0.3-0.6c0-0.1,0-0.3-0.1-0.4c-0.1-0.1-0.2-0.2-0.3-0.3s-0.5-0.3-0.9-0.5
			c-0.4-0.2-0.8-0.4-1-0.6s-0.4-0.4-0.5-0.7s-0.2-0.5-0.2-0.9c0-0.6,0.2-1.1,0.6-1.5s1-0.5,1.8-0.5c0.4,0,0.7,0,1.1,0.1
			s0.7,0.2,1.1,0.4L9.6,14c-0.4-0.2-0.7-0.3-0.9-0.3S8.2,13.6,8,13.6c-0.3,0-0.5,0.1-0.7,0.2s-0.2,0.3-0.2,0.5c0,0.1,0,0.2,0.1,0.3
			c0.1,0.1,0.2,0.2,0.3,0.3c0.1,0.1,0.5,0.3,1,0.5c0.7,0.3,1.1,0.6,1.4,1C10,16.7,10.2,17.1,10.2,17.6z"/>
		<path fill="#9FB2BF" d="M14.8,19.6l-0.3-0.7h0c-0.3,0.3-0.5,0.5-0.8,0.7c-0.3,0.1-0.6,0.2-1,0.2c-0.5,0-0.9-0.1-1.2-0.4
			S11,18.5,11,17.9c0-0.6,0.2-1,0.6-1.3c0.4-0.3,1-0.4,1.8-0.5l0.9,0v-0.2c0-0.6-0.3-0.8-0.8-0.8c-0.4,0-0.9,0.1-1.5,0.4l-0.5-1
			c0.6-0.3,1.3-0.5,2.1-0.5c0.7,0,1.3,0.2,1.7,0.5s0.6,0.8,0.6,1.5v3.6H14.8z M14.4,17l-0.6,0c-0.4,0-0.8,0.1-1,0.2
			c-0.2,0.1-0.3,0.4-0.3,0.7c0,0.4,0.2,0.6,0.7,0.6c0.3,0,0.6-0.1,0.8-0.3s0.3-0.5,0.3-0.8V17z"/>
		<path fill="#9FB2BF" d="M18.9,19.6h-1.5V12h1.5V19.6z"/>
		<path fill="#9FB2BF" d="M22.9,19.7c-0.9,0-1.6-0.2-2.1-0.7s-0.7-1.2-0.7-2.1c0-0.9,0.2-1.6,0.7-2.1c0.5-0.5,1.1-0.7,1.9-0.7
			c0.8,0,1.4,0.2,1.8,0.7s0.6,1,0.6,1.8v0.7h-3.5c0,0.4,0.1,0.8,0.4,1s0.6,0.4,1,0.4c0.3,0,0.6,0,0.9-0.1s0.6-0.2,0.9-0.3v1.2
			c-0.3,0.1-0.5,0.2-0.8,0.3C23.7,19.6,23.3,19.7,22.9,19.7z M22.7,15.1c-0.3,0-0.6,0.1-0.7,0.3c-0.2,0.2-0.3,0.5-0.3,0.9h2.1
			c0-0.4-0.1-0.7-0.3-0.9C23.3,15.2,23,15.1,22.7,15.1z"/>
		<path fill="#9FB2BF" d="M30.1,17.9c0,0.6-0.2,1-0.6,1.3s-1,0.4-1.7,0.4c-0.4,0-0.7,0-1-0.1c-0.3-0.1-0.5-0.1-0.8-0.2v-1.2
			c0.3,0.1,0.6,0.2,0.9,0.3s0.7,0.1,0.9,0.1c0.5,0,0.8-0.2,0.8-0.5c0-0.1,0-0.2-0.1-0.3c-0.1-0.1-0.2-0.2-0.4-0.2
			c-0.2-0.1-0.4-0.2-0.7-0.3c-0.4-0.2-0.7-0.3-0.9-0.5s-0.3-0.3-0.4-0.5C26,16,26,15.8,26,15.5c0-0.5,0.2-0.9,0.6-1.1
			c0.4-0.3,0.9-0.4,1.6-0.4c0.7,0,1.3,0.1,1.9,0.4l-0.4,1.1c-0.3-0.1-0.5-0.2-0.8-0.3s-0.5-0.1-0.7-0.1c-0.4,0-0.7,0.1-0.7,0.4
			c0,0.1,0.1,0.2,0.2,0.3s0.5,0.2,0.9,0.4c0.4,0.2,0.7,0.3,0.9,0.5s0.3,0.3,0.4,0.5C30.1,17.4,30.1,17.7,30.1,17.9z"/>
		<path fill="#9FB2BF" d="M39.9,15.9c0,1.2-0.3,2.1-1,2.7s-1.6,0.9-2.9,0.9h-2v-7.1h2.2c1.2,0,2.1,0.3,2.7,0.9S39.9,14.8,39.9,15.9z
			 M38.4,16c0-1.5-0.7-2.3-2-2.3h-0.8v4.6h0.6C37.6,18.3,38.4,17.5,38.4,16z"/>
		<path fill="#9FB2BF" d="M44.8,19.6l-0.3-0.7h0c-0.3,0.3-0.5,0.5-0.8,0.7c-0.3,0.1-0.6,0.2-1,0.2c-0.5,0-0.9-0.1-1.2-0.4
			s-0.5-0.7-0.5-1.3c0-0.6,0.2-1,0.6-1.3c0.4-0.3,1-0.4,1.8-0.5l0.9,0v-0.2c0-0.6-0.3-0.8-0.8-0.8c-0.4,0-0.9,0.1-1.5,0.4l-0.5-1
			c0.6-0.3,1.3-0.5,2.1-0.5c0.7,0,1.3,0.2,1.7,0.5s0.6,0.8,0.6,1.5v3.6H44.8z M44.3,17l-0.6,0c-0.4,0-0.8,0.1-1,0.2
			c-0.2,0.1-0.3,0.4-0.3,0.7c0,0.4,0.2,0.6,0.7,0.6c0.3,0,0.6-0.1,0.8-0.3s0.3-0.5,0.3-0.8V17z"/>
		<path fill="#9FB2BF" d="M49.6,18.5c0.3,0,0.6-0.1,0.9-0.2v1.1c-0.4,0.2-0.8,0.2-1.4,0.2c-0.6,0-1-0.2-1.3-0.5
			c-0.3-0.3-0.4-0.8-0.4-1.4v-2.6h-0.7v-0.6l0.8-0.5l0.4-1.2h1v1.2h1.5v1.1H49v2.6c0,0.2,0.1,0.4,0.2,0.5S49.4,18.5,49.6,18.5z"/>
		<path fill="#9FB2BF" d="M55.2,19.6l-0.3-0.7h0c-0.3,0.3-0.5,0.5-0.8,0.7c-0.3,0.1-0.6,0.2-1,0.2c-0.5,0-0.9-0.1-1.2-0.4
			s-0.5-0.7-0.5-1.3c0-0.6,0.2-1,0.6-1.3c0.4-0.3,1-0.4,1.8-0.5l0.9,0v-0.2c0-0.6-0.3-0.8-0.8-0.8c-0.4,0-0.9,0.1-1.5,0.4l-0.5-1
			c0.6-0.3,1.3-0.5,2.1-0.5c0.7,0,1.3,0.2,1.7,0.5s0.6,0.8,0.6,1.5v3.6H55.2z M54.7,17l-0.6,0c-0.4,0-0.8,0.1-1,0.2
			c-0.2,0.1-0.3,0.4-0.3,0.7c0,0.4,0.2,0.6,0.7,0.6c0.3,0,0.6-0.1,0.8-0.3s0.3-0.5,0.3-0.8V17z"/>
		<path fill="#9FB2BF" d="M65.4,14.6c0,0.8-0.2,1.4-0.7,1.8s-1.2,0.6-2,0.6H62v2.5h-1.5v-7.1h2.3c0.9,0,1.5,0.2,2,0.6
			C65.1,13.3,65.4,13.9,65.4,14.6z M62,15.8h0.5c0.5,0,0.8-0.1,1-0.3c0.2-0.2,0.3-0.5,0.3-0.8c0-0.4-0.1-0.6-0.3-0.8
			s-0.5-0.3-0.9-0.3H62V15.8z"/>
		<path fill="#9FB2BF" d="M69.7,14c0.2,0,0.4,0,0.5,0L70,15.4c-0.1,0-0.3,0-0.4,0c-0.5,0-0.8,0.1-1.1,0.4s-0.4,0.6-0.4,1v2.8h-1.5
			v-5.5h1.1L68,15H68c0.2-0.3,0.4-0.6,0.7-0.7C69,14.1,69.3,14,69.7,14z"/>
		<path fill="#9FB2BF" d="M76.1,16.8c0,0.9-0.2,1.6-0.7,2.1s-1.1,0.8-2,0.8c-0.5,0-1-0.1-1.4-0.3c-0.4-0.2-0.7-0.6-0.9-1
			s-0.3-0.9-0.3-1.5c0-0.9,0.2-1.6,0.7-2.1s1.1-0.7,2-0.7c0.5,0,1,0.1,1.4,0.3s0.7,0.6,0.9,1S76.1,16.2,76.1,16.8z M72.3,16.8
			c0,0.5,0.1,0.9,0.3,1.2s0.5,0.4,0.9,0.4c0.4,0,0.7-0.1,0.9-0.4c0.2-0.3,0.3-0.7,0.3-1.2c0-0.5-0.1-0.9-0.3-1.2s-0.5-0.4-0.9-0.4
			c-0.4,0-0.7,0.1-0.9,0.4C72.4,15.9,72.3,16.3,72.3,16.8z"/>
		<path fill="#9FB2BF" d="M78.6,19.6l-2.1-5.5h1.6l1.1,3.1c0.1,0.4,0.2,0.8,0.2,1.1h0c0-0.3,0.1-0.7,0.2-1.1l1-3.1h1.6l-2.1,5.5
			H78.6z"/>
		<path fill="#9FB2BF" d="M83,12.7c0-0.5,0.3-0.7,0.8-0.7s0.8,0.2,0.8,0.7c0,0.2-0.1,0.4-0.2,0.5c-0.1,0.1-0.3,0.2-0.6,0.2
			C83.2,13.4,83,13.2,83,12.7z M84.5,19.6H83v-5.5h1.5V19.6z"/>
		<path fill="#9FB2BF" d="M87.8,19.7c-0.6,0-1.1-0.2-1.5-0.7s-0.5-1.2-0.5-2.1c0-0.9,0.2-1.6,0.6-2.1c0.4-0.5,0.9-0.7,1.5-0.7
			c0.7,0,1.2,0.3,1.6,0.8h0c-0.1-0.4-0.1-0.8-0.1-1.1V12h1.5v7.6h-1.1l-0.3-0.7h-0.1C89,19.4,88.5,19.7,87.8,19.7z M88.3,18.5
			c0.4,0,0.7-0.1,0.8-0.3s0.3-0.6,0.3-1.1v-0.2c0-0.6-0.1-1-0.3-1.3s-0.5-0.4-0.9-0.4c-0.3,0-0.6,0.1-0.8,0.4
			c-0.2,0.3-0.3,0.7-0.3,1.2c0,0.5,0.1,0.9,0.3,1.2C87.7,18.3,88,18.5,88.3,18.5z"/>
		<path fill="#9FB2BF" d="M94.9,19.7c-0.9,0-1.6-0.2-2.1-0.7s-0.7-1.2-0.7-2.1c0-0.9,0.2-1.6,0.7-2.1c0.5-0.5,1.1-0.7,1.9-0.7
			c0.8,0,1.4,0.2,1.8,0.7s0.6,1,0.6,1.8v0.7h-3.5c0,0.4,0.1,0.8,0.4,1s0.6,0.4,1,0.4c0.3,0,0.6,0,0.9-0.1s0.6-0.2,0.9-0.3v1.2
			c-0.3,0.1-0.5,0.2-0.8,0.3C95.7,19.6,95.3,19.7,94.9,19.7z M94.7,15.1c-0.3,0-0.6,0.1-0.7,0.3c-0.2,0.2-0.3,0.5-0.3,0.9h2.1
			c0-0.4-0.1-0.7-0.3-0.9C95.2,15.2,95,15.1,94.7,15.1z"/>
		<path fill="#9FB2BF" d="M100,19.7c-0.6,0-1.1-0.2-1.5-0.7S98,17.7,98,16.8c0-0.9,0.2-1.6,0.6-2.1c0.4-0.5,0.9-0.7,1.5-0.7
			c0.7,0,1.2,0.3,1.6,0.8h0c-0.1-0.4-0.1-0.8-0.1-1.1V12h1.5v7.6h-1.1l-0.3-0.7h-0.1C101.3,19.4,100.7,19.7,100,19.7z M100.6,18.5
			c0.4,0,0.7-0.1,0.8-0.3s0.3-0.6,0.3-1.1v-0.2c0-0.6-0.1-1-0.3-1.3s-0.5-0.4-0.9-0.4c-0.3,0-0.6,0.1-0.8,0.4
			c-0.2,0.3-0.3,0.7-0.3,1.2c0,0.5,0.1,0.9,0.3,1.2C100,18.3,100.2,18.5,100.6,18.5z"/>
		<path fill="#9FB2BF" d="M107.4,12.4h2.2c1,0,1.7,0.1,2.2,0.4c0.5,0.3,0.7,0.7,0.7,1.4c0,0.4-0.1,0.8-0.3,1s-0.5,0.4-0.8,0.5v0
			c0.5,0.1,0.8,0.3,1,0.6s0.3,0.6,0.3,1.1c0,0.7-0.2,1.2-0.7,1.5s-1.1,0.5-1.9,0.5h-2.7V12.4z M108.9,15.2h0.9
			c0.4,0,0.7-0.1,0.9-0.2s0.3-0.3,0.3-0.6c0-0.3-0.1-0.5-0.3-0.6c-0.2-0.1-0.5-0.2-0.9-0.2h-0.8V15.2z M108.9,16.4v1.9h1
			c0.4,0,0.7-0.1,0.9-0.2s0.3-0.4,0.3-0.7c0-0.6-0.4-0.9-1.3-0.9H108.9z"/>
		<path fill="#9FB2BF" d="M113.2,14.1h1.6l1,3.1c0.1,0.3,0.1,0.6,0.2,0.9h0c0-0.3,0.1-0.7,0.2-0.9l1-3.1h1.6l-2.3,6.2
			c-0.2,0.6-0.5,1-0.9,1.3s-0.9,0.4-1.4,0.4c-0.3,0-0.5,0-0.8-0.1v-1.2c0.2,0,0.4,0.1,0.6,0.1c0.3,0,0.5-0.1,0.7-0.2
			c0.2-0.2,0.4-0.4,0.5-0.7l0.1-0.3L113.2,14.1z"/>
	</g>
</g>
</svg>
