<?xml version="1.0" encoding="utf-8"?>
<svg id="Layer_1" x="0px" y="0px" viewBox="-208 209 1065 146" preserveAspectRatio="xMidYMid slice" xmlns="http://www.w3.org/2000/svg" xmlns:bx="https://boxy-svg.com">
  <g transform="matrix(0.264253, 0, 0, 0.264253, 397.826569, 221.753342)">
    <path d="M 260.143 357.015 C 188.904 357.015 131.091 299.294 131.091 228.043 C 131.091 156.663 188.904 98.984 260.143 98.984 C 331.444 98.984 389.185 156.663 389.185 228.043 C 389.185 299.294 331.444 357.015 260.143 357.015 M 260.143 34.544 C 153.347 34.544 66.744 121.169 66.744 228.043 C 66.744 334.835 153.347 421.433 260.143 421.433 C 366.985 421.433 453.724 334.835 453.724 228.043 C 453.724 121.169 366.985 34.544 260.143 34.544 Z" style="fill: rgb(159, 178, 191);" bx:origin="0.5 0.5"/>
    <path d="M 260.143 161.736 C 223.536 161.736 193.875 191.325 193.875 228.043 C 193.875 264.64 223.535 294.317 260.143 294.317 C 296.785 294.317 326.51 264.639 326.51 228.043 C 326.51 191.326 296.785 161.736 260.143 161.736" style="fill: rgb(159, 178, 191);" bx:origin="0.5 0.5"/>
  </g>
  <g transform="matrix(0.669849, 0, 0, 0.664066, 490.796417, -46.273079)">
    <path d="M 85.222 471.901 L 63.891 471.901 L 63.891 458.737 L 122.205 458.737 L 122.205 471.901 L 100.874 471.901 L 100.874 529.917 L 85.222 529.917 L 85.222 471.901" style="fill: rgb(159, 178, 191);" bx:origin="0.5 0.5"/>
    <path d="M 115.427 529.917 L 131.27 529.917 L 136.857 514.062 L 163.474 514.062 L 168.859 529.917 L 185.105 529.917 L 158.488 458.737 L 142.442 458.737 L 115.427 529.917 M 150.216 476.276 L 150.412 476.276 L 159.38 502.399 L 140.951 502.399 L 150.216 476.276 Z" style="fill: rgb(159, 178, 191);" bx:origin="0.5 0.5"/>
    <path d="M 191.278 529.917 L 206.937 529.917 L 206.937 502.105 L 222.578 502.105 C 230.461 502.105 233.346 505.392 234.44 512.865 C 235.247 518.549 235.044 525.429 236.94 529.918 L 252.582 529.918 C 249.794 525.932 249.897 517.547 249.594 513.063 C 249.093 505.875 246.909 498.407 239.227 496.415 L 239.227 496.218 C 247.112 493.03 250.498 486.757 250.498 478.372 C 250.498 467.614 242.417 458.741 229.661 458.741 L 191.279 458.741 L 191.278 529.917 M 206.937 470.899 L 224.086 470.899 C 231.053 470.899 234.844 473.891 234.844 480.762 C 234.844 487.936 231.053 490.932 224.086 490.932 L 206.937 490.932 L 206.937 470.899 Z" style="fill: rgb(159, 178, 191);" bx:origin="0.5 0.5"/>
    <path d="M 312.693 521.837 C 307.205 528.925 300.04 531.626 293.158 531.626 C 271.132 531.626 258.169 515.151 258.169 494.614 C 258.169 473.491 271.131 457.05 293.158 457.05 C 307.708 457.05 321.47 466.021 323.169 482.157 L 308.208 482.157 C 306.41 474.274 300.53 470.202 293.158 470.202 C 279.101 470.202 273.81 482.157 273.81 494.614 C 273.81 506.483 279.101 518.44 293.158 518.44 C 303.329 518.44 309.198 512.961 310.1 503.086 L 294.357 503.086 L 294.357 491.436 L 324.256 491.436 L 324.256 529.916 L 314.28 529.916 L 312.693 521.837" style="fill: rgb(159, 178, 191);" bx:origin="0.5 0.5"/>
    <path d="M 334.926 458.737 L 388.14 458.737 L 388.14 471.901 L 350.575 471.901 L 350.575 487.146 L 385.059 487.146 L 385.059 499.319 L 350.575 499.319 L 350.575 516.753 L 388.947 516.753 L 388.947 529.917 L 334.926 529.917 L 334.926 458.737" style="fill: rgb(159, 178, 191);" bx:origin="0.5 0.5"/>
    <path d="M 417.257 471.901 L 395.925 471.901 L 395.925 458.737 L 454.247 458.737 L 454.247 471.901 L 432.904 471.901 L 432.904 529.917 L 417.257 529.917 L 417.257 471.901" style="fill: rgb(159, 178, 191);" bx:origin="0.5 0.5"/>
  </g>
  <g transform="matrix(5.060157, 0, 0, 5.060157, -218.320389, 195.977341)">
    <path d="M10.2,17.6c0,0.6-0.2,1.2-0.7,1.5s-1.1,0.6-1.9,0.6c-0.8,0-1.4-0.1-2-0.4v-1.4C6,18,6.4,18.2,6.7,18.3&#10;&#9;&#9;&#9;s0.6,0.1,0.9,0.1c0.3,0,0.6-0.1,0.8-0.2s0.3-0.3,0.3-0.6c0-0.1,0-0.3-0.1-0.4c-0.1-0.1-0.2-0.2-0.3-0.3s-0.5-0.3-0.9-0.5&#10;&#9;&#9;&#9;c-0.4-0.2-0.8-0.4-1-0.6s-0.4-0.4-0.5-0.7s-0.2-0.5-0.2-0.9c0-0.6,0.2-1.1,0.6-1.5s1-0.5,1.8-0.5c0.4,0,0.7,0,1.1,0.1&#10;&#9;&#9;&#9;s0.7,0.2,1.1,0.4L9.6,14c-0.4-0.2-0.7-0.3-0.9-0.3S8.2,13.6,8,13.6c-0.3,0-0.5,0.1-0.7,0.2s-0.2,0.3-0.2,0.5c0,0.1,0,0.2,0.1,0.3&#10;&#9;&#9;&#9;c0.1,0.1,0.2,0.2,0.3,0.3c0.1,0.1,0.5,0.3,1,0.5c0.7,0.3,1.1,0.6,1.4,1C10,16.7,10.2,17.1,10.2,17.6z" style="fill: rgb(159, 178, 191);"/>
    <path d="M14.8,19.6l-0.3-0.7h0c-0.3,0.3-0.5,0.5-0.8,0.7c-0.3,0.1-0.6,0.2-1,0.2c-0.5,0-0.9-0.1-1.2-0.4&#10;&#9;&#9;&#9;S11,18.5,11,17.9c0-0.6,0.2-1,0.6-1.3c0.4-0.3,1-0.4,1.8-0.5l0.9,0v-0.2c0-0.6-0.3-0.8-0.8-0.8c-0.4,0-0.9,0.1-1.5,0.4l-0.5-1&#10;&#9;&#9;&#9;c0.6-0.3,1.3-0.5,2.1-0.5c0.7,0,1.3,0.2,1.7,0.5s0.6,0.8,0.6,1.5v3.6H14.8z M14.4,17l-0.6,0c-0.4,0-0.8,0.1-1,0.2&#10;&#9;&#9;&#9;c-0.2,0.1-0.3,0.4-0.3,0.7c0,0.4,0.2,0.6,0.7,0.6c0.3,0,0.6-0.1,0.8-0.3s0.3-0.5,0.3-0.8V17z" style="fill: rgb(159, 178, 191);"/>
    <path d="M18.9,19.6h-1.5V12h1.5V19.6z" style="fill: rgb(159, 178, 191);"/>
    <path d="M22.9,19.7c-0.9,0-1.6-0.2-2.1-0.7s-0.7-1.2-0.7-2.1c0-0.9,0.2-1.6,0.7-2.1c0.5-0.5,1.1-0.7,1.9-0.7&#10;&#9;&#9;&#9;c0.8,0,1.4,0.2,1.8,0.7s0.6,1,0.6,1.8v0.7h-3.5c0,0.4,0.1,0.8,0.4,1s0.6,0.4,1,0.4c0.3,0,0.6,0,0.9-0.1s0.6-0.2,0.9-0.3v1.2&#10;&#9;&#9;&#9;c-0.3,0.1-0.5,0.2-0.8,0.3C23.7,19.6,23.3,19.7,22.9,19.7z M22.7,15.1c-0.3,0-0.6,0.1-0.7,0.3c-0.2,0.2-0.3,0.5-0.3,0.9h2.1&#10;&#9;&#9;&#9;c0-0.4-0.1-0.7-0.3-0.9C23.3,15.2,23,15.1,22.7,15.1z" style="fill: rgb(159, 178, 191);"/>
    <path d="M30.1,17.9c0,0.6-0.2,1-0.6,1.3s-1,0.4-1.7,0.4c-0.4,0-0.7,0-1-0.1c-0.3-0.1-0.5-0.1-0.8-0.2v-1.2&#10;&#9;&#9;&#9;c0.3,0.1,0.6,0.2,0.9,0.3s0.7,0.1,0.9,0.1c0.5,0,0.8-0.2,0.8-0.5c0-0.1,0-0.2-0.1-0.3c-0.1-0.1-0.2-0.2-0.4-0.2&#10;&#9;&#9;&#9;c-0.2-0.1-0.4-0.2-0.7-0.3c-0.4-0.2-0.7-0.3-0.9-0.5s-0.3-0.3-0.4-0.5C26,16,26,15.8,26,15.5c0-0.5,0.2-0.9,0.6-1.1&#10;&#9;&#9;&#9;c0.4-0.3,0.9-0.4,1.6-0.4c0.7,0,1.3,0.1,1.9,0.4l-0.4,1.1c-0.3-0.1-0.5-0.2-0.8-0.3s-0.5-0.1-0.7-0.1c-0.4,0-0.7,0.1-0.7,0.4&#10;&#9;&#9;&#9;c0,0.1,0.1,0.2,0.2,0.3s0.5,0.2,0.9,0.4c0.4,0.2,0.7,0.3,0.9,0.5s0.3,0.3,0.4,0.5C30.1,17.4,30.1,17.7,30.1,17.9z" style="fill: rgb(159, 178, 191);"/>
    <path d="M39.9,15.9c0,1.2-0.3,2.1-1,2.7s-1.6,0.9-2.9,0.9h-2v-7.1h2.2c1.2,0,2.1,0.3,2.7,0.9S39.9,14.8,39.9,15.9z&#10;&#9;&#9;&#9; M38.4,16c0-1.5-0.7-2.3-2-2.3h-0.8v4.6h0.6C37.6,18.3,38.4,17.5,38.4,16z" style="fill: rgb(159, 178, 191);"/>
    <path d="M44.8,19.6l-0.3-0.7h0c-0.3,0.3-0.5,0.5-0.8,0.7c-0.3,0.1-0.6,0.2-1,0.2c-0.5,0-0.9-0.1-1.2-0.4&#10;&#9;&#9;&#9;s-0.5-0.7-0.5-1.3c0-0.6,0.2-1,0.6-1.3c0.4-0.3,1-0.4,1.8-0.5l0.9,0v-0.2c0-0.6-0.3-0.8-0.8-0.8c-0.4,0-0.9,0.1-1.5,0.4l-0.5-1&#10;&#9;&#9;&#9;c0.6-0.3,1.3-0.5,2.1-0.5c0.7,0,1.3,0.2,1.7,0.5s0.6,0.8,0.6,1.5v3.6H44.8z M44.3,17l-0.6,0c-0.4,0-0.8,0.1-1,0.2&#10;&#9;&#9;&#9;c-0.2,0.1-0.3,0.4-0.3,0.7c0,0.4,0.2,0.6,0.7,0.6c0.3,0,0.6-0.1,0.8-0.3s0.3-0.5,0.3-0.8V17z" style="fill: rgb(159, 178, 191);"/>
    <path d="M49.6,18.5c0.3,0,0.6-0.1,0.9-0.2v1.1c-0.4,0.2-0.8,0.2-1.4,0.2c-0.6,0-1-0.2-1.3-0.5&#10;&#9;&#9;&#9;c-0.3-0.3-0.4-0.8-0.4-1.4v-2.6h-0.7v-0.6l0.8-0.5l0.4-1.2h1v1.2h1.5v1.1H49v2.6c0,0.2,0.1,0.4,0.2,0.5S49.4,18.5,49.6,18.5z" style="fill: rgb(159, 178, 191);"/>
    <path d="M55.2,19.6l-0.3-0.7h0c-0.3,0.3-0.5,0.5-0.8,0.7c-0.3,0.1-0.6,0.2-1,0.2c-0.5,0-0.9-0.1-1.2-0.4&#10;&#9;&#9;&#9;s-0.5-0.7-0.5-1.3c0-0.6,0.2-1,0.6-1.3c0.4-0.3,1-0.4,1.8-0.5l0.9,0v-0.2c0-0.6-0.3-0.8-0.8-0.8c-0.4,0-0.9,0.1-1.5,0.4l-0.5-1&#10;&#9;&#9;&#9;c0.6-0.3,1.3-0.5,2.1-0.5c0.7,0,1.3,0.2,1.7,0.5s0.6,0.8,0.6,1.5v3.6H55.2z M54.7,17l-0.6,0c-0.4,0-0.8,0.1-1,0.2&#10;&#9;&#9;&#9;c-0.2,0.1-0.3,0.4-0.3,0.7c0,0.4,0.2,0.6,0.7,0.6c0.3,0,0.6-0.1,0.8-0.3s0.3-0.5,0.3-0.8V17z" style="fill: rgb(159, 178, 191);"/>
    <path d="M65.4,14.6c0,0.8-0.2,1.4-0.7,1.8s-1.2,0.6-2,0.6H62v2.5h-1.5v-7.1h2.3c0.9,0,1.5,0.2,2,0.6&#10;&#9;&#9;&#9;C65.1,13.3,65.4,13.9,65.4,14.6z M62,15.8h0.5c0.5,0,0.8-0.1,1-0.3c0.2-0.2,0.3-0.5,0.3-0.8c0-0.4-0.1-0.6-0.3-0.8&#10;&#9;&#9;&#9;s-0.5-0.3-0.9-0.3H62V15.8z" style="fill: rgb(159, 178, 191);"/>
    <path d="M69.7,14c0.2,0,0.4,0,0.5,0L70,15.4c-0.1,0-0.3,0-0.4,0c-0.5,0-0.8,0.1-1.1,0.4s-0.4,0.6-0.4,1v2.8h-1.5&#10;&#9;&#9;&#9;v-5.5h1.1L68,15H68c0.2-0.3,0.4-0.6,0.7-0.7C69,14.1,69.3,14,69.7,14z" style="fill: rgb(159, 178, 191);"/>
    <path d="M76.1,16.8c0,0.9-0.2,1.6-0.7,2.1s-1.1,0.8-2,0.8c-0.5,0-1-0.1-1.4-0.3c-0.4-0.2-0.7-0.6-0.9-1&#10;&#9;&#9;&#9;s-0.3-0.9-0.3-1.5c0-0.9,0.2-1.6,0.7-2.1s1.1-0.7,2-0.7c0.5,0,1,0.1,1.4,0.3s0.7,0.6,0.9,1S76.1,16.2,76.1,16.8z M72.3,16.8&#10;&#9;&#9;&#9;c0,0.5,0.1,0.9,0.3,1.2s0.5,0.4,0.9,0.4c0.4,0,0.7-0.1,0.9-0.4c0.2-0.3,0.3-0.7,0.3-1.2c0-0.5-0.1-0.9-0.3-1.2s-0.5-0.4-0.9-0.4&#10;&#9;&#9;&#9;c-0.4,0-0.7,0.1-0.9,0.4C72.4,15.9,72.3,16.3,72.3,16.8z" style="fill: rgb(159, 178, 191);"/>
    <path d="M78.6,19.6l-2.1-5.5h1.6l1.1,3.1c0.1,0.4,0.2,0.8,0.2,1.1h0c0-0.3,0.1-0.7,0.2-1.1l1-3.1h1.6l-2.1,5.5&#10;&#9;&#9;&#9;H78.6z" style="fill: rgb(159, 178, 191);"/>
    <path d="M83,12.7c0-0.5,0.3-0.7,0.8-0.7s0.8,0.2,0.8,0.7c0,0.2-0.1,0.4-0.2,0.5c-0.1,0.1-0.3,0.2-0.6,0.2&#10;&#9;&#9;&#9;C83.2,13.4,83,13.2,83,12.7z M84.5,19.6H83v-5.5h1.5V19.6z" style="fill: rgb(159, 178, 191);"/>
    <path d="M87.8,19.7c-0.6,0-1.1-0.2-1.5-0.7s-0.5-1.2-0.5-2.1c0-0.9,0.2-1.6,0.6-2.1c0.4-0.5,0.9-0.7,1.5-0.7&#10;&#9;&#9;&#9;c0.7,0,1.2,0.3,1.6,0.8h0c-0.1-0.4-0.1-0.8-0.1-1.1V12h1.5v7.6h-1.1l-0.3-0.7h-0.1C89,19.4,88.5,19.7,87.8,19.7z M88.3,18.5&#10;&#9;&#9;&#9;c0.4,0,0.7-0.1,0.8-0.3s0.3-0.6,0.3-1.1v-0.2c0-0.6-0.1-1-0.3-1.3s-0.5-0.4-0.9-0.4c-0.3,0-0.6,0.1-0.8,0.4&#10;&#9;&#9;&#9;c-0.2,0.3-0.3,0.7-0.3,1.2c0,0.5,0.1,0.9,0.3,1.2C87.7,18.3,88,18.5,88.3,18.5z" style="fill: rgb(159, 178, 191);"/>
    <path d="M94.9,19.7c-0.9,0-1.6-0.2-2.1-0.7s-0.7-1.2-0.7-2.1c0-0.9,0.2-1.6,0.7-2.1c0.5-0.5,1.1-0.7,1.9-0.7&#10;&#9;&#9;&#9;c0.8,0,1.4,0.2,1.8,0.7s0.6,1,0.6,1.8v0.7h-3.5c0,0.4,0.1,0.8,0.4,1s0.6,0.4,1,0.4c0.3,0,0.6,0,0.9-0.1s0.6-0.2,0.9-0.3v1.2&#10;&#9;&#9;&#9;c-0.3,0.1-0.5,0.2-0.8,0.3C95.7,19.6,95.3,19.7,94.9,19.7z M94.7,15.1c-0.3,0-0.6,0.1-0.7,0.3c-0.2,0.2-0.3,0.5-0.3,0.9h2.1&#10;&#9;&#9;&#9;c0-0.4-0.1-0.7-0.3-0.9C95.2,15.2,95,15.1,94.7,15.1z" style="fill: rgb(159, 178, 191);"/>
    <path d="M100,19.7c-0.6,0-1.1-0.2-1.5-0.7S98,17.7,98,16.8c0-0.9,0.2-1.6,0.6-2.1c0.4-0.5,0.9-0.7,1.5-0.7&#10;&#9;&#9;&#9;c0.7,0,1.2,0.3,1.6,0.8h0c-0.1-0.4-0.1-0.8-0.1-1.1V12h1.5v7.6h-1.1l-0.3-0.7h-0.1C101.3,19.4,100.7,19.7,100,19.7z M100.6,18.5&#10;&#9;&#9;&#9;c0.4,0,0.7-0.1,0.8-0.3s0.3-0.6,0.3-1.1v-0.2c0-0.6-0.1-1-0.3-1.3s-0.5-0.4-0.9-0.4c-0.3,0-0.6,0.1-0.8,0.4&#10;&#9;&#9;&#9;c-0.2,0.3-0.3,0.7-0.3,1.2c0,0.5,0.1,0.9,0.3,1.2C100,18.3,100.2,18.5,100.6,18.5z" style="fill: rgb(159, 178, 191);"/>
    <path d="M107.4,12.4h2.2c1,0,1.7,0.1,2.2,0.4c0.5,0.3,0.7,0.7,0.7,1.4c0,0.4-0.1,0.8-0.3,1s-0.5,0.4-0.8,0.5v0&#10;&#9;&#9;&#9;c0.5,0.1,0.8,0.3,1,0.6s0.3,0.6,0.3,1.1c0,0.7-0.2,1.2-0.7,1.5s-1.1,0.5-1.9,0.5h-2.7V12.4z M108.9,15.2h0.9&#10;&#9;&#9;&#9;c0.4,0,0.7-0.1,0.9-0.2s0.3-0.3,0.3-0.6c0-0.3-0.1-0.5-0.3-0.6c-0.2-0.1-0.5-0.2-0.9-0.2h-0.8V15.2z M108.9,16.4v1.9h1&#10;&#9;&#9;&#9;c0.4,0,0.7-0.1,0.9-0.2s0.3-0.4,0.3-0.7c0-0.6-0.4-0.9-1.3-0.9H108.9z" style="fill: rgb(159, 178, 191);"/>
    <path d="M113.2,14.1h1.6l1,3.1c0.1,0.3,0.1,0.6,0.2,0.9h0c0-0.3,0.1-0.7,0.2-0.9l1-3.1h1.6l-2.3,6.2&#10;&#9;&#9;&#9;c-0.2,0.6-0.5,1-0.9,1.3s-0.9,0.4-1.4,0.4c-0.3,0-0.5,0-0.8-0.1v-1.2c0.2,0,0.4,0.1,0.6,0.1c0.3,0,0.5-0.1,0.7-0.2&#10;&#9;&#9;&#9;c0.2-0.2,0.4-0.4,0.5-0.7l0.1-0.3L113.2,14.1z" style="fill: rgb(159, 178, 191);"/>
  </g>
</svg>