<?xml version="1.0" standalone="no"?>
<!DOCTYPE svg PUBLIC "-//W3C//DTD SVG 20010904//EN"
 "http://www.w3.org/TR/2001/REC-SVG-20010904/DTD/svg10.dtd">
<svg version="1.0" xmlns="http://www.w3.org/2000/svg"
 width="700.000000pt" height="700.000000pt" viewBox="0 0 700.000000 700.000000"
 preserveAspectRatio="xMidYMid meet">
<metadata>
Created by potrace 1.11, written by Peter Selinger 2001-2013
</metadata>
<g transform="translate(0.000000,700.000000) scale(0.100000,-0.100000)"
fill="#000000" stroke="none">
<path d="M3247 6914 c-1 -1 -47 -5 -101 -9 -55 -4 -109 -8 -120 -10 -12 -2
-41 -6 -66 -9 -25 -4 -56 -8 -70 -10 -14 -3 -43 -7 -65 -11 -22 -3 -56 -10
-75 -15 -19 -5 -51 -12 -70 -15 -137 -23 -464 -131 -627 -205 -80 -37 -262
-127 -283 -140 -8 -5 -58 -35 -110 -67 -361 -217 -678 -502 -939 -842 -83
-108 -221 -315 -221 -331 0 -5 -3 -10 -7 -10 -5 0 -13 -10 -19 -23 -6 -12 -42
-83 -81 -157 -38 -74 -79 -157 -90 -185 -25 -58 -113 -284 -113 -290 0 -3 326
-5 725 -5 l724 0 56 84 c106 159 271 340 421 462 131 107 328 225 504 302 86
38 301 105 380 118 14 3 50 9 80 14 104 19 186 25 350 25 149 0 303 -9 319
-20 4 -2 25 -6 46 -8 90 -11 317 -77 425 -124 156 -69 317 -160 435 -247 99
-72 125 -96 255 -226 192 -193 321 -390 453 -690 19 -44 76 -225 83 -264 3
-16 7 -32 9 -36 4 -6 21 -101 30 -170 22 -153 26 -395 9 -515 -7 -44 -15 -100
-18 -125 -6 -41 -9 -58 -20 -107 -89 -387 -281 -730 -570 -1018 -257 -256
-568 -437 -914 -531 -96 -26 -115 -31 -171 -40 -18 -3 -42 -7 -53 -9 -104 -20
-445 -28 -558 -12 -143 19 -296 52 -378 81 -23 8 -42 13 -42 11 0 -2 -25 7
-55 21 -31 13 -60 24 -66 24 -19 0 -262 125 -339 175 -250 160 -516 428 -644
648 -16 26 -36 51 -45 55 -12 6 -1313 8 -1423 3 -17 -1 -6 -41 69 -231 30 -76
159 -341 204 -420 230 -396 558 -764 923 -1034 115 -86 271 -190 309 -207 12
-5 45 -23 72 -39 51 -30 180 -95 290 -145 76 -35 314 -123 349 -129 14 -2 29
-7 34 -10 10 -6 221 -61 277 -71 22 -5 45 -9 50 -10 6 -2 28 -6 50 -9 22 -4
65 -11 95 -16 190 -32 570 -45 775 -26 44 4 98 9 120 11 42 4 84 10 175 26 30
5 69 11 85 14 51 9 248 56 300 72 147 45 211 67 223 76 6 5 12 7 12 4 0 -8
184 70 302 127 113 54 262 138 347 195 34 22 65 41 67 41 3 0 10 5 17 11 7 5
46 35 87 65 276 202 518 439 716 704 84 111 194 276 194 289 0 5 3 11 8 13 19
9 183 335 241 481 66 168 134 383 147 462 3 22 8 43 11 47 2 5 6 16 8 25 20
105 37 204 41 230 2 18 6 50 9 71 3 20 8 69 11 107 3 39 7 81 10 95 5 33 6
357 0 440 -6 86 -15 185 -23 235 -3 22 -7 51 -8 65 -6 55 -51 271 -71 343 -8
29 -16 61 -19 72 -44 187 -189 535 -317 759 -61 106 -223 349 -282 421 -141
172 -312 350 -451 472 -285 246 -630 456 -980 594 -123 48 -354 122 -420 135
-45 9 -62 12 -100 23 -22 5 -56 13 -75 16 -19 3 -60 9 -90 15 -179 32 -300 42
-548 44 -105 2 -193 2 -195 0z"/>
<path d="M2821 5055 c-4 -5 -7 -216 -7 -468 1 -253 -2 -461 -6 -463 -4 -3
-595 -5 -1313 -5 l-1305 0 0 -610 0 -609 837 0 c461 0 1052 0 1313 0 l475 0 0
-473 -1 -473 611 1 610 0 0 1548 c0 852 -2 1552 -5 1556 -8 11 -1200 8 -1209
-4z"/>
</g>
</svg>
