<?xml version="1.0" standalone="no"?>
<!DOCTYPE svg PUBLIC "-//W3C//DTD SVG 20010904//EN"
 "http://www.w3.org/TR/2001/REC-SVG-20010904/DTD/svg10.dtd">
<svg version="1.0" xmlns="http://www.w3.org/2000/svg"
 width="300.000000pt" height="300.000000pt" viewBox="0 0 300.000000 300.000000"
 preserveAspectRatio="xMidYMid meet">
<metadata>
Created by potrace 1.11, written by Peter Selinger 2001-2013
</metadata>
<g transform="translate(0.000000,300.000000) scale(0.100000,-0.100000)"
fill="#000000" stroke="none">
<path d="M1320 2990 c-123 -18 -149 -23 -230 -47 -572 -165 -982 -635 -1076
-1232 -15 -97 -12 -362 5 -451 6 -30 13 -71 16 -90 10 -57 70 -229 111 -315
144 -304 401 -562 706 -708 80 -39 258 -101 318 -112 336 -62 609 -39 893 75
465 187 802 594 908 1097 30 141 33 417 5 563 -114 618 -602 1100 -1226 1210
-80 14 -355 20 -430 10z m400 -196 c555 -91 1002 -548 1080 -1106 12 -84 16
-312 6 -345 -3 -10 -8 -38 -11 -63 -3 -25 -17 -83 -30 -130 -143 -507 -558
-872 -1080 -951 -79 -12 -277 -14 -345 -4 -98 14 -196 38 -278 67 -442 154
-774 548 -857 1013 -19 105 -22 321 -6 415 19 114 21 123 57 229 134 401 464
720 870 840 118 34 141 39 254 47 47 4 86 8 88 9 7 6 169 -8 252 -21z"/>
<path d="M1389 2596 c-2 -2 -22 -6 -44 -9 -289 -40 -578 -222 -743 -469 -29
-42 -52 -80 -52 -83 0 -3 15 8 32 24 137 128 434 171 656 95 72 -24 145 -70
189 -117 l40 -43 48 43 c59 51 187 117 275 140 48 13 101 18 205 17 120 0 149
-4 205 -24 89 -31 146 -61 210 -109 75 -56 78 -65 38 -102 -18 -17 -54 -51
-79 -76 l-46 -44 -62 40 c-94 60 -148 76 -271 76 -121 0 -184 -17 -269 -73
-138 -91 -220 -309 -180 -482 6 -25 12 -52 14 -62 9 -42 63 -132 104 -175 153
-155 453 -165 635 -21 l38 31 83 -83 83 -82 32 82 c58 151 73 230 74 390 1
150 -3 187 -29 292 -75 299 -285 560 -570 710 -64 34 -206 83 -281 98 -54 11
-327 23 -335 16z"/>
<path d="M914 1955 c-109 -19 -178 -65 -191 -127 l-6 -29 -132 3 -133 3 -11
-50 c-6 -27 -13 -63 -17 -80 -20 -98 -5 -417 21 -444 4 -3 61 -6 128 -6 l121
-1 9 -29 c18 -55 49 -87 114 -117 158 -74 390 -33 456 80 24 42 26 122 3 156
-51 78 -112 99 -306 102 -80 2 -151 3 -157 3 -10 1 -13 29 -13 104 l0 102 123
-1 c243 -1 351 48 350 159 -1 25 -8 59 -17 76 -42 80 -190 121 -342 96z"/>
<path d="M1440 953 c-48 -47 -155 -98 -247 -119 -81 -18 -276 -24 -343 -11
-112 23 -196 57 -259 105 -19 14 -31 19 -26 11 133 -226 372 -414 618 -489
120 -36 182 -44 332 -44 171 0 277 21 423 82 207 86 426 280 521 460 10 19 4
16 -36 -14 -111 -86 -244 -126 -422 -129 -189 -3 -336 39 -456 130 -27 21 -54
41 -60 45 -5 4 -26 -8 -45 -27z"/>
</g>
</svg>
