<?xml version="1.0" encoding="utf-8"?>
<!-- Generator: Adobe Illustrator 18.1.1, SVG Export Plug-In . SVG Version: 6.00 Build 0)  -->
<!DOCTYPE svg PUBLIC "-//W3C//DTD SVG 1.1//EN" "http://www.w3.org/Graphics/SVG/1.1/DTD/svg11.dtd">
<svg version="1.1" id="Layer_1" xmlns="http://www.w3.org/2000/svg" xmlns:xlink="http://www.w3.org/1999/xlink" x="0px" y="0px"
	 viewBox="0 0 300 300" enable-background="new 0 0 300 300" xml:space="preserve">
<g>
	<path fill="#231F20" d="M16.7,268.2c0-78.8,0-157.6,0-236.4c0.2-0.4,0.5-0.7,0.6-1.1c1.5-7.4,6-11.9,13.4-13.4
		c0.4-0.1,0.8-0.4,1.1-0.6c78.8,0,157.6,0,236.4,0c0.5,0.2,0.9,0.5,1.4,0.6c7.2,1.6,11.5,5.9,13.1,13.1c0.1,0.5,0.4,0.9,0.6,1.4
		c0,78.8,0,157.6,0,236.4c-0.2,0.5-0.5,0.9-0.6,1.4c-1.6,7.2-5.9,11.5-13.1,13.1c-0.5,0.1-0.9,0.4-1.4,0.6c-22.7,0-45.5,0-68.2,0
		c0.1-1.1,0.2-2.2,0.2-3.4c0-31.1,0-62.1-0.1-93.2c0-2.7,0.8-3.3,3.3-3.3c9.3,0.2,18.6,0,27.8,0.1c1.7,0,2.4-0.4,2.8-2.2
		c2-10.2,4.1-20.3,6.1-30.5c0.6-3,1.1-6,1.7-9.4c-1.5,0-2.5,0-3.5,0c-11.9,0-23.8,0-35.7,0c-2.1,0-2.7-0.6-2.6-2.7
		c0.3-6.3,0.2-12.7,0.6-19c0.5-9.7,6.6-17.1,16.2-18.6c7.1-1,14.3-0.8,21.5-1.1c1.1,0,2.2,0,3.3,0c0-14.2,0-28,0-41.9
		c-1-0.1-1.8-0.1-2.7-0.1c-11.1,0-22.2-0.2-33.3,0c-11.7,0.2-22,4.3-30.5,12.5c-11.5,11.1-16.1,25.2-16.9,40.7
		c-0.5,9.2-0.1,18.4-0.1,27.6c0,1.9-0.5,2.5-2.5,2.5c-9.2-0.1-18.4,0-27.6,0c-1,0-2,0-3.1,0c0,14.2,0,28,0,42c1.1,0,2.1,0,3,0
		c8.9,0,17.9,0.1,26.8-0.1c2.6,0,3.4,0.6,3.3,3.3c-0.1,31.1-0.1,62.1-0.1,93.2c0,1.1,0.1,2.2,0.2,3.4c-42.2,0-84.3,0-126.5,0
		c-0.5-0.2-0.9-0.5-1.4-0.6c-7.2-1.6-11.5-5.9-13.1-13.1C17.2,269.1,16.9,268.6,16.7,268.2z"/>
</g>
</svg>
