<?xml version="1.0" encoding="utf-8"?>
<!-- Generator: Adobe Illustrator 18.1.1, SVG Export Plug-In . SVG Version: 6.00 Build 0)  -->
<!DOCTYPE svg PUBLIC "-//W3C//DTD SVG 1.1//EN" "http://www.w3.org/Graphics/SVG/1.1/DTD/svg11.dtd">
<svg version="1.1" id="Layer_1" xmlns="http://www.w3.org/2000/svg" xmlns:xlink="http://www.w3.org/1999/xlink" x="0px" y="0px"
	 viewBox="0 0 300 300" enable-background="new 0 0 300 300" xml:space="preserve">
<g>
	<path fill="#231F20" d="M18.1,112.4c25.5,0,50.6,0,75.8,0c-17.8,41.7-12.5,72.2,16,93.2c25.2,18.6,59.4,17.4,83.7-2.6
		c20.8-17.2,35.1-53,12.4-90.5c25.5,0,50.8,0,77,0c0,2.2,0,4.4,0,6.7c0,36.8,0,73.7,0,110.5c0,30.6-22.8,53.5-53.4,53.5
		c-53,0.1-106,0.1-159,0c-29.2,0-52.3-21.8-52.7-50.7c-0.5-39-0.1-78-0.1-117C17.8,114.7,18,113.8,18.1,112.4z"/>
	<path fill="#231F20" d="M282.9,104.2c-14.1,0-27.2,0-40.3,0c-13.1,0-26.3,0.2-39.4-0.1c-2.7-0.1-5.9-1.3-7.9-3
		c-26.6-23-63.7-23.1-90.2-0.2c-1.8,1.6-4.4,3.2-6.6,3.2c-25.8,0.2-51.7,0.1-77.5,0.1c-0.8,0-1.6-0.3-3.9-0.8
		c0.8-15.8,0.6-31.7,2.6-47.3c1.6-12,9.3-21.5,20-29.5c0,19,0,37.1,0,55.6c3.8,0,6.9,0,10.8,0c0-9.3,0-18.7,0-28.1
		c0-9,0.3-18.1-0.1-27.1c-0.3-5.7,1.6-8.5,8-8c0,21,0,42,0,63.4c3.5,0,6.4,0,10.2,0c0-21.5,0-43.1,0-65.2c2.8-0.2,4.9-0.3,7.7-0.4
		c0,22,0,43.7,0,65.6c3.7,0,6.6,0,10.4,0c0-21.6,0-43.2,0-65.6c3.1,0,5.4,0,7.7,0c45,0,90,0,135,0c30.4,0,53.4,23.1,53.5,53.6
		C282.9,81.3,282.9,92.2,282.9,104.2z M258.6,61.4c0-4.3,0-8.6,0-12.9c0-6.1-3.2-9.3-9.1-9.4c-9-0.2-18-0.3-27,0
		c-5.2,0.2-8.4,3-8.5,8.5c-0.1,9.4-0.1,18.9,0,28.3c0.1,5.4,3.1,8.3,8.6,8.3c9,0,18,0.1,27,0c6.1-0.1,8.8-3,8.9-9.3
		C258.6,70.4,258.6,65.9,258.6,61.4z"/>
	<path fill="#231F20" d="M149.9,99c29.1-0.1,52.8,23.4,52.7,52.3c0,28.7-24,52.6-52.8,52.5c-28.6-0.1-52-23.4-52.3-52.2
		C97.3,122.8,120.8,99.1,149.9,99z M150.3,113c-21.5,0-38.3,17.1-38.2,38.7c0.1,21,17.3,38.2,38.2,38.2c21,0,38.6-17.8,38.5-38.8
		C188.6,130.1,171.2,113,150.3,113z"/>
</g>
</svg>
