<?xml version="1.0" encoding="utf-8"?>
<!-- Generator: Adobe Illustrator 18.1.1, SVG Export Plug-In . SVG Version: 6.00 Build 0)  -->
<!DOCTYPE svg PUBLIC "-//W3C//DTD SVG 1.1//EN" "http://www.w3.org/Graphics/SVG/1.1/DTD/svg11.dtd">
<svg version="1.1" id="Layer_1" xmlns="http://www.w3.org/2000/svg" xmlns:xlink="http://www.w3.org/1999/xlink" x="0px" y="0px"
	 viewBox="0 0 300 300" enable-background="new 0 0 300 300" xml:space="preserve">
<g id="eLDC2J_2_">
	<g>
		<path fill="#FFFFFF" d="M266.5,283c-77.8,0-155.6,0-233.4,0c-2.1-0.8-4.4-1.4-6.3-2.4c-5.2-2.8-8.4-7.2-9.6-13.1
			c-0.2-1.2-0.4-2.4-0.5-3.6c0-76,0-152.1,0-228.1c0.1-0.9,0.1-1.8,0.3-2.7c1.5-7.3,5.7-12.4,12.7-15c1.1-0.4,2.3-0.7,3.5-1.1
			c77.9,0,155.7,0,233.6,0c2.4,0.9,4.9,1.6,7.1,2.9c4.8,2.7,7.8,6.9,8.8,12.3c0.2,1.2,0.4,2.4,0.5,3.6c0,76,0,152.1,0,228.1
			c-0.2,1.2-0.3,2.4-0.5,3.6c-1.1,5.9-4.4,10.2-9.6,13C271.1,281.7,268.8,282.2,266.5,283z M159.7,243.3c0-0.7,0-1.2,0-1.7
			c0-17.5,0-35.1,0-52.6c0-5,0.1-10.1,0.3-15.1c0.2-4.5,0.9-8.8,2.6-13c1.9-4.6,4.7-8.4,9.4-10.5c4.9-2.3,10-2.7,15.3-2.1
			c7.7,0.8,12.4,5.1,14.9,12.3c2,5.8,2.3,11.8,2.3,17.8c0.1,21.1,0,42.2,0,63.4c0,0.5,0,1.1,0,1.7c13.1,0,26.1,0,39.1,0
			c0-0.6,0-1.1,0-1.5c0-21.7,0-43.5,0-65.2c0-3.4,0-6.9-0.3-10.3c-0.3-4.7-0.7-9.4-1.3-14.1c-0.8-6.3-2.6-12.3-5.5-18
			c-4.5-8.8-11.6-14.6-20.9-17.6c-9.2-2.9-18.7-3.6-28.2-1.9c-8.3,1.5-15.7,5.2-21.7,11.1c-2.2,2.2-3.9,5-5.9,7.5
			c-0.4,0.5-0.7,1.4-1.8,0.8c0-5.6,0-11.3,0-17c-12.4,0-24.7,0-37.1,0c0,42.1,0,84.1,0,126.2C133.9,243.3,146.7,243.3,159.7,243.3z
			 M56.7,117.1c0,42.2,0,84.2,0,126.2c12.9,0,25.8,0,38.6,0c0-42.1,0-84.1,0-126.2C82.5,117.1,69.6,117.1,56.7,117.1z M76.2,99.1
			c12.4,0.1,22.3-10.2,22.7-21.8c0.4-13-10.3-23.6-22.7-23.5c-12.5,0.1-22.7,10.1-22.7,22.8C53.6,88.9,63.8,99.2,76.2,99.1z"/>
	</g>
</g>
</svg>
