<?xml version="1.0" encoding="utf-8"?>
<!-- Generator: Adobe Illustrator 18.1.1, SVG Export Plug-In . SVG Version: 6.00 Build 0)  -->
<!DOCTYPE svg PUBLIC "-//W3C//DTD SVG 1.1//EN" "http://www.w3.org/Graphics/SVG/1.1/DTD/svg11.dtd">
<svg version="1.1" id="Layer_1" xmlns="http://www.w3.org/2000/svg" xmlns:xlink="http://www.w3.org/1999/xlink" x="0px" y="0px"
	 viewBox="0 0 300 300" enable-background="new 0 0 300 300" xml:space="preserve">
<path fill="#FFFFFF" d="M16.7,233.9c4.3,0.4,8.7,0.7,13,0.7c25.4,0,48.1-7.8,68-23.4c-11.8-0.1-22.5-3.8-31.9-10.8
	c-9.4-7.1-15.8-16.1-19.3-27.1c2.9,0.6,6.3,0.9,10.2,0.9c5.1,0,9.9-0.7,14.5-2c-12.7-2.5-23.2-8.7-31.5-18.7s-12.5-21.6-12.5-34.8
	v-0.7c7.7,4.3,16,6.6,24.9,6.7c-7.5-4.9-13.5-11.4-17.9-19.4s-6.6-16.7-6.6-26.1c0-9.8,2.5-19,7.6-27.5C48.9,68.5,65.5,82,85.1,92
	s40.6,15.6,63,16.8c-1-4.8-1.5-9-1.5-12.6c0-15,5.3-27.9,16-38.6c10.7-10.7,23.6-16,38.8-16c15.7,0,29,5.8,39.9,17.3
	c12.6-2.6,24.1-7.1,34.7-13.4c-4,13.1-12,23.3-23.8,30.3c10.5-1.3,20.9-4.2,31.2-8.7c-6.9,10.8-16,20.3-27.1,28.4v7.2
	c0,14.6-2.1,29.2-6.4,43.9c-4.3,14.7-10.8,28.7-19.5,42c-8.7,13.4-19.2,25.2-31.3,35.6s-26.7,18.7-43.7,24.8s-35.2,9.2-54.7,9.2
	C70.4,258.4,42.4,250.2,16.7,233.9z"/>
</svg>
